# FamiTracker text export 0.4.2

# Song information
TITLE           ""
AUTHOR          ""
COPYRIGHT       ""

# Song comment
COMMENT ""

# Global settings
MACHINE         0
FRAMERATE       0
EXPANSION       0
VIBRATO         1
SPLIT           32

# Macros
MACRO       0   0  -1  -1   0 : 3 4 3 5 6 8 10 8 7 6 4 4 4 2
MACRO       0   1  -1  -1   0 : 1 9 6 5 4 4 4 1 1 1 1 1 0
MACRO       0   2  -1  -1   0 : 0 8 5 5 5 1 0
MACRO       0   3  -1  -1   0 : 2 4 6 7 7 6 5 5 5 2
MACRO       0   4  -1  -1   0 : 9
MACRO       0   5  -1  -1   0 : 3 9 15 11 8 5 5 5 1 1 1 0
MACRO       0   6  -1  -1   0 : 3 9 15 11 9 7 5 5 5 5 2 2 2 2 1
MACRO       0   7  -1  -1   0 : 3 7 11 13 11 9 7 6 4 4 4 3
MACRO       0   8  -1  -1   0 : 1 14 10 7 5 5 5 2 2 2 1 1 1 1 1 0
MACRO       0   9  -1  -1   0 : 0 1 2 3 3 3 0
MACRO       0  10  -1  -1   0 : 0 3 2 2 2 0
MACRO       0  11  -1  -1   0 : 0 8 5 3 3 3 1 1 1 0
MACRO       0  12  -1  -1   0 : 0 3 5 7 6 5 5 5 1 1 1 1 0
MACRO       0  13  -1  -1   0 : 4 6 11 12 12 13 13 6 0
MACRO       0  14  -1  -1   0 : 3 9 15 13 9 7 4 4 4 2 2 2 1 1 1 0
MACRO       0  15  -1  -1   0 : 2 6 10 8 6 5 5 5 2 2 2 1
MACRO       0  16  -1  -1   0 : 1 3 6 5 5 5 3 3 3 1
MACRO       0  17  -1  -1   0 : 2 5 10 8 6 4 4 4 1 1 1 0
MACRO       0  18  -1  -1   0 : 1 3 6 5 4 4 4 1 1 1 0
MACRO       0  19  -1  -1   0 : 2 3 2 3 4 5 6 7 6 5 5 5 2
MACRO       0  20  -1  -1   0 : 0 2 1 1 1 0
MACRO       0  21  -1  -1   0 : 3 6 9 8 7 5 3 3 3 2 2 2 1 1 1 0
MACRO       1   0  -1  -1   0 : 0 -1 -2
MACRO       1   1  -1  -1   0 : -1 -1 0
MACRO       2   0   7  -1   0 : 0 0 0 0 0 0 0 1 1 0 0 -1 -1 0 0
MACRO       4   0  -1  -1   0 : 1
MACRO       4   1  -1  -1   0 : 2

# DPCM samples

# Instruments
INST2A03   0     0  -1   0  -1   0 "Violin"
INST2A03   1     1  -1  -1  -1   0 "Ding"
INST2A03   2     2  -1  -1  -1   0 "Tiny Ding"
INST2A03   3     3  -1  -1  -1   0 "Soft Fade In"
INST2A03   4     4  -1   0  -1   1 "Organ"
INST2A03   5     5  -1  -1  -1   1 "Staccato"
INST2A03   6     6  -1  -1  -1   1 "Legato"
INST2A03   7     7  -1   0  -1   1 "Legato2"
INST2A03   8     8  -1  -1  -1   1 "Big Ding"
INST2A03   9    10   0  -1  -1   1 "Cymbol Tap"
INST2A03  10     9  -1  -1  -1   1 "Cymbol Open"
INST2A03  11    11  -1  -1  -1   1 "Bass Drum"
INST2A03  12    12   0  -1  -1  -1 "Big Cymbol Crash"
INST2A03  13    13  -1  -1  -1   0 "Mountain Stab"
INST2A03  14    14  -1  -1  -1   0 "Staccato 2"
INST2A03  15     6  -1  -1  -1   0 "Legato 3"
INST2A03  16    15  -1  -1  -1   1 "Legato Med"
INST2A03  17    16  -1  -1  -1   1 "Legato Soft"
INST2A03  18    17  -1  -1  -1   1 "Staccato Med"
INST2A03  19    18  -1  -1  -1   1 "Staccato Soft"
INST2A03  20    19  -1   0  -1   0 "Violin Med"
INST2A03  21    20   0  -1  -1   1 "Cymbol Tap Med"
INST2A03  22    21  -1  -1  -1   0 "Staccato 2 Med"

# Tracks

TRACK  64   7 150 "Orpheus"
COLUMNS : 1 1 1 1 1

ORDER 00 : 00 00 00 00 00
ORDER 01 : 01 00 00 00 00
ORDER 02 : 02 01 01 01 00
ORDER 03 : 03 01 01 01 00
ORDER 04 : 04 02 02 00 00
ORDER 05 : 05 03 03 02 00
ORDER 06 : 06 04 04 03 00
ORDER 07 : 05 03 03 02 00
ORDER 08 : 06 04 04 03 00

PATTERN 00
ROW 00 : A#1 11 . ... : F-1 01 . ... : --- .. . ... : 0-# 0B . ... : ... .. . ...
ROW 01 : ... .. . ... : ... .. . ... : ... .. . ... : ... .. . ... : ... .. . ...
ROW 02 : F-2 10 . ... : A#2 02 . ... : ... .. . ... : C-# 09 . ... : ... .. . ...
ROW 03 : ... .. . ... : ... .. . ... : ... .. . ... : ... .. . ... : ... .. . ...
ROW 04 : F-2 12 . ... : A#2 02 . ... : ... .. . ... : C-# 09 . ... : ... .. . ...
ROW 05 : ... .. . ... : ... .. . ... : ... .. . ... : ... .. . ... : ... .. . ...
ROW 06 : G-2 05 . ... : A#2 02 . ... : ... .. . ... : B-# 0A . ... : ... .. . ...
ROW 07 : ... .. . ... : ... .. . ... : ... .. . ... : ... .. . ... : ... .. . ...
ROW 08 : F-2 05 . ... : D#1 01 . ... : ... .. . ... : 0-# 0B . ... : ... .. . ...
ROW 09 : ... .. . ... : ... .. . ... : ... .. . ... : ... .. . ... : ... .. . ...
ROW 0A : D#2 05 . ... : A#2 02 . ... : ... .. . ... : C-# 09 . ... : ... .. . ...
ROW 0B : ... .. . ... : ... .. . ... : ... .. . ... : ... .. . ... : ... .. . ...
ROW 0C : D#2 05 . ... : A#2 02 . ... : ... .. . ... : C-# 09 . ... : ... .. . ...
ROW 0D : ... .. . ... : ... .. . ... : ... .. . ... : ... .. . ... : ... .. . ...
ROW 0E : G-2 06 . ... : A#2 02 . ... : ... .. . ... : B-# 0A . ... : ... .. . ...
ROW 0F : ... .. . ... : ... .. . ... : ... .. . ... : ... .. . ... : ... .. . ...
ROW 10 : G#2 06 . ... : G#1 02 . ... : ... .. . ... : 0-# 0B . ... : ... .. . ...
ROW 11 : ... .. . ... : ... .. . ... : ... .. . ... : ... .. . ... : ... .. . ...
ROW 12 : C-3 05 . ... : D#2 02 . ... : ... .. . ... : C-# 09 . ... : ... .. . ...
ROW 13 : ... .. . ... : ... .. . ... : ... .. . ... : ... .. . ... : ... .. . ...
ROW 14 : D#3 05 . ... : D#2 02 . ... : ... .. . ... : C-# 09 . ... : ... .. . ...
ROW 15 : ... .. . ... : ... .. . ... : ... .. . ... : ... .. . ... : ... .. . ...
ROW 16 : C-3 12 . ... : D#2 02 . ... : ... .. . ... : B-# 0A . ... : ... .. . ...
ROW 17 : ... .. . ... : ... .. . ... : ... .. . ... : ... .. . ... : ... .. . ...
ROW 18 : C-3 05 . ... : --- .. . ... : ... .. . ... : 0-# 0B . ... : ... .. . ...
ROW 19 : ... .. . ... : ... .. . ... : ... .. . ... : ... .. . ... : ... .. . ...
ROW 1A : A#2 06 . ... : D#2 02 . ... : ... .. . ... : C-# 09 . ... : ... .. . ...
ROW 1B : ... .. . ... : ... .. . ... : ... .. . ... : ... .. . ... : ... .. . ...
ROW 1C : A#2 07 . ... : D#2 02 . ... : ... .. . ... : C-# 09 . ... : ... .. . ...
ROW 1D : ... .. . ... : ... .. . ... : ... .. . ... : ... .. . ... : ... .. . ...
ROW 1E : ... .. . ... : D#2 02 . ... : ... .. . ... : ... .. . ... : ... .. . ...
ROW 1F : ... .. . ... : ... .. . ... : ... .. . ... : ... .. . ... : ... .. . ...
ROW 20 : C-3 05 . ... : --- .. . ... : ... .. . ... : 0-# 0B . ... : ... .. . ...
ROW 21 : ... .. . ... : ... .. . ... : ... .. . ... : ... .. . ... : ... .. . ...
ROW 22 : D-2 12 . ... : D-2 02 . ... : ... .. . ... : C-# 09 . ... : ... .. . ...
ROW 23 : ... .. . ... : ... .. . ... : ... .. . ... : ... .. . ... : ... .. . ...
ROW 24 : D-2 10 . ... : D-2 02 . ... : ... .. . ... : C-# 09 . ... : ... .. . ...
ROW 25 : ... .. . ... : ... .. . ... : ... .. . ... : ... .. . ... : ... .. . ...
ROW 26 : C-3 06 . ... : D-2 02 . ... : ... .. . ... : B-# 0A . ... : ... .. . ...
ROW 27 : ... .. . ... : ... .. . ... : ... .. . ... : ... .. . ... : ... .. . ...
ROW 28 : A#2 05 . ... : --- .. . ... : ... .. . ... : 0-# 0B . ... : ... .. . ...
ROW 29 : ... .. . ... : ... .. . ... : ... .. . ... : ... .. . ... : ... .. . ...
ROW 2A : D#2 12 . ... : D#2 02 . ... : ... .. . ... : C-# 09 . ... : ... .. . ...
ROW 2B : ... .. . ... : ... .. . ... : ... .. . ... : ... .. . ... : ... .. . ...
ROW 2C : D#2 10 . ... : D#2 02 . ... : ... .. . ... : C-# 09 . ... : ... .. . ...
ROW 2D : ... .. . ... : ... .. . ... : ... .. . ... : ... .. . ... : ... .. . ...
ROW 2E : G-2 06 . ... : D#2 02 . ... : ... .. . ... : B-# 0A . ... : ... .. . ...
ROW 2F : ... .. . ... : ... .. . ... : ... .. . ... : ... .. . ... : ... .. . ...
ROW 30 : G-2 07 . ... : F-1 01 . ... : ... .. . ... : 0-# 0B . ... : ... .. . ...
ROW 31 : ... .. . ... : ... .. . ... : ... .. . ... : ... .. . ... : ... .. . ...
ROW 32 : F-2 07 . ... : D#2 02 . ... : ... .. . ... : C-# 09 . ... : ... .. . ...
ROW 33 : ... .. . ... : ... .. . ... : ... .. . ... : ... .. . ... : ... .. . ...
ROW 34 : G-2 07 . ... : D#2 02 . ... : ... .. . ... : C-# 09 . ... : ... .. . ...
ROW 35 : ... .. . ... : ... .. . ... : ... .. . ... : ... .. . ... : ... .. . ...
ROW 36 : F-2 07 . ... : D#2 02 . ... : ... .. . ... : B-# 0A . ... : ... .. . ...
ROW 37 : ... .. . ... : ... .. . ... : ... .. . ... : ... .. . ... : ... .. . ...
ROW 38 : G-2 06 . ... : A#1 01 . ... : ... .. . ... : 0-# 0B . ... : ... .. . ...
ROW 39 : ... .. . ... : ... .. . ... : ... .. . ... : ... .. . ... : ... .. . ...
ROW 3A : F-2 10 . ... : A#2 02 . ... : ... .. . ... : C-# 09 . ... : ... .. . ...
ROW 3B : ... .. . ... : ... .. . ... : ... .. . ... : ... .. . ... : ... .. . ...
ROW 3C : G-2 06 . ... : A#2 01 . ... : ... .. . ... : C-# 09 . ... : ... .. . ...
ROW 3D : ... .. . ... : ... .. . ... : ... .. . ... : ... .. . ... : ... .. . ...
ROW 3E : F-2 10 . ... : --- 02 . ... : ... .. . ... : C-# 09 . ... : ... .. . ...
ROW 3F : ... .. . ... : ... .. . ... : ... .. . ... : ... .. . ... : ... .. . ...

PATTERN 01
ROW 00 : A#1 11 . ... : G-4 00 . ... : G-2 07 . ... : 0-# 0B . ... : ... .. . ...
ROW 01 : ... .. . ... : ... .. . ... : ... .. . ... : ... .. . ... : ... .. . ...
ROW 02 : F-2 10 . ... : ... .. . ... : ... .. . ... : ... .. . ... : ... .. . ...
ROW 03 : ... .. . ... : ... .. . ... : ... .. . ... : ... .. . ... : ... .. . ...
ROW 04 : F-2 12 . ... : D#4 00 . ... : D#2 07 . ... : 0-# 0B . ... : ... .. . ...
ROW 05 : ... .. . ... : ... .. . ... : ... .. . ... : ... .. . ... : ... .. . ...
ROW 06 : G-2 05 . ... : ... .. . ... : ... .. . ... : ... .. . ... : ... .. . ...
ROW 07 : ... .. . ... : ... .. . ... : ... .. . ... : ... .. . ... : ... .. . ...
ROW 08 : F-2 05 . ... : C-4 00 . ... : C-2 07 . ... : 0-# 0B . ... : ... .. . ...
ROW 09 : ... .. . ... : ... .. . ... : ... .. . ... : ... .. . ... : ... .. . ...
ROW 0A : D#2 05 . ... : ... .. . ... : ... .. . ... : ... .. . ... : ... .. . ...
ROW 0B : ... .. . ... : ... .. . ... : ... .. . ... : ... .. . ... : ... .. . ...
ROW 0C : D#2 05 . ... : A#3 00 . ... : A#1 07 . ... : 0-# 0B . ... : ... .. . ...
ROW 0D : ... .. . ... : ... .. . ... : ... .. . ... : ... .. . ... : ... .. . ...
ROW 0E : G-2 06 . ... : ... .. . ... : ... .. . ... : ... .. . ... : ... .. . ...
ROW 0F : ... .. . ... : ... .. . ... : ... .. . ... : ... .. . ... : ... .. . ...
ROW 10 : G#2 06 . ... : F-1 01 . ... : --- .. . ... : 0-# 0B . ... : ... .. . ...
ROW 11 : ... .. . ... : ... .. . ... : ... .. . ... : ... .. . ... : ... .. . ...
ROW 12 : C-3 05 . ... : A#2 02 . ... : ... .. . ... : C-# 09 . ... : ... .. . ...
ROW 13 : ... .. . ... : ... .. . ... : ... .. . ... : ... .. . ... : ... .. . ...
ROW 14 : D#3 05 . ... : A#2 02 . ... : ... .. . ... : C-# 09 . ... : ... .. . ...
ROW 15 : ... .. . ... : ... .. . ... : ... .. . ... : ... .. . ... : ... .. . ...
ROW 16 : C-3 12 . ... : A#2 02 . ... : ... .. . ... : B-# 0A . ... : ... .. . ...
ROW 17 : ... .. . ... : ... .. . ... : ... .. . ... : ... .. . ... : ... .. . ...
ROW 18 : C-3 05 . ... : D#2 02 . ... : ... .. . ... : 0-# 0B . ... : ... .. . ...
ROW 19 : ... .. . ... : ... .. . ... : ... .. . ... : ... .. . ... : ... .. . ...
ROW 1A : A#2 06 . ... : A#2 02 . ... : ... .. . ... : C-# 09 . ... : ... .. . ...
ROW 1B : ... .. . ... : ... .. . ... : ... .. . ... : ... .. . ... : ... .. . ...
ROW 1C : A#2 07 . ... : A#2 02 . ... : ... .. . ... : C-# 09 . ... : ... .. . ...
ROW 1D : ... .. . ... : ... .. . ... : ... .. . ... : ... .. . ... : ... .. . ...
ROW 1E : ... .. . ... : ... .. . ... : ... .. . ... : ... .. . ... : ... .. . ...
ROW 1F : ... .. . ... : ... .. . ... : ... .. . ... : ... .. . ... : ... .. . ...
ROW 20 : C-3 05 . ... : G-4 00 . ... : G-2 07 . ... : 0-# 0B . ... : ... .. . ...
ROW 21 : ... .. . ... : ... .. . ... : ... .. . ... : ... .. . ... : ... .. . ...
ROW 22 : D-2 12 . ... : ... .. . ... : ... .. . ... : ... .. . ... : ... .. . ...
ROW 23 : ... .. . ... : ... .. . ... : ... .. . ... : ... .. . ... : ... .. . ...
ROW 24 : D-2 10 . ... : D#4 00 . ... : D#2 07 . ... : 0-# 0B . ... : ... .. . ...
ROW 25 : ... .. . ... : ... .. . ... : ... .. . ... : ... .. . ... : ... .. . ...
ROW 26 : C-3 06 . ... : ... .. . ... : ... .. . ... : ... .. . ... : ... .. . ...
ROW 27 : ... .. . ... : ... .. . ... : ... .. . ... : ... .. . ... : ... .. . ...
ROW 28 : A#2 05 . ... : C-4 00 . ... : C-2 07 . ... : 0-# 0B . ... : ... .. . ...
ROW 29 : ... .. . ... : ... .. . ... : ... .. . ... : ... .. . ... : ... .. . ...
ROW 2A : D#2 12 . ... : ... .. . ... : ... .. . ... : ... .. . ... : ... .. . ...
ROW 2B : ... .. . ... : ... .. . ... : ... .. . ... : ... .. . ... : ... .. . ...
ROW 2C : D#2 10 . ... : A#3 00 . ... : A#1 07 . ... : 0-# 0B . ... : ... .. . ...
ROW 2D : ... .. . ... : ... .. . ... : ... .. . ... : ... .. . ... : ... .. . ...
ROW 2E : G-2 06 . ... : ... .. . ... : ... .. . ... : ... .. . ... : ... .. . ...
ROW 2F : ... .. . ... : ... .. . ... : ... .. . ... : ... .. . ... : ... .. . ...
ROW 30 : G-2 07 . ... : F-1 01 . ... : --- .. . ... : 0-# 0B . ... : ... .. . ...
ROW 31 : ... .. . ... : ... .. . ... : ... .. . ... : ... .. . ... : ... .. . ...
ROW 32 : F-2 07 . ... : A#2 02 . ... : ... .. . ... : C-# 09 . ... : ... .. . ...
ROW 33 : ... .. . ... : ... .. . ... : ... .. . ... : ... .. . ... : ... .. . ...
ROW 34 : G-2 07 . ... : A#2 02 . ... : ... .. . ... : C-# 09 . ... : ... .. . ...
ROW 35 : ... .. . ... : ... .. . ... : ... .. . ... : ... .. . ... : ... .. . ...
ROW 36 : F-2 07 . ... : A#2 02 . ... : ... .. . ... : B-# 0A . ... : ... .. . ...
ROW 37 : ... .. . ... : ... .. . ... : ... .. . ... : ... .. . ... : ... .. . ...
ROW 38 : F-2 06 . ... : D#2 02 . ... : ... .. . ... : 0-# 0B . ... : ... .. . ...
ROW 39 : ... .. . ... : ... .. . ... : ... .. . ... : ... .. . ... : ... .. . ...
ROW 3A : D#2 06 . ... : A#2 02 . ... : ... .. . ... : C-# 09 . ... : ... .. . ...
ROW 3B : ... .. . ... : ... .. . ... : ... .. . ... : ... .. . ... : ... .. . ...
ROW 3C : D#2 06 . ... : A#2 02 . ... : ... .. . ... : C-# 09 . ... : ... .. . ...
ROW 3D : ... .. . ... : ... .. . ... : ... .. . ... : ... .. . ... : ... .. . ...
ROW 3E : ... .. . ... : ... .. . ... : ... .. . ... : ... .. . ... : ... .. . ...
ROW 3F : ... .. . ... : ... .. . ... : ... .. . ... : ... .. . ... : ... .. . ...

PATTERN 02
ROW 00 : G-2 07 . ... : A#3 07 . ... : --- .. . ... : 0-# 0B . ... : ... .. . ...
ROW 01 : ... .. . ... : ... .. . ... : ... .. . ... : ... .. . ... : ... .. . ...
ROW 02 : ... .. . ... : ... .. . ... : ... .. . ... : ... .. . ... : ... .. . ...
ROW 03 : ... .. . ... : ... .. . ... : ... .. . ... : ... .. . ... : ... .. . ...
ROW 04 : D#2 07 . ... : A#3 07 . ... : ... .. . ... : C-# 0C . ... : ... .. . ...
ROW 05 : ... .. . ... : ... .. . ... : ... .. . ... : ... .. . ... : ... .. . ...
ROW 06 : ... .. . ... : ... .. . ... : ... .. . ... : ... .. . ... : ... .. . ...
ROW 07 : ... .. . ... : ... .. . ... : ... .. . ... : ... .. . ... : ... .. . ...
ROW 08 : C-2 07 . ... : D#3 05 . ... : D#2 04 . ... : 0-# 0B . ... : ... .. . ...
ROW 09 : ... .. . ... : ... .. . ... : --- .. . ... : ... .. . ... : ... .. . ...
ROW 0A : ... .. . ... : D#3 12 . ... : ... .. . ... : ... .. . ... : ... .. . ...
ROW 0B : ... .. . ... : ... .. . ... : ... .. . ... : ... .. . ... : ... .. . ...
ROW 0C : A#1 07 . ... : D#3 05 . ... : D#2 04 . ... : C-# 0C . ... : ... .. . ...
ROW 0D : ... .. . ... : ... .. . ... : --- .. . ... : ... .. . ... : ... .. . ...
ROW 0E : ... .. . ... : D#3 12 . ... : ... .. . ... : ... .. . ... : ... .. . ...
ROW 0F : ... .. . ... : ... .. . ... : ... .. . ... : ... .. . ... : ... .. . ...
ROW 10 : A#2 06 . ... : D#1 03 . ... : D#2 07 . ... : 0-# 0B . ... : ... .. . ...
ROW 11 : ... .. . ... : ... .. . ... : --- .. . ... : ... .. . ... : ... .. . ...
ROW 12 : F-2 12 . ... : ... .. . ... : D#2 07 . ... : ... .. . ... : ... .. . ...
ROW 13 : ... .. . ... : ... .. . ... : --- .. . ... : ... .. . ... : ... .. . ...
ROW 14 : G-2 12 . ... : ... .. . ... : D#2 07 . ... : C-# 0C . ... : ... .. . ...
ROW 15 : ... .. . ... : ... .. . ... : --- .. . ... : ... .. . ... : ... .. . ...
ROW 16 : G#2 12 . ... : ... .. . ... : D#2 07 . ... : ... .. . ... : ... .. . ...
ROW 17 : ... .. . ... : ... .. . ... : --- .. . ... : ... .. . ... : ... .. . ...
ROW 18 : G-2 10 . ... : ... .. . ... : ... .. . ... : 0-# 0B . ... : ... .. . ...
ROW 19 : ... .. . ... : ... .. . ... : ... .. . ... : ... .. . ... : ... .. . ...
ROW 1A : F-2 10 . ... : ... .. . ... : ... .. . ... : ... .. . ... : ... .. . ...
ROW 1B : ... .. . ... : ... .. . ... : ... .. . ... : ... .. . ... : ... .. . ...
ROW 1C : D#2 07 . ... : ... .. . ... : ... .. . ... : C-# 0C . ... : ... .. . ...
ROW 1D : ... .. . ... : ... .. . ... : ... .. . ... : ... .. . ... : ... .. . ...
ROW 1E : ... .. . ... : ... .. . ... : ... .. . ... : ... .. . ... : ... .. . ...
ROW 1F : ... .. . ... : ... .. . ... : ... .. . ... : ... .. . ... : ... .. . ...
ROW 20 : G-2 07 . ... : ... .. . ... : ... .. . ... : 0-# 0B . ... : ... .. . ...
ROW 21 : ... .. . ... : ... .. . ... : ... .. . ... : ... .. . ... : ... .. . ...
ROW 22 : ... .. . ... : ... .. . ... : ... .. . ... : ... .. . ... : ... .. . ...
ROW 23 : ... .. . ... : ... .. . ... : ... .. . ... : ... .. . ... : ... .. . ...
ROW 24 : D#2 07 . ... : ... .. . ... : ... .. . ... : C-# 0C . ... : ... .. . ...
ROW 25 : ... .. . ... : ... .. . ... : ... .. . ... : ... .. . ... : ... .. . ...
ROW 26 : ... .. . ... : ... .. . ... : ... .. . ... : ... .. . ... : ... .. . ...
ROW 27 : ... .. . ... : ... .. . ... : ... .. . ... : ... .. . ... : ... .. . ...
ROW 28 : C-2 07 . ... : ... .. . ... : ... .. . ... : 0-# 0B . ... : ... .. . ...
ROW 29 : ... .. . ... : ... .. . ... : ... .. . ... : ... .. . ... : ... .. . ...
ROW 2A : ... .. . ... : ... .. . ... : ... .. . ... : ... .. . ... : ... .. . ...
ROW 2B : ... .. . ... : ... .. . ... : ... .. . ... : ... .. . ... : ... .. . ...
ROW 2C : A#1 07 . ... : ... .. . ... : ... .. . ... : C-# 0C . ... : ... .. . ...
ROW 2D : ... .. . ... : ... .. . ... : ... .. . ... : ... .. . ... : ... .. . ...
ROW 2E : ... .. . ... : ... .. . ... : ... .. . ... : ... .. . ... : ... .. . ...
ROW 2F : ... .. . ... : ... .. . ... : ... .. . ... : ... .. . ... : ... .. . ...
ROW 30 : A-1 06 . ... : ... .. . ... : ... .. . ... : 0-# 0B . ... : ... .. . ...
ROW 31 : ... .. . ... : ... .. . ... : ... .. . ... : ... .. . ... : ... .. . ...
ROW 32 : A#1 12 . ... : ... .. . ... : ... .. . ... : ... .. . ... : ... .. . ...
ROW 33 : ... .. . ... : ... .. . ... : ... .. . ... : ... .. . ... : ... .. . ...
ROW 34 : C-2 12 . ... : ... .. . ... : ... .. . ... : C-# 0C . ... : ... .. . ...
ROW 35 : ... .. . ... : ... .. . ... : ... .. . ... : ... .. . ... : ... .. . ...
ROW 36 : D-2 12 . ... : ... .. . ... : ... .. . ... : ... .. . ... : ... .. . ...
ROW 37 : ... .. . ... : ... .. . ... : ... .. . ... : ... .. . ... : ... .. . ...
ROW 38 : F-2 10 . ... : ... .. . ... : ... .. . ... : 0-# 0B . ... : ... .. . ...
ROW 39 : ... .. . ... : ... .. . ... : ... .. . ... : ... .. . ... : ... .. . ...
ROW 3A : D#2 10 . ... : ... .. . ... : ... .. . ... : ... .. . ... : ... .. . ...
ROW 3B : ... .. . ... : ... .. . ... : ... .. . ... : ... .. . ... : ... .. . ...
ROW 3C : D#2 07 . ... : ... .. . ... : ... .. . ... : C-# 0C . ... : ... .. . ...
ROW 3D : ... .. . ... : ... .. . ... : ... .. . ... : ... .. . ... : ... .. . ...
ROW 3E : ... .. . ... : ... .. . ... : ... .. . ... : ... .. . ... : ... .. . ...
ROW 3F : ... .. . ... : ... .. . ... : ... .. . ... : ... .. . ... : ... .. . ...

PATTERN 03
ROW 00 : G-2 07 . ... : G#1 00 . ... : --- .. . ... : 0-# 0B . ... : ... .. . ...
ROW 01 : ... .. . ... : ... .. . ... : ... .. . ... : ... .. . ... : ... .. . ...
ROW 02 : ... .. . ... : D#2 05 . ... : ... .. . ... : ... .. . ... : ... .. . ...
ROW 03 : ... .. . ... : ... .. . ... : ... .. . ... : ... .. . ... : ... .. . ...
ROW 04 : D#2 07 . ... : D#2 05 . ... : G#1 05 . ... : C-# 0C . ... : ... .. . ...
ROW 05 : ... .. . ... : ... .. . ... : ... .. . ... : ... .. . ... : ... .. . ...
ROW 06 : ... .. . ... : D#2 05 . ... : ... .. . ... : ... .. . ... : ... .. . ...
ROW 07 : ... .. . ... : ... .. . ... : ... .. . ... : ... .. . ... : ... .. . ...
ROW 08 : C-2 07 . ... : G#1 00 . ... : --- .. . ... : 0-# 0B . ... : ... .. . ...
ROW 09 : ... .. . ... : ... .. . ... : ... .. . ... : ... .. . ... : ... .. . ...
ROW 0A : ... .. . ... : D#2 05 . ... : ... .. . ... : ... .. . ... : ... .. . ...
ROW 0B : ... .. . ... : ... .. . ... : ... .. . ... : ... .. . ... : ... .. . ...
ROW 0C : A#1 07 . ... : D#2 05 . ... : G#1 05 . ... : C-# 0C . ... : ... .. . ...
ROW 0D : ... .. . ... : ... .. . ... : ... .. . ... : ... .. . ... : ... .. . ...
ROW 0E : ... .. . ... : D#2 05 . ... : ... .. . ... : ... .. . ... : ... .. . ...
ROW 0F : ... .. . ... : ... .. . ... : ... .. . ... : ... .. . ... : ... .. . ...
ROW 10 : A#2 06 . ... : G#1 00 . ... : --- .. . ... : 0-# 0B . ... : ... .. . ...
ROW 11 : ... .. . ... : ... .. . ... : ... .. . ... : ... .. . ... : ... .. . ...
ROW 12 : F-2 12 . ... : D#2 05 . ... : ... .. . ... : ... .. . ... : ... .. . ...
ROW 13 : ... .. . ... : ... .. . ... : ... .. . ... : ... .. . ... : ... .. . ...
ROW 14 : G-2 12 . ... : D#2 05 . ... : G#1 05 . ... : C-# 0C . ... : ... .. . ...
ROW 15 : ... .. . ... : ... .. . ... : ... .. . ... : ... .. . ... : ... .. . ...
ROW 16 : G#2 12 . ... : D#2 05 . ... : ... .. . ... : ... .. . ... : ... .. . ...
ROW 17 : ... .. . ... : ... .. . ... : ... .. . ... : ... .. . ... : ... .. . ...
ROW 18 : G-2 10 . ... : G#1 00 . ... : --- .. . ... : 0-# 0B . ... : ... .. . ...
ROW 19 : ... .. . ... : ... .. . ... : ... .. . ... : ... .. . ... : ... .. . ...
ROW 1A : F-2 10 . ... : D#2 05 . ... : ... .. . ... : ... .. . ... : ... .. . ...
ROW 1B : ... .. . ... : ... .. . ... : ... .. . ... : ... .. . ... : ... .. . ...
ROW 1C : D#2 07 . ... : D#2 05 . ... : G#1 05 . ... : C-# 0C . ... : ... .. . ...
ROW 1D : ... .. . ... : ... .. . ... : ... .. . ... : ... .. . ... : ... .. . ...
ROW 1E : ... .. . ... : D#2 05 . ... : ... .. . ... : ... .. . ... : ... .. . ...
ROW 1F : ... .. . ... : ... .. . ... : ... .. . ... : ... .. . ... : ... .. . ...
ROW 20 : G-2 07 . ... : G#1 00 . ... : --- .. . ... : 0-# 0B . ... : ... .. . ...
ROW 21 : ... .. . ... : ... .. . ... : ... .. . ... : ... .. . ... : ... .. . ...
ROW 22 : ... .. . ... : D#2 05 . ... : ... .. . ... : ... .. . ... : ... .. . ...
ROW 23 : ... .. . ... : ... .. . ... : ... .. . ... : ... .. . ... : ... .. . ...
ROW 24 : D#2 07 . ... : D#2 05 . ... : G#1 05 . ... : C-# 0C . ... : ... .. . ...
ROW 25 : ... .. . ... : ... .. . ... : ... .. . ... : ... .. . ... : ... .. . ...
ROW 26 : ... .. . ... : D#2 05 . ... : ... .. . ... : ... .. . ... : ... .. . ...
ROW 27 : ... .. . ... : ... .. . ... : ... .. . ... : ... .. . ... : ... .. . ...
ROW 28 : C-2 07 . ... : G#1 00 . ... : --- .. . ... : 0-# 0B . ... : ... .. . ...
ROW 29 : ... .. . ... : ... .. . ... : ... .. . ... : ... .. . ... : ... .. . ...
ROW 2A : ... .. . ... : D#2 05 . ... : ... .. . ... : ... .. . ... : ... .. . ...
ROW 2B : ... .. . ... : ... .. . ... : ... .. . ... : ... .. . ... : ... .. . ...
ROW 2C : A#1 07 . ... : D#2 05 . ... : G#1 05 . ... : C-# 0C . ... : ... .. . ...
ROW 2D : ... .. . ... : ... .. . ... : ... .. . ... : ... .. . ... : ... .. . ...
ROW 2E : ... .. . ... : D#2 05 . ... : ... .. . ... : ... .. . ... : ... .. . ...
ROW 2F : ... .. . ... : ... .. . ... : ... .. . ... : ... .. . ... : ... .. . ...
ROW 30 : A-1 06 . ... : G#1 00 . ... : --- .. . ... : 0-# 0B . ... : ... .. . ...
ROW 31 : ... .. . ... : ... .. . ... : ... .. . ... : ... .. . ... : ... .. . ...
ROW 32 : A#1 12 . ... : D#2 05 . ... : ... .. . ... : ... .. . ... : ... .. . ...
ROW 33 : ... .. . ... : ... .. . ... : ... .. . ... : ... .. . ... : ... .. . ...
ROW 34 : C-2 12 . ... : D#2 05 . ... : G#1 05 . ... : --- 0C . ... : ... .. . ...
ROW 35 : ... .. . ... : ... .. . ... : ... .. . ... : ... .. . ... : ... .. . ...
ROW 36 : D-2 12 . ... : D#2 05 . ... : ... .. . ... : ... .. . ... : ... .. . ...
ROW 37 : ... .. . ... : ... .. . ... : ... .. . ... : ... .. . ... : ... .. . ...
ROW 38 : D#2 10 . ... : G#1 00 . ... : --- .. . ... : ... .. . ... : ... .. . ...
ROW 39 : ... .. . ... : ... .. . ... : ... .. . ... : ... .. . ... : ... .. . ...
ROW 3A : A#1 10 . ... : D#2 05 . ... : ... .. . ... : ... .. . ... : ... .. . ...
ROW 3B : ... .. . ... : ... .. . ... : ... .. . ... : ... .. . ... : ... .. . ...
ROW 3C : D-2 07 . ... : D#2 05 . ... : G#1 05 . ... : ... .. . ... : ... .. . ...
ROW 3D : ... .. . ... : ... .. . ... : ... .. . ... : ... .. . ... : ... .. . ...
ROW 3E : A#1 12 . ... : D#2 05 . ... : ... .. . ... : ... .. . ... : ... .. . ...
ROW 3F : ... .. . ... : ... .. . ... : ... .. . ... : ... .. . ... : ... .. . ...

PATTERN 04
ROW 00 : D#2 05 . ... : G#1 00 . ... : --- .. . ... : ... .. . ... : ... .. . ...
ROW 01 : ... .. . ... : ... .. . ... : ... .. . ... : ... .. . ... : ... .. . ...
ROW 02 : A#1 12 . ... : D#2 05 . ... : ... .. . ... : ... .. . ... : ... .. . ...
ROW 03 : ... .. . ... : ... .. . ... : ... .. . ... : ... .. . ... : ... .. . ...
ROW 04 : D-2 05 . ... : D#2 05 . ... : G#1 05 . ... : ... .. . ... : ... .. . ...
ROW 05 : ... .. . ... : ... .. . ... : ... .. . ... : ... .. . ... : ... .. . ...
ROW 06 : A#1 12 . ... : D#2 05 . ... : ... .. . ... : ... .. . ... : ... .. . ...
ROW 07 : ... .. . ... : ... .. . ... : ... .. . ... : ... .. . ... : ... .. . ...
ROW 08 : D#2 05 . ... : G#1 00 . ... : --- .. . ... : ... .. . ... : ... .. . ...
ROW 09 : ... .. . ... : ... .. . ... : ... .. . ... : ... .. . ... : ... .. . ...
ROW 0A : D#2 12 . ... : D#2 05 . ... : ... .. . ... : ... .. . ... : ... .. . ...
ROW 0B : ... .. . ... : ... .. . ... : ... .. . ... : ... .. . ... : ... .. . ...
ROW 0C : D#2 05 . ... : D#2 05 . ... : G#1 05 . ... : ... .. . ... : ... .. . ...
ROW 0D : ... .. . ... : ... .. . ... : ... .. . ... : ... .. . ... : ... .. . ...
ROW 0E : D#2 12 . ... : D#2 05 . ... : ... .. . ... : ... .. . ... : ... .. . ...
ROW 0F : ... .. . ... : ... .. . ... : ... .. . ... : ... .. . ... : ... .. . ...
ROW 10 : D#2 05 . ... : G#1 00 . ... : --- .. . ... : ... .. . ... : ... .. . ...
ROW 11 : ... .. . ... : ... .. . ... : ... .. . ... : ... .. . ... : ... .. . ...
ROW 12 : D#2 12 . ... : D#2 05 . ... : ... .. . ... : ... .. . ... : ... .. . ...
ROW 13 : ... .. . ... : ... .. . ... : ... .. . ... : ... .. . ... : ... .. . ...
ROW 14 : D#2 05 . ... : D#2 05 . ... : G#1 05 . ... : ... .. . ... : ... .. . ...
ROW 15 : ... .. . ... : ... .. . ... : ... .. . ... : ... .. . ... : ... .. . ...
ROW 16 : D#2 12 . ... : D#2 05 . ... : ... .. . ... : ... .. . ... : ... .. . ...
ROW 17 : ... .. . D00 : ... .. . ... : ... .. . ... : ... .. . ... : ... .. . ...
ROW 18 : ... .. . ... : G#1 00 . ... : --- .. . ... : ... .. . ... : ... .. . ...
ROW 19 : ... .. . ... : ... .. . ... : ... .. . ... : ... .. . ... : ... .. . ...
ROW 1A : ... .. . ... : D#2 05 . ... : ... .. . ... : ... .. . ... : ... .. . ...
ROW 1B : ... .. . ... : ... .. . ... : ... .. . ... : ... .. . ... : ... .. . ...
ROW 1C : ... .. . ... : D#2 05 . ... : G#1 05 . ... : ... .. . ... : ... .. . ...
ROW 1D : ... .. . ... : ... .. . ... : ... .. . ... : ... .. . ... : ... .. . ...
ROW 1E : ... .. . ... : D#2 05 . ... : ... .. . ... : ... .. . ... : ... .. . ...
ROW 1F : ... .. . ... : ... .. . ... : ... .. . ... : ... .. . ... : ... .. . ...
ROW 20 : ... .. . ... : G#1 00 . ... : --- .. . ... : ... .. . ... : ... .. . ...
ROW 21 : ... .. . ... : ... .. . ... : ... .. . ... : ... .. . ... : ... .. . ...
ROW 22 : ... .. . ... : D#2 05 . ... : ... .. . ... : ... .. . ... : ... .. . ...
ROW 23 : ... .. . ... : ... .. . ... : ... .. . ... : ... .. . ... : ... .. . ...
ROW 24 : ... .. . ... : D#2 05 . ... : G#1 05 . ... : ... .. . ... : ... .. . ...
ROW 25 : ... .. . ... : ... .. . ... : ... .. . ... : ... .. . ... : ... .. . ...
ROW 26 : ... .. . ... : D#2 05 . ... : ... .. . ... : ... .. . ... : ... .. . ...
ROW 27 : ... .. . ... : ... .. . ... : ... .. . ... : ... .. . ... : ... .. . ...
ROW 28 : ... .. . ... : G#1 00 . ... : --- .. . ... : ... .. . ... : ... .. . ...
ROW 29 : ... .. . ... : ... .. . ... : ... .. . ... : ... .. . ... : ... .. . ...
ROW 2A : ... .. . ... : D#2 05 . ... : ... .. . ... : ... .. . ... : ... .. . ...
ROW 2B : ... .. . ... : ... .. . ... : ... .. . ... : ... .. . ... : ... .. . ...
ROW 2C : ... .. . ... : D#2 05 . ... : G#1 05 . ... : ... .. . ... : ... .. . ...
ROW 2D : ... .. . ... : ... .. . ... : ... .. . ... : ... .. . ... : ... .. . ...
ROW 2E : ... .. . ... : D#2 05 . ... : ... .. . ... : ... .. . ... : ... .. . ...
ROW 2F : ... .. . ... : ... .. . ... : ... .. . ... : ... .. . ... : ... .. . ...
ROW 30 : ... .. . ... : G#1 00 . ... : --- .. . ... : ... .. . ... : ... .. . ...
ROW 31 : ... .. . ... : ... .. . ... : ... .. . ... : ... .. . ... : ... .. . ...
ROW 32 : ... .. . ... : ... .. . ... : ... .. . ... : ... .. . ... : ... .. . ...
ROW 33 : ... .. . ... : ... .. . ... : ... .. . ... : ... .. . ... : ... .. . ...
ROW 34 : ... .. . ... : D#1 05 . ... : ... .. . ... : ... .. . ... : ... .. . ...
ROW 35 : ... .. . ... : ... .. . ... : ... .. . ... : ... .. . ... : ... .. . ...
ROW 36 : ... .. . ... : ... .. . ... : ... .. . ... : ... .. . ... : ... .. . ...
ROW 37 : ... .. . ... : ... .. . ... : ... .. . ... : ... .. . ... : ... .. . ...
ROW 38 : ... .. . ... : G#1 05 . ... : ... .. . ... : ... .. . ... : ... .. . ...
ROW 39 : ... .. . ... : ... .. . ... : ... .. . ... : ... .. . ... : ... .. . ...
ROW 3A : ... .. . ... : ... .. . ... : ... .. . ... : ... .. . ... : ... .. . ...
ROW 3B : ... .. . ... : ... .. . ... : ... .. . ... : ... .. . ... : ... .. . ...
ROW 3C : ... .. . ... : D#1 05 . ... : ... .. . ... : ... .. . ... : ... .. . ...
ROW 3D : ... .. . ... : ... .. . ... : ... .. . ... : ... .. . ... : ... .. . ...
ROW 3E : ... .. . ... : ... .. . ... : ... .. . ... : ... .. . ... : ... .. . ...
ROW 3F : ... .. . ... : ... .. . ... : ... .. . ... : ... .. . ... : ... .. . ...

PATTERN 05
ROW 00 : G#2 07 . ... : ... .. . ... : ... .. . ... : ... .. . ... : ... .. . ...
ROW 01 : ... .. . ... : ... .. . ... : ... .. . ... : ... .. . ... : ... .. . ...
ROW 02 : ... .. . ... : ... .. . ... : ... .. . ... : ... .. . ... : ... .. . ...
ROW 03 : ... .. . ... : ... .. . ... : ... .. . ... : ... .. . ... : ... .. . ...
ROW 04 : ... .. . ... : ... .. . ... : ... .. . ... : ... .. . ... : ... .. . ...
ROW 05 : ... .. . ... : ... .. . ... : ... .. . ... : ... .. . ... : ... .. . ...
ROW 06 : ... .. . ... : ... .. . ... : ... .. . ... : ... .. . ... : ... .. . ...
ROW 07 : ... .. . ... : ... .. . ... : ... .. . ... : ... .. . ... : ... .. . ...
ROW 08 : A#2 10 . ... : ... .. . ... : ... .. . ... : ... .. . ... : ... .. . ...
ROW 09 : ... .. . ... : ... .. . ... : ... .. . ... : ... .. . ... : ... .. . ...
ROW 0A : C#3 06 . ... : ... .. . ... : ... .. . ... : ... .. . ... : ... .. . ...
ROW 0B : ... .. . ... : ... .. . ... : ... .. . ... : ... .. . ... : ... .. . ...
ROW 0C : C-3 10 . ... : ... .. . ... : ... .. . ... : ... .. . ... : ... .. . ...
ROW 0D : ... .. . ... : ... .. . ... : ... .. . ... : ... .. . ... : ... .. . ...
ROW 0E : A#2 06 . ... : ... .. . ... : ... .. . ... : ... .. . ... : ... .. . ...
ROW 0F : ... .. . ... : ... .. . ... : ... .. . ... : ... .. . ... : ... .. . ...
ROW 10 : D#3 07 . ... : ... .. . ... : ... .. . ... : ... .. . ... : ... .. . ...
ROW 11 : ... .. . ... : ... .. . ... : ... .. . ... : ... .. . ... : ... .. . ...
ROW 12 : ... .. . ... : ... .. . ... : ... .. . ... : ... .. . ... : ... .. . ...
ROW 13 : ... .. . ... : ... .. . ... : ... .. . ... : ... .. . ... : ... .. . ...
ROW 14 : D#3 07 . ... : ... .. . ... : ... .. . ... : ... .. . ... : ... .. . ...
ROW 15 : ... .. . ... : ... .. . ... : ... .. . ... : ... .. . ... : ... .. . ...
ROW 16 : ... .. . ... : ... .. . ... : ... .. . ... : ... .. . ... : ... .. . ...
ROW 17 : ... .. . ... : ... .. . ... : ... .. . ... : ... .. . ... : ... .. . ...
ROW 18 : D#3 10 . ... : ... .. . ... : ... .. . ... : ... .. . ... : ... .. . ...
ROW 19 : ... .. . ... : ... .. . ... : ... .. . ... : ... .. . ... : ... .. . ...
ROW 1A : F-3 06 . ... : ... .. . ... : ... .. . ... : ... .. . ... : ... .. . ...
ROW 1B : ... .. . ... : ... .. . ... : ... .. . ... : ... .. . ... : ... .. . ...
ROW 1C : C-3 10 . ... : ... .. . ... : ... .. . ... : ... .. . ... : ... .. . ...
ROW 1D : ... .. . ... : ... .. . ... : ... .. . ... : ... .. . ... : ... .. . ...
ROW 1E : C#3 06 . ... : ... .. . ... : ... .. . ... : ... .. . ... : ... .. . ...
ROW 1F : ... .. . ... : ... .. . ... : ... .. . ... : ... .. . ... : ... .. . ...
ROW 20 : A#2 07 . ... : ... .. . ... : ... .. . ... : ... .. . ... : ... .. . ...
ROW 21 : ... .. . ... : ... .. . ... : ... .. . ... : ... .. . ... : ... .. . ...
ROW 22 : ... .. . ... : ... .. . ... : ... .. . ... : ... .. . ... : ... .. . ...
ROW 23 : ... .. . ... : ... .. . ... : ... .. . ... : ... .. . ... : ... .. . ...
ROW 24 : A#2 07 . ... : ... .. . ... : ... .. . ... : ... .. . ... : ... .. . ...
ROW 25 : ... .. . ... : ... .. . ... : ... .. . ... : ... .. . ... : ... .. . ...
ROW 26 : ... .. . ... : ... .. . ... : ... .. . ... : ... .. . ... : ... .. . ...
ROW 27 : ... .. . ... : ... .. . ... : ... .. . ... : ... .. . ... : ... .. . ...
ROW 28 : A#2 10 . ... : ... .. . ... : ... .. . ... : ... .. . ... : ... .. . ...
ROW 29 : ... .. . ... : ... .. . ... : ... .. . ... : ... .. . ... : ... .. . ...
ROW 2A : C#3 06 . ... : ... .. . ... : ... .. . ... : ... .. . ... : ... .. . ...
ROW 2B : ... .. . ... : ... .. . ... : ... .. . ... : ... .. . ... : ... .. . ...
ROW 2C : C-3 10 . ... : ... .. . ... : ... .. . ... : ... .. . ... : ... .. . ...
ROW 2D : ... .. . ... : ... .. . ... : ... .. . ... : ... .. . ... : ... .. . ...
ROW 2E : A#2 06 . ... : ... .. . ... : ... .. . ... : ... .. . ... : ... .. . ...
ROW 2F : ... .. . ... : ... .. . ... : ... .. . ... : ... .. . ... : ... .. . ...
ROW 30 : G#2 07 . ... : ... .. . ... : ... .. . ... : ... .. . ... : ... .. . ...
ROW 31 : ... .. . ... : ... .. . ... : ... .. . ... : ... .. . ... : ... .. . ...
ROW 32 : G#3 06 . ... : ... .. . ... : ... .. . ... : ... .. . ... : ... .. . ...
ROW 33 : ... .. . ... : ... .. . ... : ... .. . ... : ... .. . ... : ... .. . ...
ROW 34 : G-3 06 . ... : ... .. . ... : ... .. . ... : ... .. . ... : ... .. . ...
ROW 35 : ... .. . ... : ... .. . ... : ... .. . ... : ... .. . ... : ... .. . ...
ROW 36 : F-3 06 . ... : ... .. . ... : ... .. . ... : ... .. . ... : ... .. . ...
ROW 37 : ... .. . ... : ... .. . ... : ... .. . ... : ... .. . ... : ... .. . ...
ROW 38 : D#3 06 . ... : ... .. . ... : ... .. . ... : ... .. . ... : ... .. . ...
ROW 39 : ... .. . ... : ... .. . ... : ... .. . ... : ... .. . ... : ... .. . ...
ROW 3A : C#3 10 . ... : ... .. . ... : ... .. . ... : ... .. . ... : ... .. . ...
ROW 3B : ... .. . ... : ... .. . ... : ... .. . ... : ... .. . ... : ... .. . ...
ROW 3C : C-3 10 . ... : ... .. . ... : ... .. . ... : ... .. . ... : ... .. . ...
ROW 3D : ... .. . ... : ... .. . ... : ... .. . ... : ... .. . ... : ... .. . ...
ROW 3E : A#2 10 . ... : ... .. . ... : ... .. . ... : ... .. . ... : ... .. . ...
ROW 3F : ... .. . ... : ... .. . ... : ... .. . ... : ... .. . ... : ... .. . ...

PATTERN 06
ROW 00 : G#2 07 . ... : ... .. . ... : ... .. . ... : ... .. . ... : ... .. . ...
ROW 01 : ... .. . ... : ... .. . ... : ... .. . ... : ... .. . ... : ... .. . ...
ROW 02 : ... .. . ... : ... .. . ... : ... .. . ... : ... .. . ... : ... .. . ...
ROW 03 : ... .. . ... : ... .. . ... : ... .. . ... : ... .. . ... : ... .. . ...
ROW 04 : ... .. . ... : ... .. . ... : ... .. . ... : ... .. . ... : ... .. . ...
ROW 05 : ... .. . ... : ... .. . ... : ... .. . ... : ... .. . ... : ... .. . ...
ROW 06 : ... .. . ... : ... .. . ... : ... .. . ... : ... .. . ... : ... .. . ...
ROW 07 : ... .. . ... : ... .. . ... : ... .. . ... : ... .. . ... : ... .. . ...
ROW 08 : A#2 10 . ... : ... .. . ... : ... .. . ... : ... .. . ... : ... .. . ...
ROW 09 : ... .. . ... : ... .. . ... : ... .. . ... : ... .. . ... : ... .. . ...
ROW 0A : C#3 06 . ... : ... .. . ... : ... .. . ... : ... .. . ... : ... .. . ...
ROW 0B : ... .. . ... : ... .. . ... : ... .. . ... : ... .. . ... : ... .. . ...
ROW 0C : C-3 10 . ... : ... .. . ... : ... .. . ... : ... .. . ... : ... .. . ...
ROW 0D : ... .. . ... : ... .. . ... : ... .. . ... : ... .. . ... : ... .. . ...
ROW 0E : A#2 06 . ... : ... .. . ... : ... .. . ... : ... .. . ... : ... .. . ...
ROW 0F : ... .. . ... : ... .. . ... : ... .. . ... : ... .. . ... : ... .. . ...
ROW 10 : D#3 07 . ... : ... .. . ... : ... .. . ... : ... .. . ... : ... .. . ...
ROW 11 : ... .. . ... : ... .. . ... : ... .. . ... : ... .. . ... : ... .. . ...
ROW 12 : ... .. . ... : ... .. . ... : ... .. . ... : ... .. . ... : ... .. . ...
ROW 13 : ... .. . ... : ... .. . ... : ... .. . ... : ... .. . ... : ... .. . ...
ROW 14 : D#3 07 . ... : ... .. . ... : ... .. . ... : ... .. . ... : ... .. . ...
ROW 15 : ... .. . ... : ... .. . ... : ... .. . ... : ... .. . ... : ... .. . ...
ROW 16 : ... .. . ... : ... .. . ... : ... .. . ... : ... .. . ... : ... .. . ...
ROW 17 : ... .. . ... : ... .. . ... : ... .. . ... : ... .. . ... : ... .. . ...
ROW 18 : D#3 10 . ... : ... .. . ... : ... .. . ... : ... .. . ... : ... .. . ...
ROW 19 : ... .. . ... : ... .. . ... : ... .. . ... : ... .. . ... : ... .. . ...
ROW 1A : F-3 06 . ... : ... .. . ... : ... .. . ... : ... .. . ... : ... .. . ...
ROW 1B : ... .. . ... : ... .. . ... : ... .. . ... : ... .. . ... : ... .. . ...
ROW 1C : C-3 10 . ... : ... .. . ... : ... .. . ... : ... .. . ... : ... .. . ...
ROW 1D : ... .. . ... : ... .. . ... : ... .. . ... : ... .. . ... : ... .. . ...
ROW 1E : C#3 06 . ... : ... .. . ... : ... .. . ... : ... .. . ... : ... .. . ...
ROW 1F : ... .. . ... : ... .. . ... : ... .. . ... : ... .. . ... : ... .. . ...
ROW 20 : A#2 07 . ... : ... .. . ... : ... .. . ... : ... .. . ... : ... .. . ...
ROW 21 : ... .. . ... : ... .. . ... : ... .. . ... : ... .. . ... : ... .. . ...
ROW 22 : ... .. . ... : ... .. . ... : ... .. . ... : ... .. . ... : ... .. . ...
ROW 23 : ... .. . ... : ... .. . ... : ... .. . ... : ... .. . ... : ... .. . ...
ROW 24 : A#2 07 . ... : ... .. . ... : ... .. . ... : ... .. . ... : ... .. . ...
ROW 25 : ... .. . ... : ... .. . ... : ... .. . ... : ... .. . ... : ... .. . ...
ROW 26 : ... .. . ... : ... .. . ... : ... .. . ... : ... .. . ... : ... .. . ...
ROW 27 : ... .. . ... : ... .. . ... : ... .. . ... : ... .. . ... : ... .. . ...
ROW 28 : A#2 10 . ... : ... .. . ... : ... .. . ... : ... .. . ... : ... .. . ...
ROW 29 : ... .. . ... : ... .. . ... : ... .. . ... : ... .. . ... : ... .. . ...
ROW 2A : C#3 06 . ... : ... .. . ... : ... .. . ... : ... .. . ... : ... .. . ...
ROW 2B : ... .. . ... : ... .. . ... : ... .. . ... : ... .. . ... : ... .. . ...
ROW 2C : C-3 10 . ... : ... .. . ... : ... .. . ... : ... .. . ... : ... .. . ...
ROW 2D : ... .. . ... : ... .. . ... : ... .. . ... : ... .. . ... : ... .. . ...
ROW 2E : A#2 06 . ... : ... .. . ... : ... .. . ... : ... .. . ... : ... .. . ...
ROW 2F : ... .. . ... : ... .. . ... : ... .. . ... : ... .. . ... : ... .. . ...
ROW 30 : G#2 07 . ... : ... .. . ... : ... .. . ... : ... .. . ... : ... .. . ...
ROW 31 : ... .. . ... : ... .. . ... : ... .. . ... : ... .. . ... : ... .. . ...
ROW 32 : --- 06 . ... : ... .. . ... : ... .. . ... : ... .. . ... : ... .. . ...
ROW 33 : ... .. . ... : ... .. . ... : ... .. . ... : ... .. . ... : ... .. . ...
ROW 34 : D#2 06 . ... : ... .. . ... : ... .. . ... : ... .. . ... : ... .. . ...
ROW 35 : ... .. . ... : ... .. . ... : ... .. . ... : ... .. . ... : ... .. . ...
ROW 36 : ... .. . ... : ... .. . ... : ... .. . ... : ... .. . ... : ... .. . ...
ROW 37 : ... .. . ... : ... .. . ... : ... .. . ... : ... .. . ... : ... .. . ...
ROW 38 : G#2 06 . ... : ... .. . ... : ... .. . ... : ... .. . ... : ... .. . ...
ROW 39 : ... .. . ... : ... .. . ... : ... .. . ... : ... .. . ... : ... .. . ...
ROW 3A : D#2 10 . ... : ... .. . ... : ... .. . ... : ... .. . ... : ... .. . ...
ROW 3B : ... .. . ... : ... .. . ... : ... .. . ... : ... .. . ... : ... .. . ...
ROW 3C : D#2 10 . ... : ... .. . ... : ... .. . ... : ... .. . ... : ... .. . ...
ROW 3D : ... .. . ... : ... .. . ... : ... .. . ... : ... .. . ... : ... .. . ...
ROW 3E : D#2 10 . ... : ... .. . ... : ... .. . ... : ... .. . ... : ... .. . ...
ROW 3F : ... .. . ... : ... .. . ... : ... .. . ... : ... .. . ... : ... .. . ...

TRACK  64   8 150 "Mountain King"
COLUMNS : 1 1 1 1 1

ORDER 00 : 00 00 00 00 00
ORDER 01 : 00 00 00 00 00
ORDER 02 : 01 01 03 00 00
ORDER 03 : 01 01 03 00 00
ORDER 04 : 00 02 00 00 00
ORDER 05 : 00 02 00 00 00
ORDER 06 : 01 04 03 00 00
ORDER 07 : 01 04 03 00 00
ORDER 08 : 00 05 00 00 00
ORDER 09 : 00 05 00 00 00
ORDER 0A : 01 06 01 00 00
ORDER 0B : 01 06 01 00 00
ORDER 0C : 00 07 02 00 00
ORDER 0D : 03 07 02 00 00

PATTERN 00
ROW 00 : C-1 06 . ... : C-2 13 . F08 : ... .. . ... : 0-# 0B . ... : ... .. . ...
ROW 01 : ... .. . ... : ... .. . ... : ... .. . ... : ... .. . ... : ... .. . ...
ROW 02 : ... .. . ... : D-2 13 . ... : ... .. . ... : ... .. . ... : ... .. . ...
ROW 03 : ... .. . ... : ... .. . ... : ... .. . ... : ... .. . ... : ... .. . ...
ROW 04 : G-1 06 . ... : D#2 12 . ... : ... .. . ... : B-# 09 . ... : ... .. . ...
ROW 05 : ... .. . ... : ... .. . ... : ... .. . ... : ... .. . ... : ... .. . ...
ROW 06 : ... .. . ... : F-2 12 . ... : ... .. . ... : ... .. . ... : ... .. . ...
ROW 07 : ... .. . ... : ... .. . ... : ... .. . ... : ... .. . ... : ... .. . ...
ROW 08 : C-1 06 . ... : G-2 05 . ... : ... .. . ... : 0-# 0B . ... : ... .. . ...
ROW 09 : ... .. . ... : ... .. . ... : ... .. . ... : ... .. . ... : ... .. . ...
ROW 0A : ... .. . ... : D#2 05 . ... : ... .. . ... : ... .. . ... : ... .. . ...
ROW 0B : ... .. . ... : ... .. . ... : ... .. . ... : ... .. . ... : ... .. . ...
ROW 0C : G-1 06 . ... : G-2 05 . ... : G-3 02 . ... : B-# 09 . ... : ... .. . ...
ROW 0D : ... .. . ... : ... .. . ... : ... .. . ... : ... .. . ... : ... .. . ...
ROW 0E : ... .. . ... : ... .. . ... : ... .. . ... : ... .. . ... : ... .. . ...
ROW 0F : ... .. . ... : ... .. . ... : ... .. . ... : ... .. . ... : ... .. . ...
ROW 10 : C-1 06 . ... : F#2 12 . ... : ... .. . ... : 0-# 0B . ... : ... .. . ...
ROW 11 : ... .. . ... : ... .. . ... : ... .. . ... : ... .. . ... : ... .. . ...
ROW 12 : ... .. . ... : D-2 12 . ... : ... .. . ... : ... .. . ... : ... .. . ...
ROW 13 : ... .. . ... : ... .. . ... : ... .. . ... : ... .. . ... : ... .. . ...
ROW 14 : G-1 06 . ... : F#2 12 . ... : F#3 02 . ... : B-# 09 . ... : ... .. . ...
ROW 15 : ... .. . ... : ... .. . ... : ... .. . ... : ... .. . ... : ... .. . ...
ROW 16 : ... .. . ... : ... .. . ... : ... .. . ... : ... .. . ... : ... .. . ...
ROW 17 : ... .. . ... : ... .. . ... : ... .. . ... : ... .. . ... : ... .. . ...
ROW 18 : C-1 06 . ... : F-2 13 . ... : ... .. . ... : 0-# 0B . ... : ... .. . ...
ROW 19 : ... .. . ... : ... .. . ... : ... .. . ... : ... .. . ... : ... .. . ...
ROW 1A : ... .. . ... : C#2 13 . ... : ... .. . ... : ... .. . ... : ... .. . ...
ROW 1B : ... .. . ... : ... .. . ... : ... .. . ... : ... .. . ... : ... .. . ...
ROW 1C : G-1 06 . ... : F-2 13 . ... : G-3 02 . ... : B-# 09 . ... : ... .. . ...
ROW 1D : ... .. . ... : ... .. . ... : ... .. . ... : ... .. . ... : ... .. . ...
ROW 1E : ... .. . ... : ... .. . ... : ... .. . ... : ... .. . ... : ... .. . ...
ROW 1F : ... .. . ... : ... .. . ... : ... .. . ... : ... .. . ... : ... .. . ...
ROW 20 : C-1 06 . ... : C-2 13 . ... : ... .. . ... : 0-# 0B . ... : ... .. . ...
ROW 21 : ... .. . ... : ... .. . ... : ... .. . ... : ... .. . ... : ... .. . ...
ROW 22 : ... .. . ... : D-2 13 . ... : ... .. . ... : ... .. . ... : ... .. . ...
ROW 23 : ... .. . ... : ... .. . ... : ... .. . ... : ... .. . ... : ... .. . ...
ROW 24 : G-1 06 . ... : D#2 12 . ... : ... .. . ... : B-# 09 . ... : ... .. . ...
ROW 25 : ... .. . ... : ... .. . ... : ... .. . ... : ... .. . ... : ... .. . ...
ROW 26 : ... .. . ... : F-2 12 . ... : ... .. . ... : ... .. . ... : ... .. . ...
ROW 27 : ... .. . ... : ... .. . ... : ... .. . ... : ... .. . ... : ... .. . ...
ROW 28 : C-1 06 . ... : G-2 05 . ... : ... .. . ... : 0-# 0B . ... : ... .. . ...
ROW 29 : ... .. . ... : ... .. . ... : ... .. . ... : ... .. . ... : ... .. . ...
ROW 2A : ... .. . ... : D#2 05 . ... : ... .. . ... : ... .. . ... : ... .. . ...
ROW 2B : ... .. . ... : ... .. . ... : ... .. . ... : ... .. . ... : ... .. . ...
ROW 2C : G-1 06 . ... : G-2 05 . ... : G-3 02 . ... : B-# 09 . ... : ... .. . ...
ROW 2D : ... .. . ... : ... .. . ... : ... .. . ... : ... .. . ... : ... .. . ...
ROW 2E : ... .. . ... : C-3 05 . ... : ... .. . ... : ... .. . ... : ... .. . ...
ROW 2F : ... .. . ... : ... .. . ... : ... .. . ... : ... .. . ... : ... .. . ...
ROW 30 : D#1 06 . ... : A#2 05 . ... : A#3 02 . ... : 0-# 0B . ... : ... .. . ...
ROW 31 : ... .. . ... : ... .. . ... : ... .. . ... : ... .. . ... : ... .. . ...
ROW 32 : ... .. . ... : G-2 05 . ... : ... .. . ... : ... .. . ... : ... .. . ...
ROW 33 : ... .. . ... : ... .. . ... : ... .. . ... : ... .. . ... : ... .. . ...
ROW 34 : A#1 06 . ... : D#2 05 . ... : D#3 02 . ... : B-# 09 . ... : ... .. . ...
ROW 35 : ... .. . ... : ... .. . ... : ... .. . ... : ... .. . ... : ... .. . ...
ROW 36 : ... .. . ... : G-2 05 . ... : ... .. . ... : ... .. . ... : ... .. . ...
ROW 37 : ... .. . ... : ... .. . ... : ... .. . ... : ... .. . ... : ... .. . ...
ROW 38 : D#1 06 . ... : A#2 05 . ... : A#3 02 . ... : 0-# 0B . ... : ... .. . ...
ROW 39 : ... .. . ... : ... .. . ... : ... .. . ... : ... .. . ... : ... .. . ...
ROW 3A : ... .. . ... : ... .. . ... : ... .. . ... : ... .. . ... : ... .. . ...
ROW 3B : ... .. . ... : ... .. . ... : ... .. . ... : ... .. . ... : ... .. . ...
ROW 3C : A#1 06 . ... : ... .. . ... : ... .. . ... : B-# 09 . ... : ... .. . ...
ROW 3D : ... .. . ... : ... .. . ... : ... .. . ... : ... .. . ... : ... .. . ...
ROW 3E : ... .. . ... : ... .. . ... : ... .. . ... : ... .. . ... : ... .. . ...
ROW 3F : ... .. . ... : ... .. . ... : ... .. . ... : ... .. . ... : ... .. . ...

PATTERN 01
ROW 00 : G-1 06 . ... : G-2 13 . F08 : ... .. . ... : ... .. . ... : ... .. . ...
ROW 01 : ... .. . ... : ... .. . ... : ... .. . ... : ... .. . ... : ... .. . ...
ROW 02 : ... .. . ... : A-2 13 . ... : ... .. . ... : ... .. . ... : ... .. . ...
ROW 03 : ... .. . ... : ... .. . ... : ... .. . ... : ... .. . ... : ... .. . ...
ROW 04 : D-2 06 . ... : B-2 12 . ... : ... .. . ... : ... .. . ... : ... .. . ...
ROW 05 : ... .. . ... : ... .. . ... : ... .. . ... : ... .. . ... : ... .. . ...
ROW 06 : ... .. . ... : C-3 12 . ... : ... .. . ... : ... .. . ... : ... .. . ...
ROW 07 : ... .. . ... : ... .. . ... : ... .. . ... : ... .. . ... : ... .. . ...
ROW 08 : G-1 06 . ... : D-3 05 . ... : ... .. . ... : ... .. . ... : ... .. . ...
ROW 09 : ... .. . ... : ... .. . ... : ... .. . ... : ... .. . ... : ... .. . ...
ROW 0A : ... .. . ... : B-2 05 . ... : ... .. . ... : ... .. . ... : ... .. . ...
ROW 0B : ... .. . ... : ... .. . ... : ... .. . ... : ... .. . ... : ... .. . ...
ROW 0C : D-2 06 . ... : D-3 05 . ... : D-4 0D . ... : ... .. . ... : ... .. . ...
ROW 0D : ... .. . ... : ... .. . ... : ... .. . ... : ... .. . ... : ... .. . ...
ROW 0E : ... .. . ... : ... .. . ... : ... .. . ... : ... .. . ... : ... .. . ...
ROW 0F : ... .. . ... : ... .. . ... : ... .. . ... : ... .. . ... : ... .. . ...
ROW 10 : D#1 06 . ... : D#3 12 . ... : ... .. . ... : ... .. . ... : ... .. . ...
ROW 11 : ... .. . ... : ... .. . ... : ... .. . ... : ... .. . ... : ... .. . ...
ROW 12 : ... .. . ... : B-2 12 . ... : ... .. . ... : ... .. . ... : ... .. . ...
ROW 13 : ... .. . ... : ... .. . ... : ... .. . ... : ... .. . ... : ... .. . ...
ROW 14 : B-1 06 . ... : D#3 12 . ... : D#4 0D . ... : ... .. . ... : ... .. . ...
ROW 15 : ... .. . ... : ... .. . ... : ... .. . ... : ... .. . ... : ... .. . ...
ROW 16 : ... .. . ... : ... .. . ... : ... .. . ... : ... .. . ... : ... .. . ...
ROW 17 : ... .. . ... : ... .. . ... : ... .. . ... : ... .. . ... : ... .. . ...
ROW 18 : G-1 06 . ... : D-3 13 . ... : ... .. . ... : ... .. . ... : ... .. . ...
ROW 19 : ... .. . ... : ... .. . ... : ... .. . ... : ... .. . ... : ... .. . ...
ROW 1A : ... .. . ... : B-2 13 . ... : ... .. . ... : ... .. . ... : ... .. . ...
ROW 1B : ... .. . ... : ... .. . ... : ... .. . ... : ... .. . ... : ... .. . ...
ROW 1C : B-1 06 . ... : D-3 13 . ... : D-4 0D . ... : ... .. . ... : ... .. . ...
ROW 1D : ... .. . ... : ... .. . ... : ... .. . ... : ... .. . ... : ... .. . ...
ROW 1E : ... .. . ... : ... .. . ... : ... .. . ... : ... .. . ... : ... .. . ...
ROW 1F : ... .. . ... : ... .. . ... : ... .. . ... : ... .. . ... : ... .. . ...
ROW 20 : G-1 06 . ... : G-2 13 . ... : ... .. . ... : ... .. . ... : ... .. . ...
ROW 21 : ... .. . ... : ... .. . ... : ... .. . ... : ... .. . ... : ... .. . ...
ROW 22 : ... .. . ... : A-2 13 . ... : ... .. . ... : ... .. . ... : ... .. . ...
ROW 23 : ... .. . ... : ... .. . ... : ... .. . ... : ... .. . ... : ... .. . ...
ROW 24 : D-2 06 . ... : B-2 12 . ... : ... .. . ... : ... .. . ... : ... .. . ...
ROW 25 : ... .. . ... : ... .. . ... : ... .. . ... : ... .. . ... : ... .. . ...
ROW 26 : ... .. . ... : C-3 12 . ... : ... .. . ... : ... .. . ... : ... .. . ...
ROW 27 : ... .. . ... : ... .. . ... : ... .. . ... : ... .. . ... : ... .. . ...
ROW 28 : G-1 06 . ... : D-3 05 . ... : ... .. . ... : ... .. . ... : ... .. . ...
ROW 29 : ... .. . ... : ... .. . ... : ... .. . ... : ... .. . ... : ... .. . ...
ROW 2A : ... .. . ... : B-2 05 . ... : ... .. . ... : ... .. . ... : ... .. . ...
ROW 2B : ... .. . ... : ... .. . ... : ... .. . ... : ... .. . ... : ... .. . ...
ROW 2C : D-2 06 . ... : D-3 05 . ... : D-4 0D . ... : ... .. . ... : ... .. . ...
ROW 2D : ... .. . ... : ... .. . ... : ... .. . ... : ... .. . ... : ... .. . ...
ROW 2E : ... .. . ... : ... .. . ... : ... .. . ... : ... .. . ... : ... .. . ...
ROW 2F : ... .. . ... : ... .. . ... : ... .. . ... : ... .. . ... : ... .. . ...
ROW 30 : D#1 06 . ... : D#3 05 . ... : ... .. . ... : ... .. . ... : ... .. . ...
ROW 31 : ... .. . ... : ... .. . ... : ... .. . ... : ... .. . ... : ... .. . ...
ROW 32 : ... .. . ... : B-2 05 . ... : ... .. . ... : ... .. . ... : ... .. . ...
ROW 33 : ... .. . ... : ... .. . ... : ... .. . ... : ... .. . ... : ... .. . ...
ROW 34 : B-1 06 . ... : D#3 05 . ... : D#4 0D . ... : ... .. . ... : ... .. . ...
ROW 35 : ... .. . ... : ... .. . ... : ... .. . ... : ... .. . ... : ... .. . ...
ROW 36 : ... .. . ... : ... .. . ... : ... .. . ... : ... .. . ... : ... .. . ...
ROW 37 : ... .. . ... : ... .. . ... : ... .. . ... : ... .. . ... : ... .. . ...
ROW 38 : G-1 06 . ... : D-3 05 . ... : D-4 0D . ... : ... .. . ... : ... .. . ...
ROW 39 : ... .. . ... : ... .. . ... : ... .. . ... : ... .. . ... : ... .. . ...
ROW 3A : ... .. . ... : ... .. . ... : ... .. . ... : ... .. . ... : ... .. . ...
ROW 3B : ... .. . ... : ... .. . ... : ... .. . ... : ... .. . ... : ... .. . ...
ROW 3C : B-1 06 . ... : ... .. . ... : ... .. . ... : ... .. . ... : ... .. . ...
ROW 3D : ... .. . ... : ... .. . ... : ... .. . ... : ... .. . ... : ... .. . ...
ROW 3E : ... .. . ... : ... .. . ... : ... .. . ... : ... .. . ... : ... .. . ...
ROW 3F : ... .. . ... : ... .. . ... : ... .. . ... : ... .. . ... : ... .. . ...

PATTERN 02
ROW 00 : B-1 06 . ... : C-3 13 . F07 : ... .. . ... : ... .. . ... : ... .. . ...
ROW 01 : ... .. . ... : ... .. . ... : ... .. . ... : ... .. . ... : ... .. . ...
ROW 02 : --- .. . ... : D-3 13 . ... : ... .. . ... : ... .. . ... : ... .. . ...
ROW 03 : ... .. . ... : ... .. . ... : ... .. . ... : ... .. . ... : ... .. . ...
ROW 04 : D-2 0D . ... : D#3 12 . ... : ... .. . ... : ... .. . ... : ... .. . ...
ROW 05 : ... .. . ... : ... .. . ... : ... .. . ... : ... .. . ... : ... .. . ...
ROW 06 : --- .. . ... : F-3 12 . ... : ... .. . ... : ... .. . ... : ... .. . ...
ROW 07 : ... .. . ... : ... .. . ... : ... .. . ... : ... .. . ... : ... .. . ...
ROW 08 : ... .. . ... : G-3 05 . ... : ... .. . ... : ... .. . ... : ... .. . ...
ROW 09 : ... .. . ... : ... .. . ... : ... .. . ... : ... .. . ... : ... .. . ...
ROW 0A : ... .. . ... : D#3 05 . ... : ... .. . ... : ... .. . ... : ... .. . ...
ROW 0B : ... .. . ... : ... .. . ... : ... .. . ... : ... .. . ... : ... .. . ...
ROW 0C : ... .. . ... : G-3 05 . ... : G-3 0D . ... : ... .. . ... : ... .. . ...
ROW 0D : B-1 08 . ... : ... .. . ... : ... .. . ... : ... .. . ... : ... .. . ...
ROW 0E : ... .. . ... : ... .. . ... : ... .. . ... : ... .. . ... : ... .. . ...
ROW 0F : ... .. . ... : ... .. . ... : ... .. . ... : ... .. . ... : ... .. . ...
ROW 10 : ... .. . ... : F#3 12 . ... : ... .. . ... : ... .. . ... : ... .. . ...
ROW 11 : D-2 0D . ... : ... .. . ... : ... .. . ... : ... .. . ... : ... .. . ...
ROW 12 : ... .. . ... : D-3 12 . ... : ... .. . ... : ... .. . ... : ... .. . ...
ROW 13 : --- .. . ... : ... .. . ... : ... .. . ... : ... .. . ... : ... .. . ...
ROW 14 : ... .. . ... : F#3 12 . ... : F#3 0D . ... : ... .. . ... : ... .. . ...
ROW 15 : ... .. . ... : ... .. . ... : ... .. . ... : ... .. . ... : ... .. . ...
ROW 16 : ... .. . ... : ... .. . ... : ... .. . ... : ... .. . ... : ... .. . ...
ROW 17 : ... .. . ... : ... .. . ... : ... .. . ... : ... .. . ... : ... .. . ...
ROW 18 : ... .. . ... : F-3 13 . ... : ... .. . ... : ... .. . ... : ... .. . ...
ROW 19 : ... .. . ... : ... .. . ... : ... .. . ... : ... .. . ... : ... .. . ...
ROW 1A : ... .. . ... : C#3 13 . ... : ... .. . ... : ... .. . ... : ... .. . ...
ROW 1B : ... .. . ... : ... .. . ... : ... .. . ... : ... .. . ... : ... .. . ...
ROW 1C : ... .. . ... : F-3 13 . ... : G-3 0D . ... : ... .. . ... : ... .. . ...
ROW 1D : ... .. . ... : ... .. . ... : ... .. . ... : ... .. . ... : ... .. . ...
ROW 1E : ... .. . ... : ... .. . ... : ... .. . ... : ... .. . ... : ... .. . ...
ROW 1F : ... .. . ... : ... .. . ... : ... .. . ... : ... .. . ... : ... .. . ...
ROW 20 : ... .. . ... : C-3 13 . ... : ... .. . ... : ... .. . ... : ... .. . ...
ROW 21 : ... .. . ... : ... .. . ... : ... .. . ... : ... .. . ... : ... .. . ...
ROW 22 : ... .. . ... : D-3 13 . ... : ... .. . ... : ... .. . ... : ... .. . ...
ROW 23 : ... .. . ... : ... .. . ... : ... .. . ... : ... .. . ... : ... .. . ...
ROW 24 : ... .. . ... : D#3 12 . ... : ... .. . ... : ... .. . ... : ... .. . ...
ROW 25 : ... .. . ... : ... .. . ... : ... .. . ... : ... .. . ... : ... .. . ...
ROW 26 : ... .. . ... : F-3 12 . ... : ... .. . ... : ... .. . ... : ... .. . ...
ROW 27 : ... .. . ... : ... .. . ... : ... .. . ... : ... .. . ... : ... .. . ...
ROW 28 : ... .. . ... : G-3 05 . ... : ... .. . ... : ... .. . ... : ... .. . ...
ROW 29 : ... .. . ... : ... .. . ... : ... .. . ... : ... .. . ... : ... .. . ...
ROW 2A : ... .. . ... : D#3 05 . ... : ... .. . ... : ... .. . ... : ... .. . ...
ROW 2B : ... .. . ... : ... .. . ... : ... .. . ... : ... .. . ... : ... .. . ...
ROW 2C : ... .. . ... : G-3 05 . ... : G-3 0D . ... : ... .. . ... : ... .. . ...
ROW 2D : ... .. . ... : ... .. . ... : ... .. . ... : ... .. . ... : ... .. . ...
ROW 2E : ... .. . ... : C-4 05 . ... : ... .. . ... : ... .. . ... : ... .. . ...
ROW 2F : ... .. . ... : ... .. . ... : ... .. . ... : ... .. . ... : ... .. . ...
ROW 30 : ... .. . ... : A#3 05 . ... : A#3 0D . ... : ... .. . ... : ... .. . ...
ROW 31 : ... .. . ... : ... .. . ... : ... .. . ... : ... .. . ... : ... .. . ...
ROW 32 : ... .. . ... : G-3 05 . ... : ... .. . ... : ... .. . ... : ... .. . ...
ROW 33 : ... .. . ... : ... .. . ... : ... .. . ... : ... .. . ... : ... .. . ...
ROW 34 : ... .. . ... : D#3 05 . ... : D#3 0D . ... : ... .. . ... : ... .. . ...
ROW 35 : ... .. . ... : ... .. . ... : ... .. . ... : ... .. . ... : ... .. . ...
ROW 36 : ... .. . ... : G-3 05 . ... : ... .. . ... : ... .. . ... : ... .. . ...
ROW 37 : ... .. . ... : ... .. . ... : ... .. . ... : ... .. . ... : ... .. . ...
ROW 38 : ... .. . ... : A#3 05 . ... : A#3 0D . ... : ... .. . ... : ... .. . ...
ROW 39 : ... .. . ... : ... .. . ... : ... .. . ... : ... .. . ... : ... .. . ...
ROW 3A : ... .. . ... : ... .. . ... : ... .. . ... : ... .. . ... : ... .. . ...
ROW 3B : ... .. . ... : ... .. . ... : ... .. . ... : ... .. . ... : ... .. . ...
ROW 3C : ... .. . ... : ... .. . ... : ... .. . ... : ... .. . ... : ... .. . ...
ROW 3D : ... .. . ... : ... .. . ... : ... .. . ... : ... .. . ... : ... .. . ...
ROW 3E : ... .. . ... : ... .. . ... : ... .. . ... : ... .. . ... : ... .. . ...
ROW 3F : ... .. . ... : ... .. . ... : ... .. . ... : ... .. . ... : ... .. . ...

PATTERN 03
ROW 00 : C-1 06 . ... : F#3 05 . F08 : ... .. . ... : ... .. . ... : ... .. . ...
ROW 01 : ... .. . ... : ... .. . ... : ... .. . ... : ... .. . ... : ... .. . ...
ROW 02 : ... .. . ... : G#3 05 . ... : ... .. . ... : ... .. . ... : ... .. . ...
ROW 03 : ... .. . ... : ... .. . ... : ... .. . ... : ... .. . ... : ... .. . ...
ROW 04 : G-1 06 . ... : A#3 05 . ... : ... .. . ... : ... .. . ... : ... .. . ...
ROW 05 : ... .. . ... : ... .. . ... : ... .. . ... : ... .. . ... : ... .. . ...
ROW 06 : ... .. . ... : B-3 05 . ... : ... .. . ... : ... .. . ... : ... .. . ...
ROW 07 : ... .. . ... : ... .. . ... : ... .. . ... : ... .. . ... : ... .. . ...
ROW 08 : C-1 06 . ... : C#4 05 . ... : ... .. . ... : ... .. . ... : ... .. . ...
ROW 09 : ... .. . ... : ... .. . ... : ... .. . ... : ... .. . ... : ... .. . ...
ROW 0A : ... .. . ... : A#3 05 . ... : ... .. . ... : ... .. . ... : ... .. . ...
ROW 0B : ... .. . ... : ... .. . ... : ... .. . ... : ... .. . ... : ... .. . ...
ROW 0C : G-1 06 . ... : C#4 05 . ... : D-4 02 . ... : ... .. . ... : ... .. . ...
ROW 0D : ... .. . ... : ... .. . ... : ... .. . ... : ... .. . ... : ... .. . ...
ROW 0E : ... .. . ... : ... .. . ... : ... .. . ... : ... .. . ... : ... .. . ...
ROW 0F : ... .. . ... : ... .. . ... : ... .. . ... : ... .. . ... : ... .. . ...
ROW 10 : C-1 06 . ... : D-4 05 . ... : ... .. . ... : ... .. . ... : ... .. . ...
ROW 11 : ... .. . ... : ... .. . ... : ... .. . ... : ... .. . ... : ... .. . ...
ROW 12 : ... .. . ... : A#3 05 . ... : ... .. . ... : ... .. . ... : ... .. . ...
ROW 13 : ... .. . ... : ... .. . ... : ... .. . ... : ... .. . ... : ... .. . ...
ROW 14 : G-1 06 . ... : D-4 05 . ... : D#4 02 . ... : ... .. . ... : ... .. . ...
ROW 15 : ... .. . ... : ... .. . ... : ... .. . ... : ... .. . ... : ... .. . ...
ROW 16 : ... .. . ... : ... .. . ... : ... .. . ... : ... .. . ... : ... .. . ...
ROW 17 : ... .. . ... : ... .. . ... : ... .. . ... : ... .. . ... : ... .. . ...
ROW 18 : C-1 06 . ... : C#4 05 . ... : ... .. . ... : ... .. . ... : ... .. . ...
ROW 19 : ... .. . ... : ... .. . ... : ... .. . ... : ... .. . ... : ... .. . ...
ROW 1A : ... .. . ... : A#3 05 . ... : ... .. . ... : ... .. . ... : ... .. . ...
ROW 1B : ... .. . ... : ... .. . ... : ... .. . ... : ... .. . ... : ... .. . ...
ROW 1C : G-1 06 . ... : C#4 05 . ... : D-4 02 . ... : ... .. . ... : ... .. . ...
ROW 1D : ... .. . ... : ... .. . ... : ... .. . ... : ... .. . ... : ... .. . ...
ROW 1E : ... .. . ... : ... .. . ... : ... .. . ... : ... .. . ... : ... .. . ...
ROW 1F : ... .. . ... : ... .. . ... : ... .. . ... : ... .. . ... : ... .. . ...
ROW 20 : C-1 06 . ... : F#3 05 . ... : ... .. . ... : ... .. . ... : ... .. . ...
ROW 21 : ... .. . ... : ... .. . ... : ... .. . ... : ... .. . ... : ... .. . ...
ROW 22 : ... .. . ... : G#3 05 . ... : ... .. . ... : ... .. . ... : ... .. . ...
ROW 23 : ... .. . ... : ... .. . ... : ... .. . ... : ... .. . ... : ... .. . ...
ROW 24 : G-1 06 . ... : A#3 05 . ... : ... .. . ... : ... .. . ... : ... .. . ...
ROW 25 : ... .. . ... : ... .. . ... : ... .. . ... : ... .. . ... : ... .. . ...
ROW 26 : ... .. . ... : B-3 05 . ... : ... .. . ... : ... .. . ... : ... .. . ...
ROW 27 : ... .. . ... : ... .. . ... : ... .. . ... : ... .. . ... : ... .. . ...
ROW 28 : C-1 06 . ... : C#4 05 . ... : ... .. . ... : ... .. . ... : ... .. . ...
ROW 29 : ... .. . ... : ... .. . ... : ... .. . ... : ... .. . ... : ... .. . ...
ROW 2A : ... .. . ... : A#3 05 . ... : ... .. . ... : ... .. . ... : ... .. . ...
ROW 2B : ... .. . ... : ... .. . ... : ... .. . ... : ... .. . ... : ... .. . ...
ROW 2C : G-1 06 . ... : C#4 05 . ... : D-4 02 . ... : ... .. . ... : ... .. . ...
ROW 2D : ... .. . ... : ... .. . ... : ... .. . ... : ... .. . ... : ... .. . ...
ROW 2E : ... .. . ... : ... .. . ... : ... .. . ... : ... .. . ... : ... .. . ...
ROW 2F : ... .. . ... : ... .. . ... : ... .. . ... : ... .. . ... : ... .. . ...
ROW 30 : D#1 06 . ... : D-4 05 . ... : ... .. . ... : ... .. . ... : ... .. . ...
ROW 31 : ... .. . ... : ... .. . ... : ... .. . ... : ... .. . ... : ... .. . ...
ROW 32 : ... .. . ... : A#3 05 . ... : ... .. . ... : ... .. . ... : ... .. . ...
ROW 33 : ... .. . ... : ... .. . ... : ... .. . ... : ... .. . ... : ... .. . ...
ROW 34 : A#1 06 . ... : D-4 05 . ... : D#4 02 . ... : ... .. . ... : ... .. . ...
ROW 35 : ... .. . ... : ... .. . ... : ... .. . ... : ... .. . ... : ... .. . ...
ROW 36 : ... .. . ... : ... .. . ... : ... .. . ... : ... .. . ... : ... .. . ...
ROW 37 : ... .. . ... : ... .. . ... : ... .. . ... : ... .. . ... : ... .. . ...
ROW 38 : D#1 06 . ... : C#4 05 . ... : D-4 02 . ... : ... .. . ... : ... .. . ...
ROW 39 : ... .. . ... : ... .. . ... : ... .. . ... : ... .. . ... : ... .. . ...
ROW 3A : ... .. . ... : ... .. . ... : ... .. . ... : ... .. . ... : ... .. . ...
ROW 3B : ... .. . ... : ... .. . ... : ... .. . ... : ... .. . ... : ... .. . ...
ROW 3C : A#1 06 . ... : ... .. . ... : ... .. . ... : ... .. . ... : ... .. . ...
ROW 3D : ... .. . ... : ... .. . ... : ... .. . ... : ... .. . ... : ... .. . ...
ROW 3E : ... .. . ... : ... .. . ... : ... .. . ... : ... .. . ... : ... .. . ...
ROW 3F : ... .. . B0A : ... .. . ... : ... .. . ... : ... .. . ... : ... .. . ...

PATTERN 04
ROW 00 : ... .. . ... : G-2 13 . F07 : ... .. . ... : ... .. . ... : ... .. . ...
ROW 01 : ... .. . ... : ... .. . ... : ... .. . ... : ... .. . ... : ... .. . ...
ROW 02 : ... .. . ... : A-2 13 . ... : ... .. . ... : ... .. . ... : ... .. . ...
ROW 03 : ... .. . ... : ... .. . ... : ... .. . ... : ... .. . ... : ... .. . ...
ROW 04 : ... .. . ... : B-2 12 . ... : ... .. . ... : ... .. . ... : ... .. . ...
ROW 05 : ... .. . ... : ... .. . ... : ... .. . ... : ... .. . ... : ... .. . ...
ROW 06 : ... .. . ... : C-3 12 . ... : ... .. . ... : ... .. . ... : ... .. . ...
ROW 07 : ... .. . ... : ... .. . ... : ... .. . ... : ... .. . ... : ... .. . ...
ROW 08 : ... .. . ... : D-3 05 . ... : ... .. . ... : ... .. . ... : ... .. . ...
ROW 09 : ... .. . ... : ... .. . ... : ... .. . ... : ... .. . ... : ... .. . ...
ROW 0A : ... .. . ... : B-2 05 . ... : ... .. . ... : ... .. . ... : ... .. . ...
ROW 0B : ... .. . ... : ... .. . ... : ... .. . ... : ... .. . ... : ... .. . ...
ROW 0C : ... .. . ... : D-3 05 . ... : ... .. . ... : ... .. . ... : ... .. . ...
ROW 0D : ... .. . ... : ... .. . ... : ... .. . ... : ... .. . ... : ... .. . ...
ROW 0E : ... .. . ... : ... .. . ... : ... .. . ... : ... .. . ... : ... .. . ...
ROW 0F : ... .. . ... : ... .. . ... : ... .. . ... : ... .. . ... : ... .. . ...
ROW 10 : ... .. . ... : D#3 12 . ... : ... .. . ... : ... .. . ... : ... .. . ...
ROW 11 : ... .. . ... : ... .. . ... : ... .. . ... : ... .. . ... : ... .. . ...
ROW 12 : ... .. . ... : B-2 12 . ... : ... .. . ... : ... .. . ... : ... .. . ...
ROW 13 : ... .. . ... : ... .. . ... : ... .. . ... : ... .. . ... : ... .. . ...
ROW 14 : ... .. . ... : D#3 12 . ... : ... .. . ... : ... .. . ... : ... .. . ...
ROW 15 : ... .. . ... : ... .. . ... : ... .. . ... : ... .. . ... : ... .. . ...
ROW 16 : ... .. . ... : ... .. . ... : ... .. . ... : ... .. . ... : ... .. . ...
ROW 17 : ... .. . ... : ... .. . ... : ... .. . ... : ... .. . ... : ... .. . ...
ROW 18 : ... .. . ... : D-3 13 . ... : ... .. . ... : ... .. . ... : ... .. . ...
ROW 19 : ... .. . ... : ... .. . ... : ... .. . ... : ... .. . ... : ... .. . ...
ROW 1A : ... .. . ... : B-2 13 . ... : ... .. . ... : ... .. . ... : ... .. . ...
ROW 1B : ... .. . ... : ... .. . ... : ... .. . ... : ... .. . ... : ... .. . ...
ROW 1C : ... .. . ... : D-3 13 . ... : ... .. . ... : ... .. . ... : ... .. . ...
ROW 1D : ... .. . ... : ... .. . ... : ... .. . ... : ... .. . ... : ... .. . ...
ROW 1E : ... .. . ... : ... .. . ... : ... .. . ... : ... .. . ... : ... .. . ...
ROW 1F : ... .. . ... : ... .. . ... : ... .. . ... : ... .. . ... : ... .. . ...
ROW 20 : ... .. . ... : G-2 13 . ... : ... .. . ... : ... .. . ... : ... .. . ...
ROW 21 : ... .. . ... : ... .. . ... : ... .. . ... : ... .. . ... : ... .. . ...
ROW 22 : ... .. . ... : A-2 13 . ... : ... .. . ... : ... .. . ... : ... .. . ...
ROW 23 : ... .. . ... : ... .. . ... : ... .. . ... : ... .. . ... : ... .. . ...
ROW 24 : ... .. . ... : B-2 12 . ... : ... .. . ... : ... .. . ... : ... .. . ...
ROW 25 : ... .. . ... : ... .. . ... : ... .. . ... : ... .. . ... : ... .. . ...
ROW 26 : ... .. . ... : C-3 12 . ... : ... .. . ... : ... .. . ... : ... .. . ...
ROW 27 : ... .. . ... : ... .. . ... : ... .. . ... : ... .. . ... : ... .. . ...
ROW 28 : ... .. . ... : D-3 05 . ... : ... .. . ... : ... .. . ... : ... .. . ...
ROW 29 : ... .. . ... : ... .. . ... : ... .. . ... : ... .. . ... : ... .. . ...
ROW 2A : ... .. . ... : B-2 05 . ... : ... .. . ... : ... .. . ... : ... .. . ...
ROW 2B : ... .. . ... : ... .. . ... : ... .. . ... : ... .. . ... : ... .. . ...
ROW 2C : ... .. . ... : D-3 05 . ... : ... .. . ... : ... .. . ... : ... .. . ...
ROW 2D : ... .. . ... : ... .. . ... : ... .. . ... : ... .. . ... : ... .. . ...
ROW 2E : ... .. . ... : ... .. . ... : ... .. . ... : ... .. . ... : ... .. . ...
ROW 2F : ... .. . ... : ... .. . ... : ... .. . ... : ... .. . ... : ... .. . ...
ROW 30 : ... .. . ... : D#3 05 . ... : ... .. . ... : ... .. . ... : ... .. . ...
ROW 31 : ... .. . ... : ... .. . ... : ... .. . ... : ... .. . ... : ... .. . ...
ROW 32 : ... .. . ... : B-2 05 . ... : ... .. . ... : ... .. . ... : ... .. . ...
ROW 33 : ... .. . ... : ... .. . ... : ... .. . ... : ... .. . ... : ... .. . ...
ROW 34 : ... .. . ... : D#3 05 . ... : ... .. . ... : ... .. . ... : ... .. . ...
ROW 35 : ... .. . ... : ... .. . ... : ... .. . ... : ... .. . ... : ... .. . ...
ROW 36 : ... .. . ... : ... .. . ... : ... .. . ... : ... .. . ... : ... .. . ...
ROW 37 : ... .. . ... : ... .. . ... : ... .. . ... : ... .. . ... : ... .. . ...
ROW 38 : ... .. . ... : D-3 05 . ... : ... .. . ... : ... .. . ... : ... .. . ...
ROW 39 : ... .. . ... : ... .. . ... : ... .. . ... : ... .. . ... : ... .. . ...
ROW 3A : ... .. . ... : ... .. . ... : ... .. . ... : ... .. . ... : ... .. . ...
ROW 3B : ... .. . ... : ... .. . ... : ... .. . ... : ... .. . ... : ... .. . ...
ROW 3C : ... .. . ... : ... .. . ... : ... .. . ... : ... .. . ... : ... .. . ...
ROW 3D : ... .. . ... : ... .. . ... : ... .. . ... : ... .. . ... : ... .. . ...
ROW 3E : ... .. . ... : ... .. . ... : ... .. . ... : ... .. . ... : ... .. . ...
ROW 3F : ... .. . ... : ... .. . ... : ... .. . ... : ... .. . ... : ... .. . ...

PATTERN 05
ROW 00 : ... .. . ... : C-2 13 . F07 : ... .. . ... : ... .. . ... : ... .. . ...
ROW 01 : ... .. . ... : ... .. . ... : ... .. . ... : ... .. . ... : ... .. . ...
ROW 02 : ... .. . ... : D-2 13 . ... : ... .. . ... : ... .. . ... : ... .. . ...
ROW 03 : ... .. . ... : ... .. . ... : ... .. . ... : ... .. . ... : ... .. . ...
ROW 04 : ... .. . ... : D#2 12 . ... : ... .. . ... : ... .. . ... : ... .. . ...
ROW 05 : ... .. . ... : ... .. . ... : ... .. . ... : ... .. . ... : ... .. . ...
ROW 06 : ... .. . ... : F-2 12 . ... : ... .. . ... : ... .. . ... : ... .. . ...
ROW 07 : ... .. . ... : ... .. . ... : ... .. . ... : ... .. . ... : ... .. . ...
ROW 08 : ... .. . ... : G-2 05 . ... : ... .. . ... : ... .. . ... : ... .. . ...
ROW 09 : ... .. . ... : ... .. . ... : ... .. . ... : ... .. . ... : ... .. . ...
ROW 0A : ... .. . ... : D#2 05 . ... : ... .. . ... : ... .. . ... : ... .. . ...
ROW 0B : ... .. . ... : ... .. . ... : ... .. . ... : ... .. . ... : ... .. . ...
ROW 0C : ... .. . ... : G-2 05 . ... : ... .. . ... : ... .. . ... : ... .. . ...
ROW 0D : ... .. . ... : ... .. . ... : ... .. . ... : ... .. . ... : ... .. . ...
ROW 0E : ... .. . ... : ... .. . ... : ... .. . ... : ... .. . ... : ... .. . ...
ROW 0F : ... .. . ... : ... .. . ... : ... .. . ... : ... .. . ... : ... .. . ...
ROW 10 : ... .. . ... : F#2 12 . ... : ... .. . ... : ... .. . ... : ... .. . ...
ROW 11 : ... .. . ... : ... .. . ... : ... .. . ... : ... .. . ... : ... .. . ...
ROW 12 : ... .. . ... : D-2 12 . ... : ... .. . ... : ... .. . ... : ... .. . ...
ROW 13 : ... .. . ... : ... .. . ... : ... .. . ... : ... .. . ... : ... .. . ...
ROW 14 : ... .. . ... : F#2 12 . ... : ... .. . ... : ... .. . ... : ... .. . ...
ROW 15 : ... .. . ... : ... .. . ... : ... .. . ... : ... .. . ... : ... .. . ...
ROW 16 : ... .. . ... : ... .. . ... : ... .. . ... : ... .. . ... : ... .. . ...
ROW 17 : ... .. . ... : ... .. . ... : ... .. . ... : ... .. . ... : ... .. . ...
ROW 18 : ... .. . ... : F-2 13 . ... : ... .. . ... : ... .. . ... : ... .. . ...
ROW 19 : ... .. . ... : ... .. . ... : ... .. . ... : ... .. . ... : ... .. . ...
ROW 1A : ... .. . ... : C#2 13 . ... : ... .. . ... : ... .. . ... : ... .. . ...
ROW 1B : ... .. . ... : ... .. . ... : ... .. . ... : ... .. . ... : ... .. . ...
ROW 1C : ... .. . ... : F-2 13 . ... : ... .. . ... : ... .. . ... : ... .. . ...
ROW 1D : ... .. . ... : ... .. . ... : ... .. . ... : ... .. . ... : ... .. . ...
ROW 1E : ... .. . ... : ... .. . ... : ... .. . ... : ... .. . ... : ... .. . ...
ROW 1F : ... .. . ... : ... .. . ... : ... .. . ... : ... .. . ... : ... .. . ...
ROW 20 : ... .. . ... : C-2 13 . ... : ... .. . ... : ... .. . ... : ... .. . ...
ROW 21 : ... .. . ... : ... .. . ... : ... .. . ... : ... .. . ... : ... .. . ...
ROW 22 : ... .. . ... : D-2 13 . ... : ... .. . ... : ... .. . ... : ... .. . ...
ROW 23 : ... .. . ... : ... .. . ... : ... .. . ... : ... .. . ... : ... .. . ...
ROW 24 : ... .. . ... : D#2 12 . ... : ... .. . ... : ... .. . ... : ... .. . ...
ROW 25 : ... .. . ... : ... .. . ... : ... .. . ... : ... .. . ... : ... .. . ...
ROW 26 : ... .. . ... : F-2 12 . ... : ... .. . ... : ... .. . ... : ... .. . ...
ROW 27 : ... .. . ... : ... .. . ... : ... .. . ... : ... .. . ... : ... .. . ...
ROW 28 : ... .. . ... : G-2 05 . ... : ... .. . ... : ... .. . ... : ... .. . ...
ROW 29 : ... .. . ... : ... .. . ... : ... .. . ... : ... .. . ... : ... .. . ...
ROW 2A : ... .. . ... : D#2 05 . ... : ... .. . ... : ... .. . ... : ... .. . ...
ROW 2B : ... .. . ... : ... .. . ... : ... .. . ... : ... .. . ... : ... .. . ...
ROW 2C : ... .. . ... : G-2 05 . ... : ... .. . ... : ... .. . ... : ... .. . ...
ROW 2D : ... .. . ... : ... .. . ... : ... .. . ... : ... .. . ... : ... .. . ...
ROW 2E : ... .. . ... : C-3 05 . ... : ... .. . ... : ... .. . ... : ... .. . ...
ROW 2F : ... .. . ... : ... .. . ... : ... .. . ... : ... .. . ... : ... .. . ...
ROW 30 : ... .. . ... : A#2 05 . ... : ... .. . ... : ... .. . ... : ... .. . ...
ROW 31 : ... .. . ... : ... .. . ... : ... .. . ... : ... .. . ... : ... .. . ...
ROW 32 : ... .. . ... : G-2 05 . ... : ... .. . ... : ... .. . ... : ... .. . ...
ROW 33 : ... .. . ... : ... .. . ... : ... .. . ... : ... .. . ... : ... .. . ...
ROW 34 : ... .. . ... : D#2 05 . ... : ... .. . ... : ... .. . ... : ... .. . ...
ROW 35 : ... .. . ... : ... .. . ... : ... .. . ... : ... .. . ... : ... .. . ...
ROW 36 : ... .. . ... : G-2 05 . ... : ... .. . ... : ... .. . ... : ... .. . ...
ROW 37 : ... .. . ... : ... .. . ... : ... .. . ... : ... .. . ... : ... .. . ...
ROW 38 : ... .. . ... : A#2 05 . ... : ... .. . ... : ... .. . ... : ... .. . ...
ROW 39 : ... .. . ... : ... .. . ... : ... .. . ... : ... .. . ... : ... .. . ...
ROW 3A : ... .. . ... : ... .. . ... : ... .. . ... : ... .. . ... : ... .. . ...
ROW 3B : ... .. . ... : ... .. . ... : ... .. . ... : ... .. . ... : ... .. . ...
ROW 3C : ... .. . ... : ... .. . ... : ... .. . ... : ... .. . ... : ... .. . ...
ROW 3D : ... .. . ... : ... .. . ... : ... .. . ... : ... .. . ... : ... .. . ...
ROW 3E : ... .. . ... : ... .. . ... : ... .. . ... : ... .. . ... : ... .. . ...
ROW 3F : ... .. . ... : ... .. . ... : ... .. . ... : ... .. . ... : ... .. . ...

PATTERN 06
ROW 00 : ... .. . ... : G-2 13 . F06 : ... .. . ... : ... .. . ... : ... .. . ...
ROW 01 : ... .. . ... : ... .. . ... : ... .. . ... : ... .. . ... : ... .. . ...
ROW 02 : ... .. . ... : A-2 13 . ... : ... .. . ... : ... .. . ... : ... .. . ...
ROW 03 : ... .. . ... : ... .. . ... : ... .. . ... : ... .. . ... : ... .. . ...
ROW 04 : ... .. . ... : B-2 12 . ... : ... .. . ... : ... .. . ... : ... .. . ...
ROW 05 : ... .. . ... : ... .. . ... : ... .. . ... : ... .. . ... : ... .. . ...
ROW 06 : ... .. . ... : C-3 12 . ... : ... .. . ... : ... .. . ... : ... .. . ...
ROW 07 : ... .. . ... : ... .. . ... : ... .. . ... : ... .. . ... : ... .. . ...
ROW 08 : ... .. . ... : D-3 05 . ... : ... .. . ... : ... .. . ... : ... .. . ...
ROW 09 : ... .. . ... : ... .. . ... : ... .. . ... : ... .. . ... : ... .. . ...
ROW 0A : ... .. . ... : B-2 05 . ... : ... .. . ... : ... .. . ... : ... .. . ...
ROW 0B : ... .. . ... : ... .. . ... : ... .. . ... : ... .. . ... : ... .. . ...
ROW 0C : ... .. . ... : D-3 05 . ... : ... .. . ... : ... .. . ... : ... .. . ...
ROW 0D : ... .. . ... : ... .. . ... : ... .. . ... : ... .. . ... : ... .. . ...
ROW 0E : ... .. . ... : ... .. . ... : ... .. . ... : ... .. . ... : ... .. . ...
ROW 0F : ... .. . ... : ... .. . ... : ... .. . ... : ... .. . ... : ... .. . ...
ROW 10 : ... .. . ... : D#3 12 . ... : ... .. . ... : ... .. . ... : ... .. . ...
ROW 11 : ... .. . ... : ... .. . ... : ... .. . ... : ... .. . ... : ... .. . ...
ROW 12 : ... .. . ... : B-2 12 . ... : ... .. . ... : ... .. . ... : ... .. . ...
ROW 13 : ... .. . ... : ... .. . ... : ... .. . ... : ... .. . ... : ... .. . ...
ROW 14 : ... .. . ... : D#3 12 . ... : ... .. . ... : ... .. . ... : ... .. . ...
ROW 15 : ... .. . ... : ... .. . ... : ... .. . ... : ... .. . ... : ... .. . ...
ROW 16 : ... .. . ... : ... .. . ... : ... .. . ... : ... .. . ... : ... .. . ...
ROW 17 : ... .. . ... : ... .. . ... : ... .. . ... : ... .. . ... : ... .. . ...
ROW 18 : ... .. . ... : D-3 13 . ... : ... .. . ... : ... .. . ... : ... .. . ...
ROW 19 : ... .. . ... : ... .. . ... : ... .. . ... : ... .. . ... : ... .. . ...
ROW 1A : ... .. . ... : B-2 13 . ... : ... .. . ... : ... .. . ... : ... .. . ...
ROW 1B : ... .. . ... : ... .. . ... : ... .. . ... : ... .. . ... : ... .. . ...
ROW 1C : ... .. . ... : D-3 13 . ... : ... .. . ... : ... .. . ... : ... .. . ...
ROW 1D : ... .. . ... : ... .. . ... : ... .. . ... : ... .. . ... : ... .. . ...
ROW 1E : ... .. . ... : ... .. . ... : ... .. . ... : ... .. . ... : ... .. . ...
ROW 1F : ... .. . ... : ... .. . ... : ... .. . ... : ... .. . ... : ... .. . ...
ROW 20 : ... .. . ... : G-2 13 . ... : ... .. . ... : ... .. . ... : ... .. . ...
ROW 21 : ... .. . ... : ... .. . ... : ... .. . ... : ... .. . ... : ... .. . ...
ROW 22 : ... .. . ... : A-2 13 . ... : ... .. . ... : ... .. . ... : ... .. . ...
ROW 23 : ... .. . ... : ... .. . ... : ... .. . ... : ... .. . ... : ... .. . ...
ROW 24 : ... .. . ... : B-2 12 . ... : ... .. . ... : ... .. . ... : ... .. . ...
ROW 25 : ... .. . ... : ... .. . ... : ... .. . ... : ... .. . ... : ... .. . ...
ROW 26 : ... .. . ... : C-3 12 . ... : ... .. . ... : ... .. . ... : ... .. . ...
ROW 27 : ... .. . ... : ... .. . ... : ... .. . ... : ... .. . ... : ... .. . ...
ROW 28 : ... .. . ... : D-3 05 . ... : ... .. . ... : ... .. . ... : ... .. . ...
ROW 29 : ... .. . ... : ... .. . ... : ... .. . ... : ... .. . ... : ... .. . ...
ROW 2A : ... .. . ... : B-2 05 . ... : ... .. . ... : ... .. . ... : ... .. . ...
ROW 2B : ... .. . ... : ... .. . ... : ... .. . ... : ... .. . ... : ... .. . ...
ROW 2C : ... .. . ... : D-3 05 . ... : ... .. . ... : ... .. . ... : ... .. . ...
ROW 2D : ... .. . ... : ... .. . ... : ... .. . ... : ... .. . ... : ... .. . ...
ROW 2E : ... .. . ... : ... .. . ... : ... .. . ... : ... .. . ... : ... .. . ...
ROW 2F : ... .. . ... : ... .. . ... : ... .. . ... : ... .. . ... : ... .. . ...
ROW 30 : ... .. . ... : D#3 05 . ... : ... .. . ... : ... .. . ... : ... .. . ...
ROW 31 : ... .. . ... : ... .. . ... : ... .. . ... : ... .. . ... : ... .. . ...
ROW 32 : ... .. . ... : B-2 05 . ... : ... .. . ... : ... .. . ... : ... .. . ...
ROW 33 : ... .. . ... : ... .. . ... : ... .. . ... : ... .. . ... : ... .. . ...
ROW 34 : ... .. . ... : D#3 05 . ... : ... .. . ... : ... .. . ... : ... .. . ...
ROW 35 : ... .. . ... : ... .. . ... : ... .. . ... : ... .. . ... : ... .. . ...
ROW 36 : ... .. . ... : ... .. . ... : ... .. . ... : ... .. . ... : ... .. . ...
ROW 37 : ... .. . ... : ... .. . ... : ... .. . ... : ... .. . ... : ... .. . ...
ROW 38 : ... .. . ... : D-3 05 . ... : ... .. . ... : ... .. . ... : ... .. . ...
ROW 39 : ... .. . ... : ... .. . ... : ... .. . ... : ... .. . ... : ... .. . ...
ROW 3A : ... .. . ... : ... .. . ... : ... .. . ... : ... .. . ... : ... .. . ...
ROW 3B : ... .. . ... : ... .. . ... : ... .. . ... : ... .. . ... : ... .. . ...
ROW 3C : ... .. . ... : ... .. . ... : ... .. . ... : ... .. . ... : ... .. . ...
ROW 3D : ... .. . ... : ... .. . ... : ... .. . ... : ... .. . ... : ... .. . ...
ROW 3E : ... .. . ... : ... .. . ... : ... .. . ... : ... .. . ... : ... .. . ...
ROW 3F : ... .. . ... : ... .. . ... : ... .. . ... : ... .. . ... : ... .. . ...

PATTERN 07
ROW 00 : ... .. . ... : C-2 13 . F06 : ... .. . ... : ... .. . ... : ... .. . ...
ROW 01 : ... .. . ... : ... .. . ... : ... .. . ... : ... .. . ... : ... .. . ...
ROW 02 : ... .. . ... : D-2 13 . ... : ... .. . ... : ... .. . ... : ... .. . ...
ROW 03 : ... .. . ... : ... .. . ... : ... .. . ... : ... .. . ... : ... .. . ...
ROW 04 : ... .. . ... : D#2 12 . ... : ... .. . ... : ... .. . ... : ... .. . ...
ROW 05 : ... .. . ... : ... .. . ... : ... .. . ... : ... .. . ... : ... .. . ...
ROW 06 : ... .. . ... : F-2 12 . ... : ... .. . ... : ... .. . ... : ... .. . ...
ROW 07 : ... .. . ... : ... .. . ... : ... .. . ... : ... .. . ... : ... .. . ...
ROW 08 : ... .. . ... : G-2 05 . ... : ... .. . ... : ... .. . ... : ... .. . ...
ROW 09 : ... .. . ... : ... .. . ... : ... .. . ... : ... .. . ... : ... .. . ...
ROW 0A : ... .. . ... : D#2 05 . ... : ... .. . ... : ... .. . ... : ... .. . ...
ROW 0B : ... .. . ... : ... .. . ... : ... .. . ... : ... .. . ... : ... .. . ...
ROW 0C : ... .. . ... : G-2 05 . ... : ... .. . ... : ... .. . ... : ... .. . ...
ROW 0D : ... .. . ... : ... .. . ... : ... .. . ... : ... .. . ... : ... .. . ...
ROW 0E : ... .. . ... : ... .. . ... : ... .. . ... : ... .. . ... : ... .. . ...
ROW 0F : ... .. . ... : ... .. . ... : ... .. . ... : ... .. . ... : ... .. . ...
ROW 10 : ... .. . ... : F#2 12 . ... : ... .. . ... : ... .. . ... : ... .. . ...
ROW 11 : ... .. . ... : ... .. . ... : ... .. . ... : ... .. . ... : ... .. . ...
ROW 12 : ... .. . ... : D-2 12 . ... : ... .. . ... : ... .. . ... : ... .. . ...
ROW 13 : ... .. . ... : ... .. . ... : ... .. . ... : ... .. . ... : ... .. . ...
ROW 14 : ... .. . ... : F#2 12 . ... : ... .. . ... : ... .. . ... : ... .. . ...
ROW 15 : ... .. . ... : ... .. . ... : ... .. . ... : ... .. . ... : ... .. . ...
ROW 16 : ... .. . ... : ... .. . ... : ... .. . ... : ... .. . ... : ... .. . ...
ROW 17 : ... .. . ... : ... .. . ... : ... .. . ... : ... .. . ... : ... .. . ...
ROW 18 : ... .. . ... : F-2 13 . ... : ... .. . ... : ... .. . ... : ... .. . ...
ROW 19 : ... .. . ... : ... .. . ... : ... .. . ... : ... .. . ... : ... .. . ...
ROW 1A : ... .. . ... : C#2 13 . ... : ... .. . ... : ... .. . ... : ... .. . ...
ROW 1B : ... .. . ... : ... .. . ... : ... .. . ... : ... .. . ... : ... .. . ...
ROW 1C : ... .. . ... : F-2 13 . ... : ... .. . ... : ... .. . ... : ... .. . ...
ROW 1D : ... .. . ... : ... .. . ... : ... .. . ... : ... .. . ... : ... .. . ...
ROW 1E : ... .. . ... : ... .. . ... : ... .. . ... : ... .. . ... : ... .. . ...
ROW 1F : ... .. . ... : ... .. . ... : ... .. . ... : ... .. . ... : ... .. . ...
ROW 20 : ... .. . ... : C-2 13 . ... : ... .. . ... : ... .. . ... : ... .. . ...
ROW 21 : ... .. . ... : ... .. . ... : ... .. . ... : ... .. . ... : ... .. . ...
ROW 22 : ... .. . ... : D-2 13 . ... : ... .. . ... : ... .. . ... : ... .. . ...
ROW 23 : ... .. . ... : ... .. . ... : ... .. . ... : ... .. . ... : ... .. . ...
ROW 24 : ... .. . ... : D#2 12 . ... : ... .. . ... : ... .. . ... : ... .. . ...
ROW 25 : ... .. . ... : ... .. . ... : ... .. . ... : ... .. . ... : ... .. . ...
ROW 26 : ... .. . ... : F-2 12 . ... : ... .. . ... : ... .. . ... : ... .. . ...
ROW 27 : ... .. . ... : ... .. . ... : ... .. . ... : ... .. . ... : ... .. . ...
ROW 28 : ... .. . ... : G-2 05 . ... : ... .. . ... : ... .. . ... : ... .. . ...
ROW 29 : ... .. . ... : ... .. . ... : ... .. . ... : ... .. . ... : ... .. . ...
ROW 2A : ... .. . ... : D#2 05 . ... : ... .. . ... : ... .. . ... : ... .. . ...
ROW 2B : ... .. . ... : ... .. . ... : ... .. . ... : ... .. . ... : ... .. . ...
ROW 2C : ... .. . ... : G-2 05 . ... : ... .. . ... : ... .. . ... : ... .. . ...
ROW 2D : ... .. . ... : ... .. . ... : ... .. . ... : ... .. . ... : ... .. . ...
ROW 2E : ... .. . ... : C-3 05 . ... : ... .. . ... : ... .. . ... : ... .. . ...
ROW 2F : ... .. . ... : ... .. . ... : ... .. . ... : ... .. . ... : ... .. . ...
ROW 30 : ... .. . ... : A#2 05 . ... : ... .. . ... : ... .. . ... : ... .. . ...
ROW 31 : ... .. . ... : ... .. . ... : ... .. . ... : ... .. . ... : ... .. . ...
ROW 32 : ... .. . ... : G-2 05 . ... : ... .. . ... : ... .. . ... : ... .. . ...
ROW 33 : ... .. . ... : ... .. . ... : ... .. . ... : ... .. . ... : ... .. . ...
ROW 34 : ... .. . ... : D#2 05 . ... : ... .. . ... : ... .. . ... : ... .. . ...
ROW 35 : ... .. . ... : ... .. . ... : ... .. . ... : ... .. . ... : ... .. . ...
ROW 36 : ... .. . ... : G-2 05 . ... : ... .. . ... : ... .. . ... : ... .. . ...
ROW 37 : ... .. . ... : ... .. . ... : ... .. . ... : ... .. . ... : ... .. . ...
ROW 38 : ... .. . ... : A#2 05 . ... : ... .. . ... : ... .. . ... : ... .. . ...
ROW 39 : ... .. . ... : ... .. . ... : ... .. . ... : ... .. . ... : ... .. . ...
ROW 3A : ... .. . ... : ... .. . ... : ... .. . ... : ... .. . ... : ... .. . ...
ROW 3B : ... .. . ... : ... .. . ... : ... .. . ... : ... .. . ... : ... .. . ...
ROW 3C : ... .. . ... : ... .. . ... : ... .. . ... : ... .. . ... : ... .. . ...
ROW 3D : ... .. . ... : ... .. . ... : ... .. . ... : ... .. . ... : ... .. . ...
ROW 3E : ... .. . ... : ... .. . ... : ... .. . ... : ... .. . ... : ... .. . ...
ROW 3F : ... .. . ... : ... .. . ... : ... .. . ... : ... .. . ... : ... .. . ...

TRACK  64   7 150 "Lightning Polka"
COLUMNS : 1 1 1 1 1

ORDER 00 : 00 00 00 00 00
ORDER 01 : 01 01 01 01 00
ORDER 02 : 02 02 02 01 00
ORDER 03 : 03 03 03 01 00
ORDER 04 : 04 04 04 01 00
ORDER 05 : 05 05 05 04 00
ORDER 06 : 06 06 06 01 00
ORDER 07 : 07 07 07 01 00
ORDER 08 : 08 06 08 01 00
ORDER 09 : 09 08 09 02 00
ORDER 0A : 0A 0A 0A 03 00

PATTERN 00
ROW 00 : --- 0E . ... : --- 05 . ... : --- 05 . ... : --- 0B . ... : ... .. . ...
ROW 01 : ... .. . ... : ... .. . ... : ... .. . ... : ... .. . ... : ... .. . ...
ROW 02 : A-2 16 . ... : ... .. . ... : F-2 05 . ... : ... .. . ... : ... .. . ...
ROW 03 : G-2 16 . ... : ... .. . ... : F-3 05 . ... : ... .. . ... : ... .. . ...
ROW 04 : D#2 0E . ... : C-2 12 . ... : ... .. . ... : 0-# 0B . ... : ... .. . ...
ROW 05 : ... .. . ... : ... .. . ... : ... .. . ... : ... .. . ... : ... .. . ...
ROW 06 : ... .. . ... : D#3 12 . ... : A-3 05 . ... : 9-# 0A . ... : ... .. . ...
ROW 07 : ... .. . ... : ... .. . ... : ... .. . ... : ... .. . ... : ... .. . ...
ROW 08 : A-1 0E . ... : F-1 12 . ... : ... .. . ... : 0-# 0B . ... : ... .. . ...
ROW 09 : ... .. . ... : ... .. . ... : ... .. . ... : ... .. . ... : ... .. . ...
ROW 0A : ... .. . ... : D#3 12 . ... : A-3 05 . ... : 9-# 0A . ... : ... .. . ...
ROW 0B : ... .. . ... : ... .. . ... : ... .. . ... : ... .. . ... : ... .. . ...
ROW 0C : D#2 0E . ... : C-2 12 . ... : ... .. . ... : 0-# 0B . ... : ... .. . ...
ROW 0D : ... .. . ... : ... .. . ... : ... .. . ... : ... .. . ... : ... .. . ...
ROW 0E : ... .. . ... : D#3 12 . ... : A-3 05 . ... : 9-# 0A . ... : ... .. . ...
ROW 0F : ... .. . ... : ... .. . ... : ... .. . ... : ... .. . ... : ... .. . ...
ROW 10 : A-1 0E . ... : F-1 12 . ... : ... .. . ... : 0-# 0B . ... : ... .. . ...
ROW 11 : ... .. . ... : ... .. . ... : ... .. . ... : ... .. . ... : ... .. . ...
ROW 12 : ... .. . ... : D#3 12 . ... : A-3 05 . ... : 9-# 0A . ... : ... .. . ...
ROW 13 : ... .. . ... : ... .. . ... : ... .. . ... : ... .. . ... : ... .. . ...
ROW 14 : G-2 0E . ... : A-2 12 . ... : ... .. . ... : 0-# 0B . ... : ... .. . ...
ROW 15 : ... .. . ... : ... .. . ... : ... .. . ... : ... .. . ... : ... .. . ...
ROW 16 : ... .. . ... : D#3 12 . ... : C-4 05 . ... : 9-# 0A . ... : ... .. . ...
ROW 17 : G-2 16 . ... : ... .. . ... : ... .. . ... : ... .. . ... : ... .. . ...
ROW 18 : G-2 0E . ... : F-1 12 . ... : ... .. . ... : 0-# 0B . ... : ... .. . ...
ROW 19 : ... .. . ... : ... .. . ... : ... .. . ... : ... .. . ... : ... .. . ...
ROW 1A : ... .. . ... : D#3 12 . ... : C-4 05 . ... : 9-# 0A . ... : ... .. . ...
ROW 1B : G-2 16 . ... : ... .. . ... : ... .. . ... : ... .. . ... : ... .. . ...
ROW 1C : G-2 0F . ... : A-2 12 . ... : ... .. . ... : 0-# 0B . ... : ... .. . ...
ROW 1D : ... .. . ... : ... .. . ... : ... .. . ... : ... .. . ... : ... .. . ...
ROW 1E : ... .. . ... : D#3 12 . ... : A-3 05 . ... : 9-# 0A . ... : ... .. . ...
ROW 1F : ... .. . ... : ... .. . ... : ... .. . ... : ... .. . ... : ... .. . ...
ROW 20 : ... .. . ... : D#3 12 . ... : A-3 05 . ... : 9-# 0A . ... : ... .. . ...
ROW 21 : ... .. . ... : ... .. . ... : ... .. . ... : ... .. . ... : ... .. . ...
ROW 22 : A-2 16 . ... : D#3 12 . ... : A-3 05 . ... : 9-# 0A . ... : ... .. . ...
ROW 23 : G-2 16 . D00 : ... .. . ... : ... .. . ... : ... .. . ... : ... .. . ...
ROW 24 : ... .. . ... : ... .. . ... : ... .. . ... : ... .. . ... : ... .. . ...
ROW 25 : ... .. . ... : ... .. . ... : ... .. . ... : ... .. . ... : ... .. . ...
ROW 26 : ... .. . ... : ... .. . ... : ... .. . ... : ... .. . ... : ... .. . ...
ROW 27 : ... .. . ... : ... .. . ... : ... .. . ... : ... .. . ... : ... .. . ...
ROW 28 : ... .. . ... : ... .. . ... : ... .. . ... : ... .. . ... : ... .. . ...
ROW 29 : ... .. . ... : ... .. . ... : ... .. . ... : ... .. . ... : ... .. . ...
ROW 2A : ... .. . ... : ... .. . ... : ... .. . ... : ... .. . ... : ... .. . ...
ROW 2B : ... .. . ... : ... .. . ... : ... .. . ... : ... .. . ... : ... .. . ...
ROW 2C : ... .. . ... : ... .. . ... : ... .. . ... : ... .. . ... : ... .. . ...
ROW 2D : ... .. . ... : ... .. . ... : ... .. . ... : ... .. . ... : ... .. . ...
ROW 2E : ... .. . ... : ... .. . ... : ... .. . ... : ... .. . ... : ... .. . ...
ROW 2F : ... .. . ... : ... .. . ... : ... .. . ... : ... .. . ... : ... .. . ...
ROW 30 : ... .. . ... : ... .. . ... : ... .. . ... : ... .. . ... : ... .. . ...
ROW 31 : ... .. . ... : ... .. . ... : ... .. . ... : ... .. . ... : ... .. . ...
ROW 32 : ... .. . ... : ... .. . ... : ... .. . ... : ... .. . ... : ... .. . ...
ROW 33 : ... .. . ... : ... .. . ... : ... .. . ... : ... .. . ... : ... .. . ...
ROW 34 : ... .. . ... : ... .. . ... : ... .. . ... : ... .. . ... : ... .. . ...
ROW 35 : ... .. . ... : ... .. . ... : ... .. . ... : ... .. . ... : ... .. . ...
ROW 36 : ... .. . ... : ... .. . ... : ... .. . ... : ... .. . ... : ... .. . ...
ROW 37 : ... .. . ... : ... .. . ... : ... .. . ... : ... .. . ... : ... .. . ...
ROW 38 : ... .. . ... : ... .. . ... : ... .. . ... : ... .. . ... : ... .. . ...
ROW 39 : ... .. . ... : ... .. . ... : ... .. . ... : ... .. . ... : ... .. . ...
ROW 3A : ... .. . ... : ... .. . ... : ... .. . ... : ... .. . ... : ... .. . ...
ROW 3B : ... .. . ... : ... .. . ... : ... .. . ... : ... .. . ... : ... .. . ...
ROW 3C : ... .. . ... : ... .. . ... : ... .. . ... : ... .. . ... : ... .. . ...
ROW 3D : ... .. . ... : ... .. . ... : ... .. . ... : ... .. . ... : ... .. . ...
ROW 3E : ... .. . ... : ... .. . ... : ... .. . ... : ... .. . ... : ... .. . ...
ROW 3F : ... .. . ... : ... .. . ... : ... .. . ... : ... .. . ... : ... .. . ...

PATTERN 01
ROW 00 : D-2 0E . ... : A#1 12 . ... : ... .. . ... : 0-# 0B . ... : ... .. . ...
ROW 01 : ... .. . ... : ... .. . ... : ... .. . ... : ... .. . ... : ... .. . ...
ROW 02 : ... .. . ... : D-3 12 . ... : A#3 05 . ... : 9-# 0A . ... : ... .. . ...
ROW 03 : ... .. . ... : ... .. . ... : ... .. . ... : ... .. . ... : ... .. . ...
ROW 04 : A#1 0E . ... : D-2 12 . ... : ... .. . ... : 0-# 0B . ... : ... .. . ...
ROW 05 : ... .. . ... : ... .. . ... : ... .. . ... : ... .. . ... : ... .. . ...
ROW 06 : ... .. . ... : D-3 12 . ... : A#3 05 . ... : 9-# 0A . ... : ... .. . ...
ROW 07 : ... .. . ... : ... .. . ... : ... .. . ... : ... .. . ... : ... .. . ...
ROW 08 : D-2 0E . ... : A#1 12 . ... : ... .. . ... : 0-# 0B . ... : ... .. . ...
ROW 09 : ... .. . ... : ... .. . ... : ... .. . ... : ... .. . ... : ... .. . ...
ROW 0A : ... .. . ... : D-3 12 . ... : A#3 05 . ... : 9-# 0A . ... : ... .. . ...
ROW 0B : ... .. . ... : ... .. . ... : ... .. . ... : ... .. . ... : ... .. . ...
ROW 0C : A#1 0E . ... : D-2 12 . ... : ... .. . ... : 0-# 0B . ... : ... .. . ...
ROW 0D : ... .. . ... : ... .. . ... : ... .. . ... : ... .. . ... : ... .. . ...
ROW 0E : ... .. . ... : D-3 12 . ... : A#3 05 . ... : 9-# 0A . ... : ... .. . ...
ROW 0F : ... .. . ... : ... .. . ... : ... .. . ... : ... .. . ... : ... .. . ...
ROW 10 : G-2 0E . ... : A#1 12 . ... : ... .. . ... : 0-# 0B . ... : ... .. . ...
ROW 11 : ... .. . ... : ... .. . ... : ... .. . ... : ... .. . ... : ... .. . ...
ROW 12 : ... .. . ... : D-3 12 . ... : A#3 05 . ... : 9-# 0A . ... : ... .. . ...
ROW 13 : G-2 16 . ... : ... .. . ... : ... .. . ... : ... .. . ... : ... .. . ...
ROW 14 : G-2 0E . ... : D-2 12 . ... : ... .. . ... : 0-# 0B . ... : ... .. . ...
ROW 15 : ... .. . ... : ... .. . ... : ... .. . ... : ... .. . ... : ... .. . ...
ROW 16 : ... .. . ... : D-3 12 . ... : A#3 05 . ... : 9-# 0A . ... : ... .. . ...
ROW 17 : G-2 16 . ... : ... .. . ... : ... .. . ... : ... .. . ... : ... .. . ...
ROW 18 : G-2 0F . ... : D-3 12 . ... : ... .. . ... : 0-# 0B . ... : ... .. . ...
ROW 19 : ... .. . ... : ... .. . ... : ... .. . ... : ... .. . ... : ... .. . ...
ROW 1A : ... .. . ... : D-3 12 . ... : A#3 05 . ... : 9-# 0A . ... : ... .. . ...
ROW 1B : ... .. . ... : ... .. . ... : ... .. . ... : ... .. . ... : ... .. . ...
ROW 1C : ... .. . ... : D-3 12 . ... : A#3 05 . ... : 9-# 0A . ... : ... .. . ...
ROW 1D : ... .. . ... : ... .. . ... : ... .. . ... : ... .. . ... : ... .. . ...
ROW 1E : A-2 16 . ... : D-3 12 . ... : A#3 05 . ... : 9-# 0A . ... : ... .. . ...
ROW 1F : G-2 16 . ... : ... .. . ... : ... .. . ... : ... .. . ... : ... .. . ...
ROW 20 : D#2 0E . ... : C-2 12 . ... : ... .. . ... : 0-# 0B . ... : ... .. . ...
ROW 21 : ... .. . ... : ... .. . ... : ... .. . ... : ... .. . ... : ... .. . ...
ROW 22 : ... .. . ... : D#3 12 . ... : A-3 05 . ... : 9-# 0A . ... : ... .. . ...
ROW 23 : ... .. . ... : ... .. . ... : ... .. . ... : ... .. . ... : ... .. . ...
ROW 24 : A-2 0E . ... : F-1 12 . ... : ... .. . ... : 0-# 0B . ... : ... .. . ...
ROW 25 : ... .. . ... : ... .. . ... : ... .. . ... : ... .. . ... : ... .. . ...
ROW 26 : ... .. . ... : D#3 12 . ... : A-3 05 . ... : 9-# 0A . ... : ... .. . ...
ROW 27 : ... .. . ... : ... .. . ... : ... .. . ... : ... .. . ... : ... .. . ...
ROW 28 : A-2 0E . ... : C-2 12 . ... : ... .. . ... : 0-# 0B . ... : ... .. . ...
ROW 29 : ... .. . ... : ... .. . ... : ... .. . ... : ... .. . ... : ... .. . ...
ROW 2A : ... .. . ... : D#3 12 . ... : A-3 05 . ... : 9-# 0A . ... : ... .. . ...
ROW 2B : ... .. . ... : ... .. . ... : ... .. . ... : ... .. . ... : ... .. . ...
ROW 2C : D#3 0E . ... : F-1 12 . ... : ... .. . ... : 0-# 0B . ... : ... .. . ...
ROW 2D : ... .. . ... : ... .. . ... : ... .. . ... : ... .. . ... : ... .. . ...
ROW 2E : ... .. . ... : D#3 12 . ... : A-3 05 . ... : 9-# 0A . ... : ... .. . ...
ROW 2F : ... .. . ... : ... .. . ... : ... .. . ... : ... .. . ... : ... .. . ...
ROW 30 : A-2 0E . ... : C-2 12 . ... : ... .. . ... : 0-# 0B . ... : ... .. . ...
ROW 31 : ... .. . ... : ... .. . ... : ... .. . ... : ... .. . ... : ... .. . ...
ROW 32 : ... .. . ... : D#3 12 . ... : A-3 05 . ... : 9-# 0A . ... : ... .. . ...
ROW 33 : A-2 16 . ... : ... .. . ... : ... .. . ... : ... .. . ... : ... .. . ...
ROW 34 : A-2 0E . ... : F-1 12 . ... : ... .. . ... : 0-# 0B . ... : ... .. . ...
ROW 35 : ... .. . ... : ... .. . ... : ... .. . ... : ... .. . ... : ... .. . ...
ROW 36 : ... .. . ... : D#3 12 . ... : A-3 05 . ... : 9-# 0A . ... : ... .. . ...
ROW 37 : A-2 16 . ... : ... .. . ... : ... .. . ... : ... .. . ... : ... .. . ...
ROW 38 : A-2 0F . ... : C-2 12 . ... : ... .. . ... : 0-# 0B . ... : ... .. . ...
ROW 39 : ... .. . ... : ... .. . ... : ... .. . ... : ... .. . ... : ... .. . ...
ROW 3A : ... .. . ... : D#3 12 . ... : A-3 05 . ... : 9-# 0A . ... : ... .. . ...
ROW 3B : ... .. . ... : ... .. . ... : ... .. . ... : ... .. . ... : ... .. . ...
ROW 3C : ... .. . ... : D#3 12 . ... : A-3 05 . ... : 9-# 0A . ... : ... .. . ...
ROW 3D : G-2 16 . ... : ... .. . ... : ... .. . ... : ... .. . ... : ... .. . ...
ROW 3E : F-2 16 . ... : D#3 12 . ... : A-3 05 . ... : 9-# 0A . ... : ... .. . ...
ROW 3F : D#2 16 . ... : ... .. . ... : ... .. . ... : ... .. . ... : ... .. . ...

PATTERN 02
ROW 00 : D-2 0E . ... : A#1 12 . ... : ... .. . ... : 0-# 0B . ... : ... .. . ...
ROW 01 : ... .. . ... : ... .. . ... : ... .. . ... : ... .. . ... : ... .. . ...
ROW 02 : ... .. . ... : D-3 12 . ... : A#3 05 . ... : 9-# 0A . ... : ... .. . ...
ROW 03 : ... .. . ... : ... .. . ... : ... .. . ... : ... .. . ... : ... .. . ...
ROW 04 : A#2 0E . ... : F-1 12 . ... : ... .. . ... : 0-# 0B . ... : ... .. . ...
ROW 05 : ... .. . ... : ... .. . ... : ... .. . ... : ... .. . ... : ... .. . ...
ROW 06 : ... .. . ... : D-3 12 . ... : A#3 05 . ... : 9-# 0A . ... : ... .. . ...
ROW 07 : ... .. . ... : ... .. . ... : ... .. . ... : ... .. . ... : ... .. . ...
ROW 08 : A#2 0E . ... : A#1 12 . ... : ... .. . ... : 0-# 0B . ... : ... .. . ...
ROW 09 : ... .. . ... : ... .. . ... : ... .. . ... : ... .. . ... : ... .. . ...
ROW 0A : ... .. . ... : D-3 12 . ... : A#3 05 . ... : 9-# 0A . ... : ... .. . ...
ROW 0B : ... .. . ... : ... .. . ... : ... .. . ... : ... .. . ... : ... .. . ...
ROW 0C : D-3 0E . ... : F-1 12 . ... : ... .. . ... : 0-# 0B . ... : ... .. . ...
ROW 0D : ... .. . ... : ... .. . ... : ... .. . ... : ... .. . ... : ... .. . ...
ROW 0E : ... .. . ... : D-3 12 . ... : A#3 05 . ... : 9-# 0A . ... : ... .. . ...
ROW 0F : ... .. . ... : ... .. . ... : ... .. . ... : ... .. . ... : ... .. . ...
ROW 10 : A#2 0E . ... : A#1 12 . ... : ... .. . ... : 0-# 0B . ... : ... .. . ...
ROW 11 : ... .. . ... : ... .. . ... : ... .. . ... : ... .. . ... : ... .. . ...
ROW 12 : ... .. . ... : D-3 12 . ... : A#3 05 . ... : 9-# 0A . ... : ... .. . ...
ROW 13 : A#2 16 . ... : ... .. . ... : ... .. . ... : ... .. . ... : ... .. . ...
ROW 14 : A#2 0E . ... : F-1 12 . ... : ... .. . ... : 0-# 0B . ... : ... .. . ...
ROW 15 : ... .. . ... : ... .. . ... : ... .. . ... : ... .. . ... : ... .. . ...
ROW 16 : ... .. . ... : D-3 12 . ... : A#3 05 . ... : 9-# 0A . ... : ... .. . ...
ROW 17 : A#2 16 . ... : ... .. . ... : ... .. . ... : ... .. . ... : ... .. . ...
ROW 18 : A#2 0F . ... : A#1 12 . ... : ... .. . ... : 0-# 0B . ... : ... .. . ...
ROW 19 : ... .. . ... : ... .. . ... : ... .. . ... : ... .. . ... : ... .. . ...
ROW 1A : ... .. . ... : D-3 12 . ... : A#3 05 . ... : 9-# 0A . ... : ... .. . ...
ROW 1B : ... .. . ... : ... .. . ... : ... .. . ... : ... .. . ... : ... .. . ...
ROW 1C : ... .. . ... : D-3 12 . ... : A#3 05 . ... : 9-# 0A . ... : ... .. . ...
ROW 1D : ... .. . ... : ... .. . ... : ... .. . ... : ... .. . ... : ... .. . ...
ROW 1E : A-2 16 . ... : D-3 12 . ... : A#3 05 . ... : 9-# 0A . ... : ... .. . ...
ROW 1F : G-2 16 . ... : ... .. . ... : ... .. . ... : ... .. . ... : ... .. . ...
ROW 20 : D#2 0E . ... : C-2 12 . ... : ... .. . ... : 0-# 0B . ... : ... .. . ...
ROW 21 : ... .. . ... : ... .. . ... : ... .. . ... : ... .. . ... : ... .. . ...
ROW 22 : ... .. . ... : D#3 12 . ... : A-3 05 . ... : 9-# 0A . ... : ... .. . ...
ROW 23 : ... .. . ... : ... .. . ... : ... .. . ... : ... .. . ... : ... .. . ...
ROW 24 : A-1 0E . ... : F-1 12 . ... : ... .. . ... : 0-# 0B . ... : ... .. . ...
ROW 25 : ... .. . ... : ... .. . ... : ... .. . ... : ... .. . ... : ... .. . ...
ROW 26 : ... .. . ... : D#3 12 . ... : A-3 05 . ... : 9-# 0A . ... : ... .. . ...
ROW 27 : ... .. . ... : ... .. . ... : ... .. . ... : ... .. . ... : ... .. . ...
ROW 28 : D#2 0E . ... : C-2 12 . ... : ... .. . ... : 0-# 0B . ... : ... .. . ...
ROW 29 : ... .. . ... : ... .. . ... : ... .. . ... : ... .. . ... : ... .. . ...
ROW 2A : ... .. . ... : D#3 12 . ... : A-3 05 . ... : 9-# 0A . ... : ... .. . ...
ROW 2B : ... .. . ... : ... .. . ... : ... .. . ... : ... .. . ... : ... .. . ...
ROW 2C : A-1 0E . ... : F-1 12 . ... : ... .. . ... : 0-# 0B . ... : ... .. . ...
ROW 2D : ... .. . ... : ... .. . ... : ... .. . ... : ... .. . ... : ... .. . ...
ROW 2E : ... .. . ... : D#3 12 . ... : A-3 05 . ... : 9-# 0A . ... : ... .. . ...
ROW 2F : ... .. . ... : ... .. . ... : ... .. . ... : ... .. . ... : ... .. . ...
ROW 30 : G-2 0E . ... : A-1 12 . ... : ... .. . ... : 0-# 0B . ... : ... .. . ...
ROW 31 : ... .. . ... : ... .. . ... : ... .. . ... : ... .. . ... : ... .. . ...
ROW 32 : ... .. . ... : D#3 12 . ... : C-4 05 . ... : 9-# 0A . ... : ... .. . ...
ROW 33 : G-2 16 . ... : ... .. . ... : ... .. . ... : ... .. . ... : ... .. . ...
ROW 34 : G-2 0E . ... : F-1 12 . ... : ... .. . ... : 0-# 0B . ... : ... .. . ...
ROW 35 : ... .. . ... : ... .. . ... : ... .. . ... : ... .. . ... : ... .. . ...
ROW 36 : ... .. . ... : D#3 12 . ... : C-4 05 . ... : 9-# 0A . ... : ... .. . ...
ROW 37 : G-2 16 . ... : ... .. . ... : ... .. . ... : ... .. . ... : ... .. . ...
ROW 38 : G-2 0F . ... : A-1 12 . ... : ... .. . ... : 0-# 0B . ... : ... .. . ...
ROW 39 : ... .. . ... : ... .. . ... : ... .. . ... : ... .. . ... : ... .. . ...
ROW 3A : ... .. . ... : D#3 12 . ... : A-3 05 . ... : 9-# 0A . ... : ... .. . ...
ROW 3B : ... .. . ... : ... .. . ... : ... .. . ... : ... .. . ... : ... .. . ...
ROW 3C : ... .. . ... : D#3 12 . ... : A-3 05 . ... : 0-# 0B . ... : ... .. . ...
ROW 3D : ... .. . ... : ... .. . ... : ... .. . ... : ... .. . ... : ... .. . ...
ROW 3E : A-2 16 . ... : D#3 12 . ... : A-3 05 . ... : --- 0A . ... : ... .. . ...
ROW 3F : G-2 16 . ... : ... .. . ... : ... .. . ... : ... .. . ... : ... .. . ...

PATTERN 03
ROW 00 : D-2 0E . ... : A#1 12 . ... : ... .. . ... : ... .. . ... : ... .. . ...
ROW 01 : ... .. . ... : ... .. . ... : ... .. . ... : ... .. . ... : ... .. . ...
ROW 02 : ... .. . ... : D-3 12 . ... : A#3 05 . ... : ... .. . ... : ... .. . ...
ROW 03 : ... .. . ... : ... .. . ... : ... .. . ... : ... .. . ... : ... .. . ...
ROW 04 : A#1 0E . ... : D-2 12 . ... : ... .. . ... : 0-# 0B . ... : ... .. . ...
ROW 05 : ... .. . ... : ... .. . ... : ... .. . ... : ... .. . ... : ... .. . ...
ROW 06 : ... .. . ... : D-3 12 . ... : A#3 05 . ... : 9-# 0A . ... : ... .. . ...
ROW 07 : ... .. . ... : ... .. . ... : ... .. . ... : ... .. . ... : ... .. . ...
ROW 08 : D-2 0E . ... : A#1 12 . ... : ... .. . ... : 0-# 0B . ... : ... .. . ...
ROW 09 : ... .. . ... : ... .. . ... : ... .. . ... : ... .. . ... : ... .. . ...
ROW 0A : ... .. . ... : D-3 12 . ... : A#3 05 . ... : 9-# 0A . ... : ... .. . ...
ROW 0B : ... .. . ... : ... .. . ... : ... .. . ... : ... .. . ... : ... .. . ...
ROW 0C : A#1 0E . ... : D-2 12 . ... : ... .. . ... : 0-# 0B . ... : ... .. . ...
ROW 0D : ... .. . ... : ... .. . ... : ... .. . ... : ... .. . ... : ... .. . ...
ROW 0E : ... .. . ... : D-3 12 . ... : A#3 05 . ... : 9-# 0A . ... : ... .. . ...
ROW 0F : ... .. . ... : ... .. . ... : ... .. . ... : ... .. . ... : ... .. . ...
ROW 10 : G-2 0E . ... : A#1 12 . ... : ... .. . ... : 0-# 0B . ... : ... .. . ...
ROW 11 : ... .. . ... : ... .. . ... : ... .. . ... : ... .. . ... : ... .. . ...
ROW 12 : ... .. . ... : D-3 12 . ... : A#3 05 . ... : 9-# 0A . ... : ... .. . ...
ROW 13 : G-2 16 . ... : ... .. . ... : ... .. . ... : ... .. . ... : ... .. . ...
ROW 14 : G-2 0E . ... : D-2 12 . ... : ... .. . ... : 0-# 0B . ... : ... .. . ...
ROW 15 : ... .. . ... : ... .. . ... : ... .. . ... : ... .. . ... : ... .. . ...
ROW 16 : ... .. . ... : D-3 12 . ... : A#3 05 . ... : 9-# 0A . ... : ... .. . ...
ROW 17 : G-2 16 . ... : ... .. . ... : ... .. . ... : ... .. . ... : ... .. . ...
ROW 18 : G-2 0F . ... : A#1 12 . ... : ... .. . ... : 0-# 0B . ... : ... .. . ...
ROW 19 : ... .. . ... : ... .. . ... : ... .. . ... : ... .. . ... : ... .. . ...
ROW 1A : ... .. . ... : D-3 12 . ... : A#3 05 . ... : 9-# 0A . ... : ... .. . ...
ROW 1B : ... .. . ... : ... .. . ... : ... .. . ... : ... .. . ... : ... .. . ...
ROW 1C : ... .. . ... : D-3 12 . ... : A#3 05 . ... : 0-# 0B . ... : ... .. . ...
ROW 1D : ... .. . ... : ... .. . ... : ... .. . ... : ... .. . ... : ... .. . ...
ROW 1E : G-2 16 . ... : D-3 12 . ... : A#3 05 . ... : 9-# 0A . ... : ... .. . ...
ROW 1F : F-2 16 . ... : ... .. . ... : ... .. . ... : ... .. . ... : ... .. . ...
ROW 20 : E-2 0E . ... : G-2 12 . ... : ... .. . ... : 9-# 0A . ... : ... .. . ...
ROW 21 : ... .. . ... : ... .. . ... : ... .. . ... : ... .. . ... : ... .. . ...
ROW 22 : ... .. . ... : A#3 12 . ... : E-4 02 . ... : 9-# 0A . ... : ... .. . ...
ROW 23 : ... .. . ... : ... .. . ... : ... .. . ... : ... .. . ... : ... .. . ...
ROW 24 : A#2 0E . ... : C-2 12 . ... : ... .. . ... : 0-# 0B . ... : ... .. . ...
ROW 25 : ... .. . ... : ... .. . ... : ... .. . ... : ... .. . ... : ... .. . ...
ROW 26 : ... .. . ... : A#3 12 . ... : E-4 02 . ... : 9-# 0A . ... : ... .. . ...
ROW 27 : ... .. . ... : ... .. . ... : ... .. . ... : ... .. . ... : ... .. . ...
ROW 28 : A#2 0E . ... : G-2 12 . ... : ... .. . ... : 0-# 0B . ... : ... .. . ...
ROW 29 : ... .. . ... : ... .. . ... : ... .. . ... : ... .. . ... : ... .. . ...
ROW 2A : ... .. . ... : A#3 12 . ... : E-4 02 . ... : 9-# 0A . ... : ... .. . ...
ROW 2B : ... .. . ... : ... .. . ... : ... .. . ... : ... .. . ... : ... .. . ...
ROW 2C : D-3 0E . ... : C-2 12 . ... : ... .. . ... : 0-# 0B . ... : ... .. . ...
ROW 2D : ... .. . ... : ... .. . ... : ... .. . ... : ... .. . ... : ... .. . ...
ROW 2E : ... .. . ... : A#3 12 . ... : E-4 02 . ... : 9-# 0A . ... : ... .. . ...
ROW 2F : ... .. . ... : ... .. . ... : ... .. . ... : ... .. . ... : ... .. . ...
ROW 30 : C-3 0E . ... : F-2 12 . ... : ... .. . ... : 0-# 0B . ... : ... .. . ...
ROW 31 : ... .. . ... : ... .. . ... : ... .. . ... : ... .. . ... : ... .. . ...
ROW 32 : ... .. . ... : A-3 12 . ... : F-4 02 . ... : 9-# 0A . ... : ... .. . ...
ROW 33 : C-3 16 . ... : ... .. . ... : ... .. . ... : ... .. . ... : ... .. . ...
ROW 34 : C-3 0E . ... : F-2 12 . ... : ... .. . ... : 0-# 0B . ... : ... .. . ...
ROW 35 : ... .. . ... : ... .. . ... : ... .. . ... : ... .. . ... : ... .. . ...
ROW 36 : ... .. . ... : A-3 12 . ... : F-4 02 . ... : 9-# 0A . ... : ... .. . ...
ROW 37 : C-3 16 . ... : ... .. . ... : ... .. . ... : ... .. . ... : ... .. . ...
ROW 38 : C-3 0F . ... : F-2 12 . ... : ... .. . ... : 0-# 0B . ... : ... .. . ...
ROW 39 : ... .. . ... : ... .. . ... : ... .. . ... : ... .. . ... : ... .. . ...
ROW 3A : ... .. . ... : A-3 12 . ... : F-4 02 . ... : 9-# 0A . ... : ... .. . ...
ROW 3B : ... .. . ... : ... .. . ... : ... .. . ... : ... .. . ... : ... .. . ...
ROW 3C : D-3 0E . ... : A-3 12 . ... : F-4 02 . ... : 0-# 0B . ... : ... .. . ...
ROW 3D : C-3 16 . ... : ... .. . ... : ... .. . ... : ... .. . ... : ... .. . ...
ROW 3E : A#2 16 . ... : A-3 12 . ... : F-4 02 . ... : 9-# 0A . ... : ... .. . ...
ROW 3F : C-3 16 . ... : ... .. . ... : ... .. . ... : ... .. . ... : ... .. . ...

PATTERN 04
ROW 00 : D-3 0E . ... : A#2 12 . ... : ... .. . ... : 0-# 0B . ... : ... .. . ...
ROW 01 : ... .. . ... : ... .. . ... : ... .. . ... : ... .. . ... : ... .. . ...
ROW 02 : A#2 0E . ... : A#3 12 . ... : G-4 02 . ... : 9-# 0A . ... : ... .. . ...
ROW 03 : ... .. . ... : ... .. . ... : ... .. . ... : ... .. . ... : ... .. . ...
ROW 04 : G-2 16 . ... : A#2 12 . ... : ... .. . ... : 9-# 0A . ... : ... .. . ...
ROW 05 : ... .. . ... : ... .. . ... : ... .. . ... : ... .. . ... : ... .. . ...
ROW 06 : A-2 16 . ... : A#3 12 . ... : G-4 02 . ... : 9-# 0A . ... : ... .. . ...
ROW 07 : ... .. . ... : ... .. . ... : ... .. . ... : ... .. . ... : ... .. . ...
ROW 08 : A#2 16 . ... : C-2 12 . ... : ... .. . ... : 9-# 0A . ... : ... .. . ...
ROW 09 : ... .. . ... : ... .. . ... : ... .. . ... : ... .. . ... : ... .. . ...
ROW 0A : C-3 16 . ... : A#3 12 . ... : G-4 02 . ... : 9-# 0A . ... : ... .. . ...
ROW 0B : ... .. . ... : ... .. . ... : ... .. . ... : ... .. . ... : ... .. . ...
ROW 0C : D-3 16 . ... : C-2 12 . ... : ... .. . ... : 9-# 0A . ... : ... .. . ...
ROW 0D : ... .. . ... : ... .. . ... : ... .. . ... : ... .. . ... : ... .. . ...
ROW 0E : E-3 0E . ... : A#3 12 . ... : G-4 02 . ... : 9-# 0A . ... : ... .. . ...
ROW 0F : ... .. . ... : ... .. . ... : ... .. . ... : ... .. . ... : ... .. . ...
ROW 10 : F-3 0E . ... : A-3 12 . ... : F-4 02 . ... : 0-# 0B . ... : ... .. . ...
ROW 11 : ... .. . ... : ... .. . ... : ... .. . ... : ... .. . ... : ... .. . ...
ROW 12 : F-2 16 . ... : F-3 12 . ... : C-4 05 . ... : 9-# 0A . ... : ... .. . ...
ROW 13 : ... .. . ... : ... .. . ... : ... .. . ... : ... .. . ... : ... .. . ...
ROW 14 : F-2 16 . ... : F-3 12 . ... : C-4 05 . ... : 9-# 0A . ... : ... .. . ...
ROW 15 : ... .. . ... : ... .. . ... : ... .. . ... : ... .. . ... : ... .. . ...
ROW 16 : F-2 16 . ... : F-3 12 . ... : C-4 05 . ... : 9-# 0A . ... : ... .. . ...
ROW 17 : ... .. . ... : ... .. . ... : ... .. . ... : ... .. . ... : ... .. . ...
ROW 18 : F#2 16 . ... : F#3 12 . ... : ... .. . ... : 9-# 0A . ... : ... .. . ...
ROW 19 : ... .. . ... : ... .. . ... : ... .. . ... : ... .. . ... : ... .. . ...
ROW 1A : F-2 16 . ... : F-3 12 . ... : ... .. . ... : 9-# 0A . ... : ... .. . ...
ROW 1B : ... .. . ... : ... .. . ... : ... .. . ... : ... .. . ... : ... .. . ...
ROW 1C : G-2 16 . ... : G-3 12 . ... : ... .. . ... : 9-# 0A . ... : ... .. . ...
ROW 1D : ... .. . ... : ... .. . ... : ... .. . ... : ... .. . ... : ... .. . ...
ROW 1E : F-2 16 . ... : F-3 12 . ... : ... .. . ... : 9-# 0A . ... : ... .. . ...
ROW 1F : ... .. . D00 : ... .. . ... : ... .. . ... : ... .. . ... : ... .. . ...
ROW 20 : ... .. . ... : ... 12 . ... : ... .. . ... : 0-# 0B . ... : ... .. . ...
ROW 21 : ... .. . ... : ... .. . ... : ... .. . ... : ... .. . ... : ... .. . ...
ROW 22 : ... .. . ... : ... 12 . ... : ... .. . ... : 9-# 0A . ... : ... .. . ...
ROW 23 : ... .. . ... : ... .. . ... : ... .. . ... : ... .. . ... : ... .. . ...
ROW 24 : ... .. . ... : ... 12 . ... : ... .. . ... : 0-# 0B . ... : ... .. . ...
ROW 25 : ... .. . ... : ... .. . ... : ... .. . ... : ... .. . ... : ... .. . ...
ROW 26 : ... .. . ... : ... 12 . ... : ... .. . ... : 9-# 0A . ... : ... .. . ...
ROW 27 : ... .. . ... : ... .. . ... : ... .. . ... : ... .. . ... : ... .. . ...
ROW 28 : ... .. . ... : ... 12 . ... : ... .. . ... : 0-# 0B . ... : ... .. . ...
ROW 29 : ... .. . ... : ... .. . ... : ... .. . ... : ... .. . ... : ... .. . ...
ROW 2A : ... .. . ... : ... 12 . ... : ... .. . ... : --- 0A . ... : ... .. . ...
ROW 2B : ... .. . ... : ... .. . ... : ... .. . ... : ... .. . ... : ... .. . ...
ROW 2C : ... .. . ... : ... 12 . ... : ... .. . ... : ... .. . ... : ... .. . ...
ROW 2D : ... .. . ... : ... .. . ... : ... .. . ... : ... .. . ... : ... .. . ...
ROW 2E : ... .. . ... : ... 12 . ... : ... .. . ... : 9-# 0A . ... : ... .. . ...
ROW 2F : ... .. . ... : ... .. . ... : ... .. . ... : ... .. . ... : ... .. . ...
ROW 30 : ... .. . ... : ... 12 . ... : ... .. . ... : 0-# 0B . ... : ... .. . ...
ROW 31 : ... .. . ... : ... .. . ... : ... .. . ... : ... .. . ... : ... .. . ...
ROW 32 : ... .. . ... : ... 12 . ... : ... .. . ... : 9-# 0A . ... : ... .. . ...
ROW 33 : ... .. . ... : ... .. . ... : ... .. . ... : ... .. . ... : ... .. . ...
ROW 34 : ... .. . ... : ... 12 . ... : ... .. . ... : 0-# 0B . ... : ... .. . ...
ROW 35 : ... .. . ... : ... .. . ... : ... .. . ... : ... .. . ... : ... .. . ...
ROW 36 : ... .. . ... : ... 12 . ... : ... .. . ... : 9-# 0A . ... : ... .. . ...
ROW 37 : ... .. . ... : ... .. . ... : ... .. . ... : ... .. . ... : ... .. . ...
ROW 38 : ... .. . ... : ... 12 . ... : ... .. . ... : ... .. . ... : ... .. . ...
ROW 39 : ... .. . ... : ... .. . ... : ... .. . ... : ... .. . ... : ... .. . ...
ROW 3A : ... .. . ... : ... 12 . ... : ... .. . ... : ... .. . ... : ... .. . ...
ROW 3B : ... .. . ... : ... .. . ... : ... .. . ... : ... .. . ... : ... .. . ...
ROW 3C : ... .. . ... : ... 12 . ... : ... .. . ... : ... .. . ... : ... .. . ...
ROW 3D : ... .. . ... : ... .. . ... : ... .. . ... : ... .. . ... : ... .. . ...
ROW 3E : ... .. . ... : ... 12 . ... : ... .. . ... : ... .. . ... : ... .. . ...
ROW 3F : ... .. . ... : ... .. . ... : ... .. . ... : ... .. . ... : ... .. . ...

PATTERN 05
ROW 00 : G#2 0F . ... : F-3 12 . ... : D#4 05 . ... : ... .. . ... : ... .. . ...
ROW 01 : ... .. . ... : ... .. . ... : ... .. . ... : ... .. . ... : ... .. . ...
ROW 02 : ... .. . ... : F-3 12 . ... : D#4 05 . ... : ... .. . ... : ... .. . ...
ROW 03 : ... .. . ... : ... .. . ... : ... .. . ... : ... .. . ... : ... .. . ...
ROW 04 : ... .. . ... : F-3 12 . ... : D#4 05 . ... : ... .. . ... : ... .. . ...
ROW 05 : ... .. . ... : ... .. . ... : ... .. . ... : ... .. . ... : ... .. . ...
ROW 06 : F-2 0E . ... : F-3 12 . ... : ... .. . ... : ... .. . ... : ... .. . ...
ROW 07 : ... .. . ... : ... .. . ... : ... .. . ... : ... .. . ... : ... .. . ...
ROW 08 : F#2 0E . ... : F#3 12 . ... : ... .. . ... : ... .. . ... : ... .. . ...
ROW 09 : ... .. . ... : ... .. . ... : ... .. . ... : ... .. . ... : ... .. . ...
ROW 0A : F-2 0E . ... : F-3 12 . ... : ... .. . ... : ... .. . ... : ... .. . ...
ROW 0B : ... .. . ... : ... .. . ... : ... .. . ... : ... .. . ... : ... .. . ...
ROW 0C : G-2 0E . ... : G-3 12 . ... : ... .. . ... : ... .. . ... : ... .. . ...
ROW 0D : ... .. . ... : ... .. . ... : ... .. . ... : ... .. . ... : ... .. . ...
ROW 0E : F-2 0E . ... : F-3 12 . ... : ... .. . ... : ... .. . ... : ... .. . ...
ROW 0F : ... .. . ... : ... .. . ... : ... .. . ... : ... .. . ... : ... .. . ...
ROW 10 : A-2 0F . ... : F-3 12 . ... : C-4 05 . ... : ... .. . ... : ... .. . ...
ROW 11 : ... .. . ... : ... .. . ... : ... .. . ... : ... .. . ... : ... .. . ...
ROW 12 : ... .. . ... : F-3 12 . ... : C-4 05 . ... : ... .. . ... : ... .. . ...
ROW 13 : ... .. . ... : ... .. . ... : ... .. . ... : ... .. . ... : ... .. . ...
ROW 14 : ... .. . ... : F-3 12 . ... : C-4 05 . ... : ... .. . ... : ... .. . ...
ROW 15 : ... .. . ... : ... .. . ... : ... .. . ... : ... .. . ... : ... .. . ...
ROW 16 : F-2 0E . ... : F-3 12 . ... : ... .. . ... : ... .. . ... : ... .. . ...
ROW 17 : ... .. . ... : ... .. . ... : ... .. . ... : ... .. . ... : ... .. . ...
ROW 18 : B-2 0E . ... : G#3 12 . ... : F-4 02 . ... : ... .. . ... : ... .. . ...
ROW 19 : ... .. . ... : ... .. . ... : ... .. . ... : ... .. . ... : ... .. . ...
ROW 1A : ... .. . ... : ... .. . ... : ... .. . ... : ... .. . ... : ... .. . ...
ROW 1B : ... .. . ... : ... .. . ... : ... .. . ... : ... .. . ... : ... .. . ...
ROW 1C : F-2 16 . ... : D-2 12 . ... : B-2 05 . ... : ... .. . ... : ... .. . ...
ROW 1D : ... .. . ... : ... .. . ... : ... .. . ... : ... .. . ... : ... .. . ...
ROW 1E : ... .. . ... : ... .. . ... : ... .. . ... : ... .. . ... : ... .. . ...
ROW 1F : ... .. . ... : ... .. . ... : ... .. . ... : ... .. . ... : ... .. . ...
ROW 20 : B-2 0E . ... : G#3 12 . ... : F-4 02 . ... : ... .. . ... : ... .. . ...
ROW 21 : ... .. . ... : ... .. . ... : ... .. . ... : ... .. . ... : ... .. . ...
ROW 22 : ... .. . ... : ... .. . ... : ... .. . ... : ... .. . ... : ... .. . ...
ROW 23 : ... .. . ... : ... .. . ... : ... .. . ... : ... .. . ... : ... .. . ...
ROW 24 : F-2 16 . ... : D-2 12 . ... : B-2 05 . ... : ... .. . ... : ... .. . ...
ROW 25 : ... .. . ... : ... .. . ... : ... .. . ... : ... .. . ... : ... .. . ...
ROW 26 : ... .. . ... : ... .. . ... : ... .. . ... : ... .. . ... : ... .. . ...
ROW 27 : ... .. . ... : ... .. . ... : ... .. . ... : ... .. . ... : ... .. . ...
ROW 28 : C-3 0F . ... : A-3 12 . ... : D#3 05 . ... : ... .. . ... : ... .. . ...
ROW 29 : ... .. . ... : ... .. . ... : ... .. . ... : ... .. . ... : ... .. . ...
ROW 2A : ... .. . ... : ... .. . ... : ... .. . ... : ... .. . ... : ... .. . ...
ROW 2B : ... .. . ... : ... .. . ... : ... .. . ... : ... .. . ... : ... .. . ...
ROW 2C : --- .. . ... : ... .. . ... : ... .. . ... : ... .. . ... : ... .. . ...
ROW 2D : ... .. . ... : ... .. . ... : ... .. . ... : ... .. . ... : ... .. . ...
ROW 2E : G-3 0E . ... : ... .. . ... : ... .. . ... : ... .. . ... : ... .. . ...
ROW 2F : ... .. . ... : ... .. . ... : ... .. . ... : ... .. . ... : ... .. . ...
ROW 30 : F-3 0E . ... : ... .. . ... : ... .. . ... : ... .. . ... : ... .. . ...
ROW 31 : ... .. . ... : ... .. . ... : ... .. . ... : ... .. . ... : ... .. . ...
ROW 32 : D#3 0E . ... : ... .. . ... : ... .. . ... : ... .. . ... : ... .. . ...
ROW 33 : ... .. . ... : ... .. . ... : ... .. . ... : ... .. . ... : ... .. . ...
ROW 34 : D-3 0E . ... : ... .. . ... : ... .. . ... : ... .. . ... : ... .. . ...
ROW 35 : ... .. . ... : ... .. . ... : ... .. . ... : ... .. . ... : ... .. . ...
ROW 36 : C-3 16 . ... : ... .. . ... : ... .. . ... : ... .. . ... : ... .. . ...
ROW 37 : ... .. . D00 : ... .. . ... : ... .. . ... : ... .. . ... : ... .. . ...
ROW 38 : ... .. . ... : ... 12 . ... : ... .. . ... : ... .. . ... : ... .. . ...
ROW 39 : ... .. . ... : ... .. . ... : ... .. . ... : ... .. . ... : ... .. . ...
ROW 3A : ... .. . ... : ... 12 . ... : ... .. . ... : ... .. . ... : ... .. . ...
ROW 3B : ... .. . ... : ... .. . ... : ... .. . ... : ... .. . ... : ... .. . ...
ROW 3C : ... .. . ... : ... 12 . ... : ... .. . ... : ... .. . ... : ... .. . ...
ROW 3D : ... .. . ... : ... .. . ... : ... .. . ... : ... .. . ... : ... .. . ...
ROW 3E : ... .. . ... : ... 12 . ... : ... .. . ... : ... .. . ... : ... .. . ...
ROW 3F : ... .. . ... : ... .. . ... : ... .. . ... : ... .. . ... : ... .. . ...

PATTERN 06
ROW 00 : D#3 0E . ... : A#1 12 . ... : ... .. . ... : ... .. . ... : ... .. . ...
ROW 01 : ... .. . ... : ... .. . ... : ... .. . ... : ... .. . ... : ... .. . ...
ROW 02 : ... .. . ... : A#2 12 . ... : F-3 05 . ... : ... .. . ... : ... .. . ...
ROW 03 : ... .. . ... : ... .. . ... : ... .. . ... : ... .. . ... : ... .. . ...
ROW 04 : D-3 0E . ... : A#1 12 . ... : ... .. . ... : ... .. . ... : ... .. . ...
ROW 05 : ... .. . ... : ... .. . ... : ... .. . ... : ... .. . ... : ... .. . ...
ROW 06 : ... .. . ... : A#2 12 . ... : F-3 05 . ... : ... .. . ... : ... .. . ...
ROW 07 : ... .. . ... : ... .. . ... : ... .. . ... : ... .. . ... : ... .. . ...
ROW 08 : C-3 0E . ... : A#1 12 . ... : ... .. . ... : ... .. . ... : ... .. . ...
ROW 09 : ... .. . ... : ... .. . ... : ... .. . ... : ... .. . ... : ... .. . ...
ROW 0A : ... .. . ... : A#2 12 . ... : F-3 05 . ... : ... .. . ... : ... .. . ...
ROW 0B : ... .. . ... : ... .. . ... : ... .. . ... : ... .. . ... : ... .. . ...
ROW 0C : A#2 0E . ... : A#1 12 . ... : ... .. . ... : ... .. . ... : ... .. . ...
ROW 0D : ... .. . ... : ... .. . ... : ... .. . ... : ... .. . ... : ... .. . ...
ROW 0E : ... .. . ... : A#2 12 . ... : F-3 05 . ... : ... .. . ... : ... .. . ...
ROW 0F : ... .. . ... : ... .. . ... : ... .. . ... : ... .. . ... : ... .. . ...
ROW 10 : A-2 16 . ... : D#2 12 . ... : ... .. . ... : ... .. . ... : ... .. . ...
ROW 11 : ... .. . ... : ... .. . ... : ... .. . ... : ... .. . ... : ... .. . ...
ROW 12 : ... .. . ... : D#3 12 . ... : C-4 05 . ... : ... .. . ... : ... .. . ...
ROW 13 : ... .. . ... : ... .. . ... : ... .. . ... : ... .. . ... : ... .. . ...
ROW 14 : G-2 16 . ... : D#2 12 . ... : ... .. . ... : ... .. . ... : ... .. . ...
ROW 15 : ... .. . ... : ... .. . ... : ... .. . ... : ... .. . ... : ... .. . ...
ROW 16 : ... .. . ... : D#3 12 . ... : C-4 05 . ... : ... .. . ... : ... .. . ...
ROW 17 : ... .. . ... : ... .. . ... : ... .. . ... : ... .. . ... : ... .. . ...
ROW 18 : F#2 16 . ... : D#2 12 . ... : ... .. . ... : ... .. . ... : ... .. . ...
ROW 19 : ... .. . ... : ... .. . ... : ... .. . ... : ... .. . ... : ... .. . ...
ROW 1A : ... .. . ... : D#3 12 . ... : C-4 05 . ... : ... .. . ... : ... .. . ...
ROW 1B : ... .. . ... : ... .. . ... : ... .. . ... : ... .. . ... : ... .. . ...
ROW 1C : G-2 16 . ... : D#2 12 . ... : ... .. . ... : ... .. . ... : ... .. . ...
ROW 1D : ... .. . ... : ... .. . ... : ... .. . ... : ... .. . ... : ... .. . ...
ROW 1E : ... .. . ... : D#3 12 . ... : C-4 05 . ... : ... .. . ... : ... .. . ...
ROW 1F : ... .. . ... : ... .. . ... : ... .. . ... : ... .. . ... : ... .. . ...
ROW 20 : F-2 0E . ... : F-2 12 . ... : ... .. . ... : ... .. . ... : ... .. . ...
ROW 21 : ... .. . ... : ... .. . ... : ... .. . ... : ... .. . ... : ... .. . ...
ROW 22 : ... .. . ... : F-3 12 . ... : D#4 05 . ... : ... .. . ... : ... .. . ...
ROW 23 : ... .. . ... : ... .. . ... : ... .. . ... : ... .. . ... : ... .. . ...
ROW 24 : D#3 0E . ... : F-2 12 . ... : ... .. . ... : ... .. . ... : ... .. . ...
ROW 25 : ... .. . ... : ... .. . ... : ... .. . ... : ... .. . ... : ... .. . ...
ROW 26 : ... .. . ... : F-3 12 . ... : D#4 05 . ... : ... .. . ... : ... .. . ...
ROW 27 : A-2 16 . ... : ... .. . ... : ... .. . ... : ... .. . ... : ... .. . ...
ROW 28 : A-2 0F . ... : F-2 12 . ... : ... .. . ... : ... .. . ... : ... .. . ...
ROW 29 : ... .. . ... : ... .. . ... : ... .. . ... : ... .. . ... : ... .. . ...
ROW 2A : ... .. . ... : C-3 12 . ... : C-3 05 . ... : ... .. . ... : ... .. . ...
ROW 2B : ... .. . ... : ... .. . ... : ... .. . ... : ... .. . ... : ... .. . ...
ROW 2C : ... .. . ... : A-2 12 . ... : A-2 05 . ... : ... .. . ... : ... .. . ...
ROW 2D : ... .. . ... : ... .. . ... : ... .. . ... : ... .. . ... : ... .. . ...
ROW 2E : ... .. . ... : F-2 12 . ... : F-2 05 . ... : ... .. . ... : ... .. . ...
ROW 2F : ... .. . ... : ... .. . ... : ... .. . ... : ... .. . ... : ... .. . ...
ROW 30 : F-2 16 . ... : A#1 12 . ... : ... .. . ... : ... .. . ... : ... .. . ...
ROW 31 : ... .. . ... : ... .. . ... : ... .. . ... : ... .. . ... : ... .. . ...
ROW 32 : ... .. . ... : A#2 12 . ... : F-3 05 . ... : ... .. . ... : ... .. . ...
ROW 33 : ... .. . ... : ... .. . ... : ... .. . ... : ... .. . ... : ... .. . ...
ROW 34 : D-3 0E . ... : A#1 12 . ... : ... .. . ... : ... .. . ... : ... .. . ...
ROW 35 : ... .. . ... : ... .. . ... : ... .. . ... : ... .. . ... : ... .. . ...
ROW 36 : ... .. . ... : A#2 12 . ... : F-3 05 . ... : ... .. . ... : ... .. . ...
ROW 37 : A#2 16 . ... : ... .. . ... : ... .. . ... : ... .. . ... : ... .. . ...
ROW 38 : A#2 0E . ... : A#1 12 . ... : ... .. . ... : ... .. . ... : ... .. . ...
ROW 39 : ... .. . ... : ... .. . ... : ... .. . ... : ... .. . ... : ... .. . ...
ROW 3A : F-3 16 . ... : A#2 12 . ... : A#3 05 . ... : ... .. . ... : ... .. . ...
ROW 3B : ... .. . ... : ... .. . ... : ... .. . ... : ... .. . ... : ... .. . ...
ROW 3C : G-3 0E . ... : A#2 12 . ... : A#3 05 . ... : ... .. . ... : ... .. . ...
ROW 3D : ... .. . ... : ... .. . ... : ... .. . ... : ... .. . ... : ... .. . ...
ROW 3E : F-3 0E . ... : A#2 12 . ... : A#3 05 . ... : ... .. . ... : ... .. . ...
ROW 3F : ... .. . ... : ... .. . ... : ... .. . ... : ... .. . ... : ... .. . ...

PATTERN 07
ROW 00 : D#3 0E . ... : A#1 12 . ... : ... .. . ... : ... .. . ... : ... .. . ...
ROW 01 : ... .. . ... : ... .. . ... : ... .. . ... : ... .. . ... : ... .. . ...
ROW 02 : ... .. . ... : A#2 12 . ... : F-3 05 . ... : ... .. . ... : ... .. . ...
ROW 03 : ... .. . ... : ... .. . ... : ... .. . ... : ... .. . ... : ... .. . ...
ROW 04 : D-3 0E . ... : A#1 12 . ... : ... .. . ... : ... .. . ... : ... .. . ...
ROW 05 : ... .. . ... : ... .. . ... : ... .. . ... : ... .. . ... : ... .. . ...
ROW 06 : ... .. . ... : A#2 12 . ... : F-3 05 . ... : ... .. . ... : ... .. . ...
ROW 07 : ... .. . ... : ... .. . ... : ... .. . ... : ... .. . ... : ... .. . ...
ROW 08 : C-3 16 . ... : A#1 12 . ... : ... .. . ... : ... .. . ... : ... .. . ...
ROW 09 : ... .. . ... : ... .. . ... : ... .. . ... : ... .. . ... : ... .. . ...
ROW 0A : ... .. . ... : A#2 12 . ... : F-3 05 . ... : ... .. . ... : ... .. . ...
ROW 0B : ... .. . ... : ... .. . ... : ... .. . ... : ... .. . ... : ... .. . ...
ROW 0C : A#2 16 . ... : A#1 12 . ... : ... .. . ... : ... .. . ... : ... .. . ...
ROW 0D : ... .. . ... : ... .. . ... : ... .. . ... : ... .. . ... : ... .. . ...
ROW 0E : ... .. . ... : A#2 12 . ... : F-3 05 . ... : ... .. . ... : ... .. . ...
ROW 0F : ... .. . ... : ... .. . ... : ... .. . ... : ... .. . ... : ... .. . ...
ROW 10 : A-2 16 . ... : D#2 12 . ... : ... .. . ... : ... .. . ... : ... .. . ...
ROW 11 : ... .. . ... : ... .. . ... : ... .. . ... : ... .. . ... : ... .. . ...
ROW 12 : ... .. . ... : D#3 12 . ... : C-4 05 . ... : ... .. . ... : ... .. . ...
ROW 13 : ... .. . ... : ... .. . ... : ... .. . ... : ... .. . ... : ... .. . ...
ROW 14 : G-2 16 . ... : D#2 12 . ... : ... .. . ... : ... .. . ... : ... .. . ...
ROW 15 : ... .. . ... : ... .. . ... : ... .. . ... : ... .. . ... : ... .. . ...
ROW 16 : ... .. . ... : D#3 12 . ... : C-4 05 . ... : ... .. . ... : ... .. . ...
ROW 17 : ... .. . ... : ... .. . ... : ... .. . ... : ... .. . ... : ... .. . ...
ROW 18 : F#2 16 . ... : D#2 12 . ... : ... .. . ... : ... .. . ... : ... .. . ...
ROW 19 : ... .. . ... : ... .. . ... : ... .. . ... : ... .. . ... : ... .. . ...
ROW 1A : ... .. . ... : D#3 12 . ... : C-4 05 . ... : ... .. . ... : ... .. . ...
ROW 1B : ... .. . ... : ... .. . ... : ... .. . ... : ... .. . ... : ... .. . ...
ROW 1C : G-2 16 . ... : D#2 12 . ... : ... .. . ... : ... .. . ... : ... .. . ...
ROW 1D : ... .. . ... : ... .. . ... : ... .. . ... : ... .. . ... : ... .. . ...
ROW 1E : ... .. . ... : D#3 12 . ... : C-4 05 . ... : ... .. . ... : ... .. . ...
ROW 1F : ... .. . ... : ... .. . ... : ... .. . ... : ... .. . ... : ... .. . ...
ROW 20 : F-2 16 . ... : F-3 12 . ... : D-4 05 . ... : ... .. . ... : ... .. . ...
ROW 21 : ... .. . ... : ... .. . ... : ... .. . ... : ... .. . ... : ... .. . ...
ROW 22 : ... .. . ... : --- 12 . ... : ... .. . ... : ... .. . ... : ... .. . ...
ROW 23 : ... .. . ... : ... .. . ... : ... .. . ... : ... .. . ... : ... .. . ...
ROW 24 : D-3 0E . ... : F-3 12 . ... : ... .. . ... : ... .. . ... : ... .. . ...
ROW 25 : ... .. . ... : ... .. . ... : ... .. . ... : ... .. . ... : ... .. . ...
ROW 26 : ... .. . ... : --- 12 . ... : ... .. . ... : ... .. . ... : ... .. . ...
ROW 27 : A#2 16 . ... : ... .. . ... : ... .. . ... : ... .. . ... : ... .. . ...
ROW 28 : F-2 0E . ... : F-2 12 . ... : D-4 05 . ... : ... .. . ... : ... .. . ...
ROW 29 : ... .. . ... : ... .. . ... : ... .. . ... : ... .. . ... : ... .. . ...
ROW 2A : ... .. . ... : D#3 12 . ... : ... .. . ... : ... .. . ... : ... .. . ...
ROW 2B : ... .. . ... : ... .. . ... : ... .. . ... : ... .. . ... : ... .. . ...
ROW 2C : F-3 0E . ... : F-2 12 . ... : ... .. . ... : ... .. . ... : ... .. . ...
ROW 2D : ... .. . ... : ... .. . ... : ... .. . ... : ... .. . ... : ... .. . ...
ROW 2E : ... .. . ... : D#3 12 . ... : ... .. . ... : ... .. . ... : ... .. . ...
ROW 2F : D-3 16 . ... : ... .. . ... : ... .. . ... : ... .. . ... : ... .. . ...
ROW 30 : G-3 0E . ... : D-3 12 . ... : ... .. . ... : ... .. . ... : ... .. . ...
ROW 31 : ... .. . ... : ... .. . ... : ... .. . ... : ... .. . ... : ... .. . ...
ROW 32 : F-3 0E . ... : ... .. . ... : A-3 05 . ... : ... .. . ... : ... .. . ...
ROW 33 : ... .. . ... : ... .. . ... : ... .. . ... : ... .. . ... : ... .. . ...
ROW 34 : C-3 16 . ... : ... .. . ... : ... .. . ... : ... .. . ... : ... .. . ...
ROW 35 : ... .. . ... : ... .. . ... : ... .. . ... : ... .. . ... : ... .. . ...
ROW 36 : D-3 16 . ... : ... .. . ... : A-3 05 . ... : ... .. . ... : ... .. . ...
ROW 37 : ... .. . ... : ... .. . ... : ... .. . ... : ... .. . ... : ... .. . ...
ROW 38 : A#2 0E . ... : A#1 12 . ... : A#3 05 . ... : ... .. . ... : ... .. . ...
ROW 39 : ... .. . ... : ... .. . ... : ... .. . ... : ... .. . ... : ... .. . ...
ROW 3A : F-3 0E . ... : A#2 12 . ... : ... .. . ... : ... .. . ... : ... .. . ...
ROW 3B : ... .. . ... : ... .. . ... : ... .. . ... : ... .. . ... : ... .. . ...
ROW 3C : G-3 0E . ... : A#2 12 . ... : ... .. . ... : ... .. . ... : ... .. . ...
ROW 3D : ... .. . ... : ... .. . ... : ... .. . ... : ... .. . ... : ... .. . ...
ROW 3E : F-3 0E . ... : A#2 12 . ... : ... .. . ... : ... .. . ... : ... .. . ...
ROW 3F : ... .. . ... : ... .. . ... : ... .. . ... : ... .. . ... : ... .. . ...

PATTERN 08
ROW 00 : D#3 0E . ... : A#1 12 . ... : ... .. . ... : ... .. . ... : ... .. . ...
ROW 01 : ... .. . ... : ... .. . ... : ... .. . ... : ... .. . ... : ... .. . ...
ROW 02 : ... .. . ... : A#2 12 . ... : F-3 05 . ... : ... .. . ... : ... .. . ...
ROW 03 : ... .. . ... : ... .. . ... : ... .. . ... : ... .. . ... : ... .. . ...
ROW 04 : D-3 0E . ... : A#1 12 . ... : ... .. . ... : ... .. . ... : ... .. . ...
ROW 05 : ... .. . ... : ... .. . ... : ... .. . ... : ... .. . ... : ... .. . ...
ROW 06 : ... .. . ... : A#2 12 . ... : F-3 05 . ... : ... .. . ... : ... .. . ...
ROW 07 : ... .. . ... : ... .. . ... : ... .. . ... : ... .. . ... : ... .. . ...
ROW 08 : C-3 16 . ... : A#1 12 . ... : ... .. . ... : ... .. . ... : ... .. . ...
ROW 09 : ... .. . ... : ... .. . ... : ... .. . ... : ... .. . ... : ... .. . ...
ROW 0A : ... .. . ... : A#2 12 . ... : F-3 05 . ... : ... .. . ... : ... .. . ...
ROW 0B : ... .. . ... : ... .. . ... : ... .. . ... : ... .. . ... : ... .. . ...
ROW 0C : A#2 16 . ... : A#1 12 . ... : ... .. . ... : ... .. . ... : ... .. . ...
ROW 0D : ... .. . ... : ... .. . ... : ... .. . ... : ... .. . ... : ... .. . ...
ROW 0E : ... .. . ... : A#2 12 . ... : F-3 05 . ... : ... .. . ... : ... .. . ...
ROW 0F : ... .. . ... : ... .. . ... : ... .. . ... : ... .. . ... : ... .. . ...
ROW 10 : A-2 16 . ... : D#2 12 . ... : ... .. . ... : ... .. . ... : ... .. . ...
ROW 11 : ... .. . ... : ... .. . ... : ... .. . ... : ... .. . ... : ... .. . ...
ROW 12 : ... .. . ... : D#3 12 . ... : C-4 05 . ... : ... .. . ... : ... .. . ...
ROW 13 : ... .. . ... : ... .. . ... : ... .. . ... : ... .. . ... : ... .. . ...
ROW 14 : G-2 16 . ... : D#2 12 . ... : ... .. . ... : ... .. . ... : ... .. . ...
ROW 15 : ... .. . ... : ... .. . ... : ... .. . ... : ... .. . ... : ... .. . ...
ROW 16 : ... .. . ... : D#3 12 . ... : C-4 05 . ... : ... .. . ... : ... .. . ...
ROW 17 : ... .. . ... : ... .. . ... : ... .. . ... : ... .. . ... : ... .. . ...
ROW 18 : F#2 16 . ... : D#2 12 . ... : ... .. . ... : ... .. . ... : ... .. . ...
ROW 19 : ... .. . ... : ... .. . ... : ... .. . ... : ... .. . ... : ... .. . ...
ROW 1A : ... .. . ... : D#3 12 . ... : C-4 05 . ... : ... .. . ... : ... .. . ...
ROW 1B : ... .. . ... : ... .. . ... : ... .. . ... : ... .. . ... : ... .. . ...
ROW 1C : G-2 16 . ... : D#2 12 . ... : ... .. . ... : ... .. . ... : ... .. . ...
ROW 1D : ... .. . ... : ... .. . ... : ... .. . ... : ... .. . ... : ... .. . ...
ROW 1E : ... .. . ... : D#3 12 . ... : C-4 05 . ... : ... .. . ... : ... .. . ...
ROW 1F : ... .. . ... : ... .. . ... : ... .. . ... : ... .. . ... : ... .. . ...
ROW 20 : F-2 16 . ... : F-3 12 . ... : ... .. . ... : ... .. . ... : ... .. . ...
ROW 21 : ... .. . ... : ... .. . ... : ... .. . ... : ... .. . ... : ... .. . ...
ROW 22 : ... .. . ... : ... .. . ... : D#4 05 . ... : ... .. . ... : ... .. . ...
ROW 23 : ... .. . ... : ... .. . ... : ... .. . ... : ... .. . ... : ... .. . ...
ROW 24 : D#3 0E . ... : ... .. . ... : ... .. . ... : ... .. . ... : ... .. . ...
ROW 25 : ... .. . ... : ... .. . ... : ... .. . ... : ... .. . ... : ... .. . ...
ROW 26 : ... .. . ... : ... .. . ... : D#4 05 . ... : ... .. . ... : ... .. . ...
ROW 27 : A-2 16 . ... : ... .. . ... : ... .. . ... : ... .. . ... : ... .. . ...
ROW 28 : A-2 0F . ... : F-3 12 . ... : ... .. . ... : ... .. . ... : ... .. . ...
ROW 29 : ... .. . ... : ... .. . ... : ... .. . ... : ... .. . ... : ... .. . ...
ROW 2A : ... .. . ... : ... .. . ... : C-3 05 . ... : ... .. . ... : ... .. . ...
ROW 2B : ... .. . ... : ... .. . ... : ... .. . ... : ... .. . ... : ... .. . ...
ROW 2C : ... .. . ... : ... .. . ... : A-2 05 . ... : ... .. . ... : ... .. . ...
ROW 2D : ... .. . ... : ... .. . ... : ... .. . ... : ... .. . ... : ... .. . ...
ROW 2E : ... .. . ... : ... .. . ... : F-2 05 . ... : ... .. . ... : ... .. . ...
ROW 2F : ... .. . ... : ... .. . ... : ... .. . ... : ... .. . ... : ... .. . ...
ROW 30 : F-2 16 . ... : A#1 12 . ... : ... .. . ... : ... .. . ... : ... .. . ...
ROW 31 : ... .. . ... : ... .. . ... : ... .. . ... : ... .. . ... : ... .. . ...
ROW 32 : ... .. . ... : A#2 12 . ... : F-3 05 . ... : ... .. . ... : ... .. . ...
ROW 33 : ... .. . ... : ... .. . ... : ... .. . ... : ... .. . ... : ... .. . ...
ROW 34 : D#3 0E . ... : A#1 12 . ... : ... .. . ... : ... .. . ... : ... .. . ...
ROW 35 : ... .. . ... : ... .. . ... : ... .. . ... : ... .. . ... : ... .. . ...
ROW 36 : ... .. . ... : A#2 12 . ... : F-3 05 . ... : ... .. . ... : ... .. . ...
ROW 37 : A#2 16 . ... : ... .. . ... : ... .. . ... : ... .. . ... : ... .. . ...
ROW 38 : A#2 0E . ... : A#1 12 . ... : ... .. . ... : ... .. . ... : ... .. . ...
ROW 39 : ... .. . ... : ... .. . ... : ... .. . ... : ... .. . ... : ... .. . ...
ROW 3A : F-3 0E . ... : A#2 12 . ... : A#3 05 . ... : ... .. . ... : ... .. . ...
ROW 3B : ... .. . ... : ... .. . ... : ... .. . ... : ... .. . ... : ... .. . ...
ROW 3C : G-3 0E . ... : A#2 12 . ... : A#3 05 . ... : ... .. . ... : ... .. . ...
ROW 3D : ... .. . ... : ... .. . ... : ... .. . ... : ... .. . ... : ... .. . ...
ROW 3E : F-3 0E . ... : ... .. . ... : A#3 05 . ... : ... .. . ... : ... .. . ...
ROW 3F : ... .. . ... : ... .. . ... : ... .. . ... : ... .. . ... : ... .. . ...

PATTERN 09
ROW 00 : D#3 0E . ... : ... .. . ... : ... .. . ... : ... .. . ... : ... .. . ...
ROW 01 : ... .. . ... : ... .. . ... : ... .. . ... : ... .. . ... : ... .. . ...
ROW 02 : ... .. . ... : ... .. . ... : F-3 05 . ... : ... .. . ... : ... .. . ...
ROW 03 : ... .. . ... : ... .. . ... : ... .. . ... : ... .. . ... : ... .. . ...
ROW 04 : D-3 0E . ... : ... .. . ... : ... .. . ... : ... .. . ... : ... .. . ...
ROW 05 : ... .. . ... : ... .. . ... : ... .. . ... : ... .. . ... : ... .. . ...
ROW 06 : ... .. . ... : ... .. . ... : F-3 05 . ... : ... .. . ... : ... .. . ...
ROW 07 : ... .. . ... : ... .. . ... : ... .. . ... : ... .. . ... : ... .. . ...
ROW 08 : C-3 16 . ... : ... .. . ... : ... .. . ... : ... .. . ... : ... .. . ...
ROW 09 : ... .. . ... : ... .. . ... : ... .. . ... : ... .. . ... : ... .. . ...
ROW 0A : ... .. . ... : ... .. . ... : F-3 05 . ... : ... .. . ... : ... .. . ...
ROW 0B : ... .. . ... : ... .. . ... : ... .. . ... : ... .. . ... : ... .. . ...
ROW 0C : A#2 16 . ... : ... .. . ... : ... .. . ... : ... .. . ... : ... .. . ...
ROW 0D : ... .. . ... : ... .. . ... : ... .. . ... : ... .. . ... : ... .. . ...
ROW 0E : ... .. . ... : ... .. . ... : F-3 05 . ... : ... .. . ... : ... .. . ...
ROW 0F : ... .. . ... : ... .. . ... : ... .. . ... : ... .. . ... : ... .. . ...
ROW 10 : A-2 16 . ... : ... .. . ... : ... .. . ... : ... .. . ... : ... .. . ...
ROW 11 : ... .. . ... : ... .. . ... : ... .. . ... : ... .. . ... : ... .. . ...
ROW 12 : ... .. . ... : ... .. . ... : C-4 05 . ... : ... .. . ... : ... .. . ...
ROW 13 : ... .. . ... : ... .. . ... : ... .. . ... : ... .. . ... : ... .. . ...
ROW 14 : G-2 16 . ... : ... .. . ... : ... .. . ... : ... .. . ... : ... .. . ...
ROW 15 : ... .. . ... : ... .. . ... : ... .. . ... : ... .. . ... : ... .. . ...
ROW 16 : ... .. . ... : ... .. . ... : C-4 05 . ... : ... .. . ... : ... .. . ...
ROW 17 : ... .. . ... : ... .. . ... : ... .. . ... : ... .. . ... : ... .. . ...
ROW 18 : F#2 16 . ... : ... .. . ... : ... .. . ... : ... .. . ... : ... .. . ...
ROW 19 : ... .. . ... : ... .. . ... : ... .. . ... : ... .. . ... : ... .. . ...
ROW 1A : ... .. . ... : ... .. . ... : C-4 05 . ... : ... .. . ... : ... .. . ...
ROW 1B : ... .. . ... : ... .. . ... : ... .. . ... : ... .. . ... : ... .. . ...
ROW 1C : G-2 16 . ... : ... .. . ... : ... .. . ... : ... .. . ... : ... .. . ...
ROW 1D : ... .. . ... : ... .. . ... : ... .. . ... : ... .. . ... : ... .. . ...
ROW 1E : ... .. . ... : ... .. . ... : C-4 05 . ... : ... .. . ... : ... .. . ...
ROW 1F : ... .. . ... : ... .. . ... : ... .. . ... : ... .. . ... : ... .. . ...
ROW 20 : F-2 16 . ... : ... .. . ... : D-4 05 . ... : ... .. . ... : ... .. . ...
ROW 21 : ... .. . ... : ... .. . ... : ... .. . ... : ... .. . ... : ... .. . ...
ROW 22 : ... .. . ... : ... .. . ... : ... .. . ... : ... .. . ... : ... .. . ...
ROW 23 : ... .. . ... : ... .. . ... : ... .. . ... : ... .. . ... : ... .. . ...
ROW 24 : D#3 0E . ... : ... .. . ... : ... .. . ... : ... .. . ... : ... .. . ...
ROW 25 : ... .. . ... : ... .. . ... : ... .. . ... : ... .. . ... : ... .. . ...
ROW 26 : ... .. . ... : ... .. . ... : ... .. . ... : ... .. . ... : ... .. . ...
ROW 27 : A#2 16 . ... : ... .. . ... : ... .. . ... : ... .. . ... : ... .. . ...
ROW 28 : F-2 0E . ... : ... .. . ... : D-4 05 . ... : ... .. . ... : ... .. . ...
ROW 29 : ... .. . ... : ... .. . ... : ... .. . ... : ... .. . ... : ... .. . ...
ROW 2A : ... .. . ... : ... .. . ... : ... .. . ... : ... .. . ... : ... .. . ...
ROW 2B : ... .. . ... : ... .. . ... : ... .. . ... : ... .. . ... : ... .. . ...
ROW 2C : F-3 0E . ... : ... .. . ... : ... .. . ... : ... .. . ... : ... .. . ...
ROW 2D : ... .. . ... : ... .. . ... : ... .. . ... : ... .. . ... : ... .. . ...
ROW 2E : ... .. . ... : ... .. . ... : ... .. . ... : ... .. . ... : ... .. . ...
ROW 2F : D-3 16 . ... : ... .. . ... : ... .. . ... : ... .. . ... : ... .. . ...
ROW 30 : G-3 0E . ... : ... .. . ... : ... .. . ... : ... .. . ... : ... .. . ...
ROW 31 : ... .. . ... : ... .. . ... : ... .. . ... : ... .. . ... : ... .. . ...
ROW 32 : F-3 0E . ... : ... .. . ... : A-3 05 . ... : ... .. . ... : ... .. . ...
ROW 33 : ... .. . ... : ... .. . ... : ... .. . ... : ... .. . ... : ... .. . ...
ROW 34 : C-3 0E . ... : ... .. . ... : ... .. . ... : ... .. . ... : ... .. . ...
ROW 35 : ... .. . ... : ... .. . ... : ... .. . ... : ... .. . ... : ... .. . ...
ROW 36 : D-3 16 . ... : ... .. . ... : A-3 05 . ... : ... .. . ... : ... .. . ...
ROW 37 : ... .. . ... : ... .. . ... : ... .. . ... : ... .. . ... : ... .. . ...
ROW 38 : A#2 16 . ... : ... .. . ... : A#3 05 . ... : ... .. . ... : ... .. . ...
ROW 39 : ... .. . ... : ... .. . ... : ... .. . ... : ... .. . ... : ... .. . ...
ROW 3A : A#2 16 . ... : ... .. . ... : A#3 05 . ... : ... .. . ... : ... .. . ...
ROW 3B : ... .. . ... : ... .. . ... : ... .. . ... : ... .. . ... : ... .. . ...
ROW 3C : A#2 0F . ... : ... .. . ... : A#3 05 . ... : ... .. . ... : ... .. . ...
ROW 3D : ... .. . ... : ... .. . ... : ... .. . ... : ... .. . ... : ... .. . ...
ROW 3E : ... .. . ... : ... .. . ... : ... .. . ... : ... .. . ... : ... .. . ...
ROW 3F : --- .. . ... : ... .. . ... : ... .. . ... : ... .. . ... : ... .. . ...

PATTERN 0A
ROW 00 : ... .. . ... : ... .. . ... : ... .. . ... : ... .. . ... : ... .. . ...
ROW 01 : ... .. . ... : ... .. . ... : ... .. . ... : ... .. . ... : ... .. . ...
ROW 02 : A-2 16 . ... : ... .. . ... : ... .. . ... : ... .. . ... : ... .. . ...
ROW 03 : G-2 16 . ... : ... .. . ... : ... .. . ... : ... .. . ... : ... .. . ...
ROW 04 : D#2 0E . ... : C-2 12 . ... : ... .. . ... : ... .. . ... : ... .. . ...
ROW 05 : ... .. . ... : ... .. . ... : ... .. . ... : ... .. . ... : ... .. . ...
ROW 06 : ... .. . ... : D#3 12 . ... : A-3 05 . ... : ... .. . ... : ... .. . ...
ROW 07 : ... .. . ... : ... .. . ... : ... .. . ... : ... .. . ... : ... .. . ...
ROW 08 : A-1 0E . ... : F-1 12 . ... : ... .. . ... : ... .. . ... : ... .. . ...
ROW 09 : ... .. . ... : ... .. . ... : ... .. . ... : ... .. . ... : ... .. . ...
ROW 0A : ... .. . ... : D#3 12 . ... : A-3 05 . ... : ... .. . ... : ... .. . ...
ROW 0B : ... .. . ... : ... .. . ... : ... .. . ... : ... .. . ... : ... .. . ...
ROW 0C : D#2 0E . ... : C-2 12 . ... : ... .. . ... : ... .. . ... : ... .. . ...
ROW 0D : ... .. . ... : ... .. . ... : ... .. . ... : ... .. . ... : ... .. . ...
ROW 0E : ... .. . ... : D#3 12 . ... : A-3 05 . ... : ... .. . ... : ... .. . ...
ROW 0F : ... .. . ... : ... .. . ... : ... .. . ... : ... .. . ... : ... .. . ...
ROW 10 : A-1 0E . ... : F-1 12 . ... : ... .. . ... : ... .. . ... : ... .. . ...
ROW 11 : ... .. . ... : ... .. . ... : ... .. . ... : ... .. . ... : ... .. . ...
ROW 12 : ... .. . ... : D#3 12 . ... : A-3 05 . ... : ... .. . ... : ... .. . ...
ROW 13 : ... .. . ... : ... .. . ... : ... .. . ... : ... .. . ... : ... .. . ...
ROW 14 : G-2 0E . ... : C-2 12 . ... : ... .. . ... : ... .. . ... : ... .. . ...
ROW 15 : ... .. . ... : ... .. . ... : ... .. . ... : ... .. . ... : ... .. . ...
ROW 16 : ... .. . ... : D#3 12 . ... : C-4 05 . ... : ... .. . ... : ... .. . ...
ROW 17 : G-2 16 . ... : ... .. . ... : ... .. . ... : ... .. . ... : ... .. . ...
ROW 18 : G-2 0E . ... : F-1 12 . ... : ... .. . ... : ... .. . ... : ... .. . ...
ROW 19 : ... .. . ... : ... .. . ... : ... .. . ... : ... .. . ... : ... .. . ...
ROW 1A : ... .. . ... : D#3 12 . ... : C-4 05 . ... : ... .. . ... : ... .. . ...
ROW 1B : G-2 16 . ... : ... .. . ... : ... .. . ... : ... .. . ... : ... .. . ...
ROW 1C : G-2 0F . ... : C-2 12 . ... : ... .. . ... : ... .. . ... : ... .. . ...
ROW 1D : ... .. . ... : ... .. . ... : ... .. . ... : ... .. . ... : ... .. . ...
ROW 1E : ... .. . ... : D#3 12 . ... : A-3 05 . ... : ... .. . ... : ... .. . ...
ROW 1F : ... .. . ... : ... .. . ... : ... .. . ... : ... .. . ... : ... .. . ...
ROW 20 : ... .. . ... : D#3 12 . ... : A-3 05 . ... : ... .. . ... : ... .. . ...
ROW 21 : ... .. . ... : ... .. . ... : ... .. . ... : ... .. . ... : ... .. . ...
ROW 22 : A-2 16 . ... : D#3 12 . ... : A-3 05 . ... : ... .. . ... : ... .. . ...
ROW 23 : G-2 0E . B01 : ... .. . ... : ... .. . ... : ... .. . ... : ... .. . ...
ROW 24 : ... .. . ... : ... .. . ... : ... .. . ... : ... .. . ... : ... .. . ...
ROW 25 : ... .. . ... : ... .. . ... : ... .. . ... : ... .. . ... : ... .. . ...
ROW 26 : ... .. . ... : ... .. . ... : ... .. . ... : ... .. . ... : ... .. . ...
ROW 27 : ... .. . ... : ... .. . ... : ... .. . ... : ... .. . ... : ... .. . ...
ROW 28 : ... .. . ... : ... .. . ... : ... .. . ... : ... .. . ... : ... .. . ...
ROW 29 : ... .. . ... : ... .. . ... : ... .. . ... : ... .. . ... : ... .. . ...
ROW 2A : ... .. . ... : ... .. . ... : ... .. . ... : ... .. . ... : ... .. . ...
ROW 2B : ... .. . ... : ... .. . ... : ... .. . ... : ... .. . ... : ... .. . ...
ROW 2C : ... .. . ... : ... .. . ... : ... .. . ... : ... .. . ... : ... .. . ...
ROW 2D : ... .. . ... : ... .. . ... : ... .. . ... : ... .. . ... : ... .. . ...
ROW 2E : ... .. . ... : ... .. . ... : ... .. . ... : ... .. . ... : ... .. . ...
ROW 2F : ... .. . ... : ... .. . ... : ... .. . ... : ... .. . ... : ... .. . ...
ROW 30 : ... .. . ... : ... .. . ... : ... .. . ... : ... .. . ... : ... .. . ...
ROW 31 : ... .. . ... : ... .. . ... : ... .. . ... : ... .. . ... : ... .. . ...
ROW 32 : ... .. . ... : ... .. . ... : ... .. . ... : ... .. . ... : ... .. . ...
ROW 33 : ... .. . ... : ... .. . ... : ... .. . ... : ... .. . ... : ... .. . ...
ROW 34 : ... .. . ... : ... .. . ... : ... .. . ... : ... .. . ... : ... .. . ...
ROW 35 : ... .. . ... : ... .. . ... : ... .. . ... : ... .. . ... : ... .. . ...
ROW 36 : ... .. . ... : ... .. . ... : ... .. . ... : ... .. . ... : ... .. . ...
ROW 37 : ... .. . ... : ... .. . ... : ... .. . ... : ... .. . ... : ... .. . ...
ROW 38 : ... .. . ... : ... .. . ... : ... .. . ... : ... .. . ... : ... .. . ...
ROW 39 : ... .. . ... : ... .. . ... : ... .. . ... : ... .. . ... : ... .. . ...
ROW 3A : ... .. . ... : ... .. . ... : ... .. . ... : ... .. . ... : ... .. . ...
ROW 3B : ... .. . ... : ... .. . ... : ... .. . ... : ... .. . ... : ... .. . ...
ROW 3C : ... .. . ... : ... .. . ... : ... .. . ... : ... .. . ... : ... .. . ...
ROW 3D : ... .. . ... : ... .. . ... : ... .. . ... : ... .. . ... : ... .. . ...
ROW 3E : ... .. . ... : ... .. . ... : ... .. . ... : ... .. . ... : ... .. . ...
ROW 3F : ... .. . ... : ... .. . ... : ... .. . ... : ... .. . ... : ... .. . ...

TRACK  64   7 150 "Carmen"
COLUMNS : 1 1 1 1 1

ORDER 00 : 00 00 00 00 00
ORDER 01 : 01 01 00 00 00
ORDER 02 : 02 02 00 00 00
ORDER 03 : 02 03 00 00 00
ORDER 04 : 02 04 00 01 00
ORDER 05 : 02 05 00 02 00
ORDER 06 : 02 06 00 02 00
ORDER 07 : 02 05 00 02 00
ORDER 08 : 02 07 00 02 00
ORDER 09 : 02 08 00 03 00
ORDER 0A : 02 09 00 03 00
ORDER 0B : 02 0A 00 03 00
ORDER 0C : 02 0B 00 04 00
ORDER 0D : 02 0C 01 00 00
ORDER 0E : 00 00 00 00 00
ORDER 0F : 00 00 00 00 00
ORDER 10 : 00 00 00 00 00

PATTERN 00
ROW 00 : E-1 08 . ... : --- .. . ... : --- .. . ... : ... .. . ... : ... .. . ...
ROW 01 : ... .. . ... : ... .. . ... : ... .. . ... : ... .. . ... : ... .. . ...
ROW 02 : ... .. . ... : ... .. . ... : ... .. . ... : ... .. . ... : ... .. . ...
ROW 03 : ... .. . ... : ... .. . ... : ... .. . ... : ... .. . ... : ... .. . ...
ROW 04 : ... .. . ... : ... .. . ... : ... .. . ... : ... .. . ... : ... .. . ...
ROW 05 : ... .. . ... : ... .. . ... : ... .. . ... : ... .. . ... : ... .. . ...
ROW 06 : B-1 0B . ... : ... .. . ... : ... .. . ... : ... .. . ... : ... .. . ...
ROW 07 : ... .. . ... : ... .. . ... : ... .. . ... : ... .. . ... : ... .. . ...
ROW 08 : G-2 08 . ... : B-2 01 . ... : E-2 01 . ... : ... .. . ... : ... .. . ...
ROW 09 : ... .. . ... : ... .. . ... : ... .. . ... : ... .. . ... : ... .. . ...
ROW 0A : ... .. . ... : ... .. . ... : ... .. . ... : ... .. . ... : ... .. . ...
ROW 0B : ... .. . ... : ... .. . ... : ... .. . ... : ... .. . ... : ... .. . ...
ROW 0C : B-1 08 . ... : ... .. . ... : ... .. . ... : ... .. . ... : ... .. . ...
ROW 0D : ... .. . ... : ... .. . ... : ... .. . ... : ... .. . ... : ... .. . ...
ROW 0E : ... .. . ... : ... .. . ... : ... .. . ... : ... .. . ... : ... .. . ...
ROW 0F : ... .. . ... : ... .. . ... : ... .. . ... : ... .. . ... : ... .. . ...
ROW 10 : E-1 08 . ... : ... .. . ... : ... .. . ... : ... .. . ... : ... .. . ...
ROW 11 : ... .. . ... : ... .. . ... : ... .. . ... : ... .. . ... : ... .. . ...
ROW 12 : ... .. . ... : ... .. . ... : ... .. . ... : ... .. . ... : ... .. . ...
ROW 13 : ... .. . ... : ... .. . ... : ... .. . ... : ... .. . ... : ... .. . ...
ROW 14 : ... .. . ... : ... .. . ... : ... .. . ... : ... .. . ... : ... .. . ...
ROW 15 : ... .. . ... : ... .. . ... : ... .. . ... : ... .. . ... : ... .. . ...
ROW 16 : B-1 0B . ... : ... .. . ... : ... .. . ... : ... .. . ... : ... .. . ...
ROW 17 : ... .. . ... : ... .. . ... : ... .. . ... : ... .. . ... : ... .. . ...
ROW 18 : G-2 08 . ... : B-2 01 . ... : E-2 01 . ... : ... .. . ... : ... .. . ...
ROW 19 : ... .. . ... : ... .. . ... : ... .. . ... : ... .. . ... : ... .. . ...
ROW 1A : ... .. . ... : ... .. . ... : ... .. . ... : ... .. . ... : ... .. . ...
ROW 1B : ... .. . ... : ... .. . ... : ... .. . ... : ... .. . ... : ... .. . ...
ROW 1C : B-1 08 . ... : ... .. . ... : ... .. . ... : ... .. . ... : ... .. . ...
ROW 1D : ... .. . ... : ... .. . ... : ... .. . ... : ... .. . ... : ... .. . ...
ROW 1E : ... .. . ... : ... .. . ... : ... .. . ... : ... .. . ... : ... .. . ...
ROW 1F : ... .. . ... : ... .. . ... : ... .. . ... : ... .. . ... : ... .. . ...
ROW 20 : E-1 08 . ... : ... .. . ... : ... .. . ... : ... .. . ... : ... .. . ...
ROW 21 : ... .. . ... : ... .. . ... : ... .. . ... : ... .. . ... : ... .. . ...
ROW 22 : ... .. . ... : ... .. . ... : ... .. . ... : ... .. . ... : ... .. . ...
ROW 23 : ... .. . ... : ... .. . ... : ... .. . ... : ... .. . ... : ... .. . ...
ROW 24 : ... .. . ... : ... .. . ... : ... .. . ... : ... .. . ... : ... .. . ...
ROW 25 : ... .. . ... : ... .. . ... : ... .. . ... : ... .. . ... : ... .. . ...
ROW 26 : B-1 0B . ... : ... .. . ... : ... .. . ... : ... .. . ... : ... .. . ...
ROW 27 : ... .. . ... : ... .. . ... : ... .. . ... : ... .. . ... : ... .. . ...
ROW 28 : G-2 08 . ... : B-2 01 . ... : E-2 01 . ... : ... .. . ... : ... .. . ...
ROW 29 : ... .. . ... : ... .. . ... : ... .. . ... : ... .. . ... : ... .. . ...
ROW 2A : ... .. . ... : ... .. . ... : ... .. . ... : ... .. . ... : ... .. . ...
ROW 2B : ... .. . ... : ... .. . ... : ... .. . ... : ... .. . ... : ... .. . ...
ROW 2C : B-1 08 . ... : ... .. . ... : ... .. . ... : ... .. . ... : ... .. . ...
ROW 2D : ... .. . ... : ... .. . ... : ... .. . ... : ... .. . ... : ... .. . ...
ROW 2E : ... .. . ... : ... .. . ... : ... .. . ... : ... .. . ... : ... .. . ...
ROW 2F : ... .. . ... : ... .. . ... : ... .. . ... : ... .. . ... : ... .. . ...
ROW 30 : E-1 08 . ... : ... .. . ... : ... .. . ... : ... .. . ... : ... .. . ...
ROW 31 : ... .. . ... : ... .. . ... : ... .. . ... : ... .. . ... : ... .. . ...
ROW 32 : ... .. . ... : ... .. . ... : ... .. . ... : ... .. . ... : ... .. . ...
ROW 33 : ... .. . ... : ... .. . ... : ... .. . ... : ... .. . ... : ... .. . ...
ROW 34 : ... .. . ... : ... .. . ... : ... .. . ... : ... .. . ... : ... .. . ...
ROW 35 : ... .. . ... : ... .. . ... : ... .. . ... : ... .. . ... : ... .. . ...
ROW 36 : B-1 0B . ... : ... .. . ... : ... .. . ... : ... .. . ... : ... .. . ...
ROW 37 : ... .. . ... : ... .. . ... : ... .. . ... : ... .. . ... : ... .. . ...
ROW 38 : G-2 08 . ... : E-3 00 . ... : E-2 01 . ... : ... .. . ... : ... .. . ...
ROW 39 : ... .. . ... : ... .. . ... : ... .. . ... : ... .. . ... : ... .. . ...
ROW 3A : ... .. . ... : ... .. . ... : ... .. . ... : ... .. . ... : ... .. . ...
ROW 3B : ... .. . ... : ... .. . ... : ... .. . ... : ... .. . ... : ... .. . ...
ROW 3C : B-1 08 . ... : D#3 00 . ... : ... .. . ... : ... .. . ... : ... .. . ...
ROW 3D : ... .. . ... : ... .. . ... : ... .. . ... : ... .. . ... : ... .. . ...
ROW 3E : ... .. . ... : ... .. . ... : ... .. . ... : ... .. . ... : ... .. . ...
ROW 3F : ... .. . ... : ... .. . ... : ... .. . ... : ... .. . ... : ... .. . ...

PATTERN 01
ROW 00 : E-1 08 . ... : D-3 00 . F05 : --- .. . ... : ... .. . ... : ... .. . ...
ROW 01 : ... .. . ... : ... .. . ... : ... .. . ... : ... .. . ... : ... .. . ...
ROW 02 : ... .. . ... : ... .. . ... : ... .. . ... : ... .. . ... : ... .. . ...
ROW 03 : ... .. . ... : D-3 00 . F07 : ... .. . ... : ... .. . ... : ... .. . ...
ROW 04 : ... .. . ... : ... .. . ... : ... .. . ... : ... .. . ... : ... .. . ...
ROW 05 : ... .. . ... : ... .. . ... : ... .. . ... : ... .. . ... : ... .. . ...
ROW 06 : B-1 0B . ... : D-3 14 . ... : ... .. . ... : ... .. . ... : ... .. . ...
ROW 07 : ... .. . ... : ... .. . ... : ... .. . ... : ... .. . ... : ... .. . ...
ROW 08 : G-2 08 . ... : C#3 00 . ... : E-2 01 . ... : ... .. . ... : ... .. . ...
ROW 09 : ... .. . ... : ... .. . ... : ... .. . ... : ... .. . ... : ... .. . ...
ROW 0A : ... .. . ... : ... .. . ... : ... .. . ... : ... .. . ... : ... .. . ...
ROW 0B : ... .. . ... : ... .. . ... : ... .. . ... : ... .. . ... : ... .. . ...
ROW 0C : B-1 08 . ... : C-3 00 . ... : ... .. . ... : ... .. . ... : ... .. . ...
ROW 0D : ... .. . ... : ... .. . ... : ... .. . ... : ... .. . ... : ... .. . ...
ROW 0E : ... .. . ... : ... .. . ... : ... .. . ... : ... .. . ... : ... .. . ...
ROW 0F : ... .. . ... : ... .. . ... : ... .. . ... : ... .. . ... : ... .. . ...
ROW 10 : E-1 08 . ... : B-2 00 . ... : ... .. . ... : ... .. . ... : ... .. . ...
ROW 11 : ... .. . ... : ... .. . ... : ... .. . ... : ... .. . ... : ... .. . ...
ROW 12 : ... .. . ... : ... .. . ... : ... .. . ... : ... .. . ... : ... .. . ...
ROW 13 : ... .. . ... : ... .. . ... : ... .. . ... : ... .. . ... : ... .. . ...
ROW 14 : ... .. . ... : B-2 00 . ... : ... .. . ... : ... .. . ... : ... .. . ...
ROW 15 : ... .. . ... : ... .. . ... : ... .. . ... : ... .. . ... : ... .. . ...
ROW 16 : B-1 0B . ... : B-2 14 . ... : ... .. . ... : ... .. . ... : ... .. . ...
ROW 17 : ... .. . ... : ... .. . ... : ... .. . ... : ... .. . ... : ... .. . ...
ROW 18 : G-2 08 . ... : A#2 00 . ... : E-2 01 . ... : ... .. . ... : ... .. . ...
ROW 19 : ... .. . ... : ... .. . ... : ... .. . ... : ... .. . ... : ... .. . ...
ROW 1A : ... .. . ... : ... .. . ... : ... .. . ... : ... .. . ... : ... .. . ...
ROW 1B : ... .. . ... : ... .. . ... : ... .. . ... : ... .. . ... : ... .. . ...
ROW 1C : B-1 08 . ... : A-2 00 . ... : ... .. . ... : ... .. . ... : ... .. . ...
ROW 1D : ... .. . ... : ... .. . ... : ... .. . ... : ... .. . ... : ... .. . ...
ROW 1E : ... .. . ... : ... .. . ... : ... .. . ... : ... .. . ... : ... .. . ...
ROW 1F : ... .. . ... : ... .. . ... : ... .. . ... : ... .. . ... : ... .. . ...
ROW 20 : E-1 08 . ... : G-2 14 . F08 : ... .. . ... : ... .. . ... : ... .. . ...
ROW 21 : ... .. . ... : A-2 14 . ... : ... .. . ... : ... .. . ... : ... .. . ...
ROW 22 : ... .. . ... : G-2 14 . F07 : ... .. . ... : ... .. . ... : ... .. . ...
ROW 23 : ... .. . ... : ... .. . ... : ... .. . ... : ... .. . ... : ... .. . ...
ROW 24 : ... .. . ... : F#2 00 . ... : ... .. . ... : ... .. . ... : ... .. . ...
ROW 25 : ... .. . ... : ... .. . ... : ... .. . ... : ... .. . ... : ... .. . ...
ROW 26 : B-1 0B . ... : G-2 00 . ... : ... .. . ... : ... .. . ... : ... .. . ...
ROW 27 : ... .. . ... : ... .. . ... : ... .. . ... : ... .. . ... : ... .. . ...
ROW 28 : G-2 08 . ... : A-2 00 . ... : ... .. . ... : ... .. . ... : ... .. . ...
ROW 29 : ... .. . ... : ... .. . ... : ... .. . ... : ... .. . ... : ... .. . ...
ROW 2A : ... .. . ... : ... .. . ... : ... .. . ... : ... .. . ... : ... .. . ...
ROW 2B : ... .. . ... : ... .. . ... : ... .. . ... : ... .. . ... : ... .. . ...
ROW 2C : B-1 08 . ... : G-2 00 . ... : ... .. . ... : ... .. . ... : ... .. . ...
ROW 2D : ... .. . ... : ... .. . ... : ... .. . ... : ... .. . ... : ... .. . ...
ROW 2E : ... .. . ... : ... .. . ... : ... .. . ... : ... .. . ... : ... .. . ...
ROW 2F : ... .. . ... : ... .. . ... : ... .. . ... : ... .. . ... : ... .. . ...
ROW 30 : E-1 08 . ... : F#2 00 . ... : ... .. . ... : ... .. . ... : ... .. . ...
ROW 31 : ... .. . ... : ... .. . ... : ... .. . ... : ... .. . ... : ... .. . ...
ROW 32 : ... .. . ... : ... .. . ... : ... .. . ... : ... .. . ... : ... .. . ...
ROW 33 : ... .. . ... : ... .. . ... : ... .. . ... : ... .. . ... : ... .. . ...
ROW 34 : ... .. . ... : ... .. . ... : ... .. . ... : ... .. . ... : ... .. . ...
ROW 35 : ... .. . ... : ... .. . ... : ... .. . ... : ... .. . ... : ... .. . ...
ROW 36 : B-1 0B . ... : ... .. . ... : ... .. . ... : B-# 15 . ... : ... .. . ...
ROW 37 : ... .. . ... : ... .. . ... : ... .. . ... : ... .. . ... : ... .. . ...
ROW 38 : G#2 08 . ... : E-3 00 . ... : ... .. . ... : B-# 09 . ... : ... .. . ...
ROW 39 : ... .. . ... : ... .. . ... : ... .. . ... : ... .. . ... : ... .. . ...
ROW 3A : ... .. . ... : ... .. . ... : ... .. . ... : ... .. . ... : ... .. . ...
ROW 3B : ... .. . ... : ... .. . ... : ... .. . ... : ... .. . ... : ... .. . ...
ROW 3C : B-1 08 . ... : D#3 00 . ... : ... .. . ... : B-# 09 . ... : ... .. . ...
ROW 3D : ... .. . ... : ... .. . ... : ... .. . ... : ... .. . ... : ... .. . ...
ROW 3E : ... .. . ... : ... .. . ... : ... .. . ... : ... .. . ... : ... .. . ...
ROW 3F : ... .. . ... : ... .. . ... : ... .. . ... : ... .. . ... : ... .. . ...

PATTERN 02
ROW 00 : E-1 08 . ... : D-3 00 . F05 : ... .. . ... : B-# 09 . ... : ... .. . ...
ROW 01 : ... .. . ... : ... .. . ... : ... .. . ... : ... .. . ... : ... .. . ...
ROW 02 : ... .. . ... : ... .. . ... : ... .. . ... : ... .. . ... : ... .. . ...
ROW 03 : ... .. . ... : D-3 00 . F07 : ... .. . ... : ... .. . ... : ... .. . ...
ROW 04 : ... .. . ... : ... .. . ... : ... .. . ... : ... .. . ... : ... .. . ...
ROW 05 : ... .. . ... : ... .. . ... : ... .. . ... : ... .. . ... : ... .. . ...
ROW 06 : B-1 0B . ... : D-3 14 . ... : ... .. . ... : B-# 15 . ... : ... .. . ...
ROW 07 : ... .. . ... : ... .. . ... : ... .. . ... : ... .. . ... : ... .. . ...
ROW 08 : G#2 08 . ... : C#3 00 . ... : ... .. . ... : B-# 09 . ... : ... .. . ...
ROW 09 : ... .. . ... : ... .. . ... : ... .. . ... : ... .. . ... : ... .. . ...
ROW 0A : ... .. . ... : ... .. . ... : ... .. . ... : ... .. . ... : ... .. . ...
ROW 0B : ... .. . ... : ... .. . ... : ... .. . ... : ... .. . ... : ... .. . ...
ROW 0C : B-1 08 . ... : C-3 00 . ... : ... .. . ... : B-# 09 . ... : ... .. . ...
ROW 0D : ... .. . ... : ... .. . ... : ... .. . ... : ... .. . ... : ... .. . ...
ROW 0E : ... .. . ... : ... .. . ... : ... .. . ... : ... .. . ... : ... .. . ...
ROW 0F : ... .. . ... : ... .. . ... : ... .. . ... : ... .. . ... : ... .. . ...
ROW 10 : E-1 08 . ... : B-2 00 . ... : ... .. . ... : B-# 09 . ... : ... .. . ...
ROW 11 : ... .. . ... : ... .. . ... : ... .. . ... : ... .. . ... : ... .. . ...
ROW 12 : ... .. . ... : B-2 14 . ... : ... .. . ... : ... .. . ... : ... .. . ...
ROW 13 : ... .. . ... : ... .. . ... : ... .. . ... : ... .. . ... : ... .. . ...
ROW 14 : ... .. . ... : ... .. . ... : ... .. . ... : ... .. . ... : ... .. . ...
ROW 15 : ... .. . ... : ... .. . ... : ... .. . ... : ... .. . ... : ... .. . ...
ROW 16 : B-1 0B . ... : B-2 14 . ... : ... .. . ... : B-# 15 . ... : ... .. . ...
ROW 17 : ... .. . ... : ... .. . ... : ... .. . ... : ... .. . ... : ... .. . ...
ROW 18 : G#2 08 . ... : A-2 00 . ... : ... .. . ... : B-# 09 . ... : ... .. . ...
ROW 19 : ... .. . ... : ... .. . ... : ... .. . ... : ... .. . ... : ... .. . ...
ROW 1A : ... .. . ... : ... .. . ... : ... .. . ... : ... .. . ... : ... .. . ...
ROW 1B : ... .. . ... : ... .. . ... : ... .. . ... : ... .. . ... : ... .. . ...
ROW 1C : B-1 08 . ... : G-2 00 . ... : ... .. . ... : B-# 09 . ... : ... .. . ...
ROW 1D : ... .. . ... : ... .. . ... : ... .. . ... : ... .. . ... : ... .. . ...
ROW 1E : ... .. . ... : ... .. . ... : ... .. . ... : ... .. . ... : ... .. . ...
ROW 1F : ... .. . ... : ... .. . ... : ... .. . ... : ... .. . ... : ... .. . ...
ROW 20 : E-1 08 . ... : F#2 14 . F08 : ... .. . ... : B-# 09 . ... : ... .. . ...
ROW 21 : ... .. . ... : G-2 14 . ... : ... .. . ... : ... .. . ... : ... .. . ...
ROW 22 : ... .. . ... : F#2 14 . F07 : ... .. . ... : ... .. . ... : ... .. . ...
ROW 23 : ... .. . ... : ... .. . ... : ... .. . ... : ... .. . ... : ... .. . ...
ROW 24 : ... .. . ... : E-2 00 . ... : ... .. . ... : ... .. . ... : ... .. . ...
ROW 25 : ... .. . ... : ... .. . ... : ... .. . ... : ... .. . ... : ... .. . ...
ROW 26 : B-1 0B . ... : F#2 00 . ... : ... .. . ... : ... .. . ... : ... .. . ...
ROW 27 : ... .. . ... : ... .. . ... : ... .. . ... : ... .. . ... : ... .. . ...
ROW 28 : G#2 08 . ... : G-2 00 . ... : ... .. . ... : B-# 09 . ... : ... .. . ...
ROW 29 : ... .. . ... : ... .. . ... : ... .. . ... : ... .. . ... : ... .. . ...
ROW 2A : ... .. . ... : ... .. . ... : ... .. . ... : ... .. . ... : ... .. . ...
ROW 2B : ... .. . ... : ... .. . ... : ... .. . ... : ... .. . ... : ... .. . ...
ROW 2C : B-1 08 . ... : F#2 00 . ... : ... .. . ... : B-# 09 . ... : ... .. . ...
ROW 2D : ... .. . ... : ... .. . ... : ... .. . ... : ... .. . ... : ... .. . ...
ROW 2E : ... .. . ... : ... .. . ... : ... .. . ... : ... .. . ... : ... .. . ...
ROW 2F : ... .. . ... : ... .. . ... : ... .. . ... : ... .. . ... : ... .. . ...
ROW 30 : E-1 08 . ... : E-2 00 . ... : ... .. . ... : B-# 09 . ... : ... .. . ...
ROW 31 : ... .. . ... : ... .. . ... : ... .. . ... : ... .. . ... : ... .. . ...
ROW 32 : ... .. . ... : ... .. . ... : ... .. . ... : ... .. . ... : ... .. . ...
ROW 33 : ... .. . ... : ... .. . ... : ... .. . ... : ... .. . ... : ... .. . ...
ROW 34 : ... .. . ... : ... .. . ... : ... .. . ... : ... .. . ... : ... .. . ...
ROW 35 : ... .. . ... : ... .. . ... : ... .. . ... : ... .. . ... : ... .. . ...
ROW 36 : B-1 0B . ... : ... .. . ... : ... .. . ... : B-# 15 . ... : ... .. . ...
ROW 37 : ... .. . ... : ... .. . ... : ... .. . ... : ... .. . ... : ... .. . ...
ROW 38 : G#2 08 . ... : E-3 00 . ... : ... .. . ... : B-# 09 . ... : ... .. . ...
ROW 39 : ... .. . ... : ... .. . ... : ... .. . ... : ... .. . ... : ... .. . ...
ROW 3A : ... .. . ... : ... .. . ... : ... .. . ... : ... .. . ... : ... .. . ...
ROW 3B : ... .. . ... : ... .. . ... : ... .. . ... : ... .. . ... : ... .. . ...
ROW 3C : B-1 08 . ... : D#3 00 . ... : ... .. . ... : B-# 09 . ... : ... .. . ...
ROW 3D : ... .. . ... : ... .. . ... : ... .. . ... : ... .. . ... : ... .. . ...
ROW 3E : ... .. . ... : ... .. . ... : ... .. . ... : ... .. . ... : ... .. . ...
ROW 3F : ... .. . ... : ... .. . ... : ... .. . ... : ... .. . ... : ... .. . ...

PATTERN 03
ROW 00 : ... .. . ... : D-3 00 . F05 : ... .. . ... : B-# 09 . ... : ... .. . ...
ROW 01 : ... .. . ... : ... .. . ... : ... .. . ... : ... .. . ... : ... .. . ...
ROW 02 : ... .. . ... : ... .. . ... : ... .. . ... : ... .. . ... : ... .. . ...
ROW 03 : ... .. . ... : D-3 00 . F07 : ... .. . ... : ... .. . ... : ... .. . ...
ROW 04 : ... .. . ... : ... .. . ... : ... .. . ... : ... .. . ... : ... .. . ...
ROW 05 : ... .. . ... : ... .. . ... : ... .. . ... : ... .. . ... : ... .. . ...
ROW 06 : ... .. . ... : D-3 14 . ... : ... .. . ... : B-# 15 . ... : ... .. . ...
ROW 07 : ... .. . ... : ... .. . ... : ... .. . ... : ... .. . ... : ... .. . ...
ROW 08 : ... .. . ... : C#3 00 . ... : ... .. . ... : B-# 09 . ... : ... .. . ...
ROW 09 : ... .. . ... : ... .. . ... : ... .. . ... : ... .. . ... : ... .. . ...
ROW 0A : ... .. . ... : ... .. . ... : ... .. . ... : ... .. . ... : ... .. . ...
ROW 0B : ... .. . ... : ... .. . ... : ... .. . ... : ... .. . ... : ... .. . ...
ROW 0C : ... .. . ... : C-3 00 . ... : ... .. . ... : B-# 09 . ... : ... .. . ...
ROW 0D : ... .. . ... : ... .. . ... : ... .. . ... : ... .. . ... : ... .. . ...
ROW 0E : ... .. . ... : ... .. . ... : ... .. . ... : ... .. . ... : ... .. . ...
ROW 0F : ... .. . ... : ... .. . ... : ... .. . ... : ... .. . ... : ... .. . ...
ROW 10 : ... .. . ... : B-2 00 . ... : ... .. . ... : B-# 09 . ... : ... .. . ...
ROW 11 : ... .. . ... : ... .. . ... : ... .. . ... : ... .. . ... : ... .. . ...
ROW 12 : ... .. . ... : B-2 14 . ... : ... .. . ... : ... .. . ... : ... .. . ...
ROW 13 : ... .. . ... : ... .. . ... : ... .. . ... : ... .. . ... : ... .. . ...
ROW 14 : ... .. . ... : ... .. . ... : ... .. . ... : ... .. . ... : ... .. . ...
ROW 15 : ... .. . ... : ... .. . ... : ... .. . ... : ... .. . ... : ... .. . ...
ROW 16 : ... .. . ... : B-2 14 . ... : ... .. . ... : B-# 15 . ... : ... .. . ...
ROW 17 : ... .. . ... : ... .. . ... : ... .. . ... : ... .. . ... : ... .. . ...
ROW 18 : ... .. . ... : A#2 00 . ... : ... .. . ... : B-# 09 . ... : ... .. . ...
ROW 19 : ... .. . ... : ... .. . ... : ... .. . ... : ... .. . ... : ... .. . ...
ROW 1A : ... .. . ... : ... .. . ... : ... .. . ... : ... .. . ... : ... .. . ...
ROW 1B : ... .. . ... : ... .. . ... : ... .. . ... : ... .. . ... : ... .. . ...
ROW 1C : ... .. . ... : A-2 00 . ... : ... .. . ... : B-# 09 . ... : ... .. . ...
ROW 1D : ... .. . ... : ... .. . ... : ... .. . ... : ... .. . ... : ... .. . ...
ROW 1E : ... .. . ... : ... .. . ... : ... .. . ... : ... .. . ... : ... .. . ...
ROW 1F : ... .. . ... : ... .. . ... : ... .. . ... : ... .. . ... : ... .. . ...
ROW 20 : ... .. . ... : G-2 14 . F08 : ... .. . ... : B-# 09 . ... : ... .. . ...
ROW 21 : ... .. . ... : A-2 14 . ... : ... .. . ... : ... .. . ... : ... .. . ...
ROW 22 : ... .. . ... : G-2 14 . F07 : ... .. . ... : B-# 15 . ... : ... .. . ...
ROW 23 : ... .. . ... : ... .. . ... : ... .. . ... : ... .. . ... : ... .. . ...
ROW 24 : ... .. . ... : F#2 00 . ... : ... .. . ... : B-# 15 . ... : ... .. . ...
ROW 25 : ... .. . ... : ... .. . ... : ... .. . ... : ... .. . ... : ... .. . ...
ROW 26 : ... .. . ... : G-2 00 . ... : ... .. . ... : B-# 15 . ... : ... .. . ...
ROW 27 : ... .. . ... : ... .. . ... : ... .. . ... : ... .. . ... : ... .. . ...
ROW 28 : ... .. . ... : A-2 00 . ... : ... .. . ... : B-# 09 . ... : ... .. . ...
ROW 29 : ... .. . ... : ... .. . ... : ... .. . ... : ... .. . ... : ... .. . ...
ROW 2A : ... .. . ... : ... .. . ... : ... .. . ... : ... .. . ... : ... .. . ...
ROW 2B : ... .. . ... : ... .. . ... : ... .. . ... : ... .. . ... : ... .. . ...
ROW 2C : ... .. . ... : G-2 00 . ... : ... .. . ... : B-# 09 . ... : ... .. . ...
ROW 2D : ... .. . ... : ... .. . ... : ... .. . ... : ... .. . ... : ... .. . ...
ROW 2E : ... .. . ... : ... .. . ... : ... .. . ... : ... .. . ... : ... .. . ...
ROW 2F : ... .. . ... : ... .. . ... : ... .. . ... : ... .. . ... : ... .. . ...
ROW 30 : ... .. . ... : F#2 00 . ... : ... .. . ... : B-# 09 . ... : ... .. . ...
ROW 31 : ... .. . ... : ... .. . ... : ... .. . ... : ... .. . ... : ... .. . ...
ROW 32 : ... .. . ... : ... .. . ... : ... .. . ... : ... .. . ... : ... .. . ...
ROW 33 : ... .. . ... : ... .. . ... : ... .. . ... : ... .. . ... : ... .. . ...
ROW 34 : ... .. . ... : ... .. . ... : ... .. . ... : ... .. . ... : ... .. . ...
ROW 35 : ... .. . ... : ... .. . ... : ... .. . ... : ... .. . ... : ... .. . ...
ROW 36 : ... .. . ... : ... .. . ... : ... .. . ... : B-# 15 . ... : ... .. . ...
ROW 37 : ... .. . ... : ... .. . ... : ... .. . ... : ... .. . ... : ... .. . ...
ROW 38 : ... .. . ... : E-3 00 . ... : ... .. . ... : B-# 09 . ... : ... .. . ...
ROW 39 : ... .. . ... : ... .. . ... : ... .. . ... : ... .. . ... : ... .. . ...
ROW 3A : ... .. . ... : ... .. . ... : ... .. . ... : ... .. . ... : ... .. . ...
ROW 3B : ... .. . ... : ... .. . ... : ... .. . ... : ... .. . ... : ... .. . ...
ROW 3C : ... .. . ... : D#3 00 . ... : ... .. . ... : B-# 09 . ... : ... .. . ...
ROW 3D : ... .. . ... : ... .. . ... : ... .. . ... : ... .. . ... : ... .. . ...
ROW 3E : ... .. . ... : ... .. . ... : ... .. . ... : ... .. . ... : ... .. . ...
ROW 3F : ... .. . ... : ... .. . ... : ... .. . ... : ... .. . ... : ... .. . ...

PATTERN 04
ROW 00 : ... .. . ... : D-3 00 . F05 : ... .. . ... : B-# 09 . ... : ... .. . ...
ROW 01 : ... .. . ... : ... .. . ... : ... .. . ... : ... .. . ... : ... .. . ...
ROW 02 : ... .. . ... : ... .. . ... : ... .. . ... : ... .. . ... : ... .. . ...
ROW 03 : ... .. . ... : D-3 00 . F07 : ... .. . ... : ... .. . ... : ... .. . ...
ROW 04 : ... .. . ... : ... .. . ... : ... .. . ... : ... .. . ... : ... .. . ...
ROW 05 : ... .. . ... : ... .. . ... : ... .. . ... : ... .. . ... : ... .. . ...
ROW 06 : ... .. . ... : D-3 14 . ... : ... .. . ... : B-# 15 . ... : ... .. . ...
ROW 07 : ... .. . ... : ... .. . ... : ... .. . ... : ... .. . ... : ... .. . ...
ROW 08 : ... .. . ... : C#3 00 . ... : ... .. . ... : B-# 09 . ... : ... .. . ...
ROW 09 : ... .. . ... : ... .. . ... : ... .. . ... : ... .. . ... : ... .. . ...
ROW 0A : ... .. . ... : ... .. . ... : ... .. . ... : ... .. . ... : ... .. . ...
ROW 0B : ... .. . ... : ... .. . ... : ... .. . ... : ... .. . ... : ... .. . ...
ROW 0C : ... .. . ... : C-3 00 . ... : ... .. . ... : B-# 09 . ... : ... .. . ...
ROW 0D : ... .. . ... : ... .. . ... : ... .. . ... : ... .. . ... : ... .. . ...
ROW 0E : ... .. . ... : ... .. . ... : ... .. . ... : ... .. . ... : ... .. . ...
ROW 0F : ... .. . ... : ... .. . ... : ... .. . ... : ... .. . ... : ... .. . ...
ROW 10 : ... .. . ... : B-2 00 . ... : ... .. . ... : B-# 09 . ... : ... .. . ...
ROW 11 : ... .. . ... : ... .. . ... : ... .. . ... : ... .. . ... : ... .. . ...
ROW 12 : ... .. . ... : B-2 14 . ... : ... .. . ... : ... .. . ... : ... .. . ...
ROW 13 : ... .. . ... : ... .. . ... : ... .. . ... : ... .. . ... : ... .. . ...
ROW 14 : ... .. . ... : ... .. . ... : ... .. . ... : ... .. . ... : ... .. . ...
ROW 15 : ... .. . ... : ... .. . ... : ... .. . ... : ... .. . ... : ... .. . ...
ROW 16 : ... .. . ... : B-2 14 . ... : ... .. . ... : B-# 15 . ... : ... .. . ...
ROW 17 : ... .. . ... : ... .. . ... : ... .. . ... : ... .. . ... : ... .. . ...
ROW 18 : ... .. . ... : A-2 00 . ... : ... .. . ... : B-# 09 . ... : ... .. . ...
ROW 19 : ... .. . ... : ... .. . ... : ... .. . ... : ... .. . ... : ... .. . ...
ROW 1A : ... .. . ... : ... .. . ... : ... .. . ... : ... .. . ... : ... .. . ...
ROW 1B : ... .. . ... : ... .. . ... : ... .. . ... : ... .. . ... : ... .. . ...
ROW 1C : ... .. . ... : G-2 00 . ... : ... .. . ... : B-# 09 . ... : ... .. . ...
ROW 1D : ... .. . ... : ... .. . ... : ... .. . ... : ... .. . ... : ... .. . ...
ROW 1E : ... .. . ... : ... .. . ... : ... .. . ... : ... .. . ... : ... .. . ...
ROW 1F : ... .. . ... : ... .. . ... : ... .. . ... : ... .. . ... : ... .. . ...
ROW 20 : ... .. . ... : F#2 14 . F08 : ... .. . ... : B-# 09 . ... : ... .. . ...
ROW 21 : ... .. . ... : G-2 14 . ... : ... .. . ... : ... .. . ... : ... .. . ...
ROW 22 : ... .. . ... : F#2 14 . F07 : ... .. . ... : ... .. . ... : ... .. . ...
ROW 23 : ... .. . ... : ... .. . ... : ... .. . ... : B-# 15 . ... : ... .. . ...
ROW 24 : ... .. . ... : E-2 00 . ... : ... .. . ... : ... .. . ... : ... .. . ...
ROW 25 : ... .. . ... : ... .. . ... : ... .. . ... : ... .. . ... : ... .. . ...
ROW 26 : ... .. . ... : F#2 00 . ... : ... .. . ... : B-# 15 . ... : ... .. . ...
ROW 27 : ... .. . ... : ... .. . ... : ... .. . ... : ... .. . ... : ... .. . ...
ROW 28 : ... .. . ... : G-2 00 . ... : ... .. . ... : B-# 09 . ... : ... .. . ...
ROW 29 : ... .. . ... : ... .. . ... : ... .. . ... : ... .. . ... : ... .. . ...
ROW 2A : ... .. . ... : ... .. . ... : ... .. . ... : B-# 15 . ... : ... .. . ...
ROW 2B : ... .. . ... : ... .. . ... : ... .. . ... : ... .. . ... : ... .. . ...
ROW 2C : ... .. . ... : F#2 00 . ... : ... .. . ... : B-# 09 . ... : ... .. . ...
ROW 2D : ... .. . ... : ... .. . ... : ... .. . ... : ... .. . ... : ... .. . ...
ROW 2E : ... .. . ... : ... .. . ... : ... .. . ... : ... .. . ... : ... .. . ...
ROW 2F : ... .. . ... : ... .. . ... : ... .. . ... : B-# 15 . ... : ... .. . ...
ROW 30 : ... .. . ... : E-2 00 . ... : ... .. . ... : B-# 09 . ... : ... .. . ...
ROW 31 : ... .. . ... : ... .. . ... : ... .. . ... : ... .. . ... : ... .. . ...
ROW 32 : ... .. . ... : ... .. . ... : ... .. . ... : ... .. . ... : ... .. . ...
ROW 33 : ... .. . ... : ... .. . ... : ... .. . ... : ... .. . ... : ... .. . ...
ROW 34 : ... .. . ... : ... .. . ... : ... .. . ... : ... .. . ... : ... .. . ...
ROW 35 : ... .. . ... : ... .. . ... : ... .. . ... : ... .. . ... : ... .. . ...
ROW 36 : ... .. . ... : ... .. . ... : ... .. . ... : B-# 15 . ... : ... .. . ...
ROW 37 : ... .. . ... : ... .. . ... : ... .. . ... : ... .. . ... : ... .. . ...
ROW 38 : ... .. . ... : E-4 00 . ... : ... .. . ... : B-# 09 . ... : ... .. . ...
ROW 39 : ... .. . ... : ... .. . ... : ... .. . ... : ... .. . ... : ... .. . ...
ROW 3A : ... .. . ... : ... .. . ... : ... .. . ... : ... .. . ... : ... .. . ...
ROW 3B : ... .. . ... : ... .. . ... : ... .. . ... : ... .. . ... : ... .. . ...
ROW 3C : ... .. . ... : D#4 00 . ... : ... .. . ... : B-# 09 . ... : ... .. . ...
ROW 3D : ... .. . ... : ... .. . ... : ... .. . ... : ... .. . ... : ... .. . ...
ROW 3E : ... .. . ... : ... .. . ... : ... .. . ... : ... .. . ... : ... .. . ...
ROW 3F : ... .. . ... : ... .. . ... : ... .. . ... : ... .. . ... : ... .. . ...

PATTERN 05
ROW 00 : ... .. . ... : D-4 00 . F05 : ... .. . ... : ... .. . ... : ... .. . ...
ROW 01 : ... .. . ... : ... .. . ... : ... .. . ... : ... .. . ... : ... .. . ...
ROW 02 : ... .. . ... : ... .. . ... : ... .. . ... : ... .. . ... : ... .. . ...
ROW 03 : ... .. . ... : D-4 00 . F07 : ... .. . ... : ... .. . ... : ... .. . ...
ROW 04 : ... .. . ... : ... .. . ... : ... .. . ... : ... .. . ... : ... .. . ...
ROW 05 : ... .. . ... : ... .. . ... : ... .. . ... : ... .. . ... : ... .. . ...
ROW 06 : ... .. . ... : D-4 14 . ... : ... .. . ... : ... .. . ... : ... .. . ...
ROW 07 : ... .. . ... : ... .. . ... : ... .. . ... : ... .. . ... : ... .. . ...
ROW 08 : ... .. . ... : C#4 00 . ... : ... .. . ... : ... .. . ... : ... .. . ...
ROW 09 : ... .. . ... : ... .. . ... : ... .. . ... : ... .. . ... : ... .. . ...
ROW 0A : ... .. . ... : ... .. . ... : ... .. . ... : ... .. . ... : ... .. . ...
ROW 0B : ... .. . ... : ... .. . ... : ... .. . ... : ... .. . ... : ... .. . ...
ROW 0C : ... .. . ... : C-4 00 . ... : ... .. . ... : ... .. . ... : ... .. . ...
ROW 0D : ... .. . ... : ... .. . ... : ... .. . ... : ... .. . ... : ... .. . ...
ROW 0E : ... .. . ... : ... .. . ... : ... .. . ... : ... .. . ... : ... .. . ...
ROW 0F : ... .. . ... : ... .. . ... : ... .. . ... : ... .. . ... : ... .. . ...
ROW 10 : ... .. . ... : B-3 00 . ... : ... .. . ... : ... .. . ... : ... .. . ...
ROW 11 : ... .. . ... : ... .. . ... : ... .. . ... : ... .. . ... : ... .. . ...
ROW 12 : ... .. . ... : ... .. . ... : ... .. . ... : ... .. . ... : ... .. . ...
ROW 13 : ... .. . ... : ... .. . ... : ... .. . ... : ... .. . ... : ... .. . ...
ROW 14 : ... .. . ... : B-3 00 . ... : ... .. . ... : ... .. . ... : ... .. . ...
ROW 15 : ... .. . ... : ... .. . ... : ... .. . ... : ... .. . ... : ... .. . ...
ROW 16 : ... .. . ... : B-3 14 . ... : ... .. . ... : ... .. . ... : ... .. . ...
ROW 17 : ... .. . ... : ... .. . ... : ... .. . ... : ... .. . ... : ... .. . ...
ROW 18 : ... .. . ... : A#3 00 . ... : ... .. . ... : ... .. . ... : ... .. . ...
ROW 19 : ... .. . ... : ... .. . ... : ... .. . ... : ... .. . ... : ... .. . ...
ROW 1A : ... .. . ... : ... .. . ... : ... .. . ... : ... .. . ... : ... .. . ...
ROW 1B : ... .. . ... : ... .. . ... : ... .. . ... : ... .. . ... : ... .. . ...
ROW 1C : ... .. . ... : A-3 00 . ... : ... .. . ... : ... .. . ... : ... .. . ...
ROW 1D : ... .. . ... : ... .. . ... : ... .. . ... : ... .. . ... : ... .. . ...
ROW 1E : ... .. . ... : ... .. . ... : ... .. . ... : ... .. . ... : ... .. . ...
ROW 1F : ... .. . ... : ... .. . ... : ... .. . ... : ... .. . ... : ... .. . ...
ROW 20 : ... .. . ... : G-3 14 . F08 : ... .. . ... : ... .. . ... : ... .. . ...
ROW 21 : ... .. . ... : A-3 14 . ... : ... .. . ... : ... .. . ... : ... .. . ...
ROW 22 : ... .. . ... : G-3 14 . F07 : ... .. . ... : ... .. . ... : ... .. . ...
ROW 23 : ... .. . ... : ... .. . ... : ... .. . ... : ... .. . ... : ... .. . ...
ROW 24 : ... .. . ... : F#3 00 . ... : ... .. . ... : ... .. . ... : ... .. . ...
ROW 25 : ... .. . ... : ... .. . ... : ... .. . ... : ... .. . ... : ... .. . ...
ROW 26 : ... .. . ... : G-3 00 . ... : ... .. . ... : ... .. . ... : ... .. . ...
ROW 27 : ... .. . ... : ... .. . ... : ... .. . ... : ... .. . ... : ... .. . ...
ROW 28 : ... .. . ... : A-3 00 . ... : ... .. . ... : ... .. . ... : ... .. . ...
ROW 29 : ... .. . ... : ... .. . ... : ... .. . ... : ... .. . ... : ... .. . ...
ROW 2A : ... .. . ... : ... .. . ... : ... .. . ... : ... .. . ... : ... .. . ...
ROW 2B : ... .. . ... : ... .. . ... : ... .. . ... : ... .. . ... : ... .. . ...
ROW 2C : ... .. . ... : G-3 00 . ... : ... .. . ... : ... .. . ... : ... .. . ...
ROW 2D : ... .. . ... : ... .. . ... : ... .. . ... : ... .. . ... : ... .. . ...
ROW 2E : ... .. . ... : ... .. . ... : ... .. . ... : ... .. . ... : ... .. . ...
ROW 2F : ... .. . ... : ... .. . ... : ... .. . ... : ... .. . ... : ... .. . ...
ROW 30 : ... .. . ... : F#3 00 . ... : ... .. . ... : ... .. . ... : ... .. . ...
ROW 31 : ... .. . ... : ... .. . ... : ... .. . ... : ... .. . ... : ... .. . ...
ROW 32 : ... .. . ... : ... .. . ... : ... .. . ... : ... .. . ... : ... .. . ...
ROW 33 : ... .. . ... : ... .. . ... : ... .. . ... : ... .. . ... : ... .. . ...
ROW 34 : ... .. . ... : ... .. . ... : ... .. . ... : ... .. . ... : ... .. . ...
ROW 35 : ... .. . ... : ... .. . ... : ... .. . ... : ... .. . ... : ... .. . ...
ROW 36 : ... .. . ... : ... .. . ... : ... .. . ... : ... .. . ... : ... .. . ...
ROW 37 : ... .. . ... : ... .. . ... : ... .. . ... : ... .. . ... : ... .. . ...
ROW 38 : ... .. . ... : E-4 00 . ... : ... .. . ... : ... .. . ... : ... .. . ...
ROW 39 : ... .. . ... : ... .. . ... : ... .. . ... : ... .. . ... : ... .. . ...
ROW 3A : ... .. . ... : ... .. . ... : ... .. . ... : ... .. . ... : ... .. . ...
ROW 3B : ... .. . ... : ... .. . ... : ... .. . ... : ... .. . ... : ... .. . ...
ROW 3C : ... .. . ... : D#4 00 . ... : ... .. . ... : ... .. . ... : ... .. . ...
ROW 3D : ... .. . ... : ... .. . ... : ... .. . ... : ... .. . ... : ... .. . ...
ROW 3E : ... .. . ... : ... .. . ... : ... .. . ... : ... .. . ... : ... .. . ...
ROW 3F : ... .. . ... : ... .. . ... : ... .. . ... : ... .. . ... : ... .. . ...

PATTERN 06
ROW 00 : ... .. . ... : D-4 00 . F05 : ... .. . ... : ... .. . ... : ... .. . ...
ROW 01 : ... .. . ... : ... .. . ... : ... .. . ... : ... .. . ... : ... .. . ...
ROW 02 : ... .. . ... : ... .. . ... : ... .. . ... : ... .. . ... : ... .. . ...
ROW 03 : ... .. . ... : D-4 00 . F07 : ... .. . ... : ... .. . ... : ... .. . ...
ROW 04 : ... .. . ... : ... .. . ... : ... .. . ... : ... .. . ... : ... .. . ...
ROW 05 : ... .. . ... : ... .. . ... : ... .. . ... : ... .. . ... : ... .. . ...
ROW 06 : ... .. . ... : D-4 14 . ... : ... .. . ... : ... .. . ... : ... .. . ...
ROW 07 : ... .. . ... : ... .. . ... : ... .. . ... : ... .. . ... : ... .. . ...
ROW 08 : ... .. . ... : C#4 00 . ... : ... .. . ... : ... .. . ... : ... .. . ...
ROW 09 : ... .. . ... : ... .. . ... : ... .. . ... : ... .. . ... : ... .. . ...
ROW 0A : ... .. . ... : ... .. . ... : ... .. . ... : ... .. . ... : ... .. . ...
ROW 0B : ... .. . ... : ... .. . ... : ... .. . ... : ... .. . ... : ... .. . ...
ROW 0C : ... .. . ... : C-4 00 . ... : ... .. . ... : ... .. . ... : ... .. . ...
ROW 0D : ... .. . ... : ... .. . ... : ... .. . ... : ... .. . ... : ... .. . ...
ROW 0E : ... .. . ... : ... .. . ... : ... .. . ... : ... .. . ... : ... .. . ...
ROW 0F : ... .. . ... : ... .. . ... : ... .. . ... : ... .. . ... : ... .. . ...
ROW 10 : ... .. . ... : B-3 00 . ... : ... .. . ... : ... .. . ... : ... .. . ...
ROW 11 : ... .. . ... : ... .. . ... : ... .. . ... : ... .. . ... : ... .. . ...
ROW 12 : ... .. . ... : B-3 14 . ... : ... .. . ... : ... .. . ... : ... .. . ...
ROW 13 : ... .. . ... : ... .. . ... : ... .. . ... : ... .. . ... : ... .. . ...
ROW 14 : ... .. . ... : ... .. . ... : ... .. . ... : ... .. . ... : ... .. . ...
ROW 15 : ... .. . ... : ... .. . ... : ... .. . ... : ... .. . ... : ... .. . ...
ROW 16 : ... .. . ... : B-3 14 . ... : ... .. . ... : ... .. . ... : ... .. . ...
ROW 17 : ... .. . ... : ... .. . ... : ... .. . ... : ... .. . ... : ... .. . ...
ROW 18 : ... .. . ... : A-3 00 . ... : ... .. . ... : ... .. . ... : ... .. . ...
ROW 19 : ... .. . ... : ... .. . ... : ... .. . ... : ... .. . ... : ... .. . ...
ROW 1A : ... .. . ... : ... .. . ... : ... .. . ... : ... .. . ... : ... .. . ...
ROW 1B : ... .. . ... : ... .. . ... : ... .. . ... : ... .. . ... : ... .. . ...
ROW 1C : ... .. . ... : G-3 00 . ... : ... .. . ... : ... .. . ... : ... .. . ...
ROW 1D : ... .. . ... : ... .. . ... : ... .. . ... : ... .. . ... : ... .. . ...
ROW 1E : ... .. . ... : ... .. . ... : ... .. . ... : ... .. . ... : ... .. . ...
ROW 1F : ... .. . ... : ... .. . ... : ... .. . ... : ... .. . ... : ... .. . ...
ROW 20 : ... .. . ... : F#3 14 . F08 : ... .. . ... : ... .. . ... : ... .. . ...
ROW 21 : ... .. . ... : G-3 14 . ... : ... .. . ... : ... .. . ... : ... .. . ...
ROW 22 : ... .. . ... : F#3 14 . F07 : ... .. . ... : ... .. . ... : ... .. . ...
ROW 23 : ... .. . ... : ... .. . ... : ... .. . ... : ... .. . ... : ... .. . ...
ROW 24 : ... .. . ... : E-3 00 . ... : ... .. . ... : ... .. . ... : ... .. . ...
ROW 25 : ... .. . ... : ... .. . ... : ... .. . ... : ... .. . ... : ... .. . ...
ROW 26 : ... .. . ... : F#3 00 . ... : ... .. . ... : ... .. . ... : ... .. . ...
ROW 27 : ... .. . ... : ... .. . ... : ... .. . ... : ... .. . ... : ... .. . ...
ROW 28 : ... .. . ... : G-3 00 . ... : ... .. . ... : ... .. . ... : ... .. . ...
ROW 29 : ... .. . ... : ... .. . ... : ... .. . ... : ... .. . ... : ... .. . ...
ROW 2A : ... .. . ... : ... .. . ... : ... .. . ... : ... .. . ... : ... .. . ...
ROW 2B : ... .. . ... : ... .. . ... : ... .. . ... : ... .. . ... : ... .. . ...
ROW 2C : ... .. . ... : F#3 00 . ... : ... .. . ... : ... .. . ... : ... .. . ...
ROW 2D : ... .. . ... : ... .. . ... : ... .. . ... : ... .. . ... : ... .. . ...
ROW 2E : ... .. . ... : ... .. . ... : ... .. . ... : ... .. . ... : ... .. . ...
ROW 2F : ... .. . ... : ... .. . ... : ... .. . ... : ... .. . ... : ... .. . ...
ROW 30 : ... .. . ... : E-3 00 . ... : ... .. . ... : ... .. . ... : ... .. . ...
ROW 31 : ... .. . ... : ... .. . ... : ... .. . ... : ... .. . ... : ... .. . ...
ROW 32 : ... .. . ... : ... .. . ... : ... .. . ... : ... .. . ... : ... .. . ...
ROW 33 : ... .. . ... : ... .. . ... : ... .. . ... : ... .. . ... : ... .. . ...
ROW 34 : ... .. . ... : ... .. . ... : ... .. . ... : ... .. . ... : ... .. . ...
ROW 35 : ... .. . ... : ... .. . ... : ... .. . ... : ... .. . ... : ... .. . ...
ROW 36 : ... .. . ... : ... .. . ... : ... .. . ... : ... .. . ... : ... .. . ...
ROW 37 : ... .. . ... : ... .. . ... : ... .. . ... : ... .. . ... : ... .. . ...
ROW 38 : ... .. . ... : E-4 00 . ... : ... .. . ... : ... .. . ... : ... .. . ...
ROW 39 : ... .. . ... : ... .. . ... : ... .. . ... : ... .. . ... : ... .. . ...
ROW 3A : ... .. . ... : ... .. . ... : ... .. . ... : ... .. . ... : ... .. . ...
ROW 3B : ... .. . ... : ... .. . ... : ... .. . ... : ... .. . ... : ... .. . ...
ROW 3C : ... .. . ... : D#4 00 . ... : ... .. . ... : ... .. . ... : ... .. . ...
ROW 3D : ... .. . ... : ... .. . ... : ... .. . ... : ... .. . ... : ... .. . ...
ROW 3E : ... .. . ... : ... .. . ... : ... .. . ... : ... .. . ... : ... .. . ...
ROW 3F : ... .. . ... : ... .. . ... : ... .. . ... : ... .. . ... : ... .. . ...

PATTERN 07
ROW 00 : ... .. . ... : D-4 00 . F05 : ... .. . ... : ... .. . ... : ... .. . ...
ROW 01 : ... .. . ... : ... .. . ... : ... .. . ... : ... .. . ... : ... .. . ...
ROW 02 : ... .. . ... : ... .. . ... : ... .. . ... : ... .. . ... : ... .. . ...
ROW 03 : ... .. . ... : D-4 00 . F07 : ... .. . ... : ... .. . ... : ... .. . ...
ROW 04 : ... .. . ... : ... .. . ... : ... .. . ... : ... .. . ... : ... .. . ...
ROW 05 : ... .. . ... : ... .. . ... : ... .. . ... : ... .. . ... : ... .. . ...
ROW 06 : ... .. . ... : D-4 14 . ... : ... .. . ... : ... .. . ... : ... .. . ...
ROW 07 : ... .. . ... : ... .. . ... : ... .. . ... : ... .. . ... : ... .. . ...
ROW 08 : ... .. . ... : C#4 00 . ... : ... .. . ... : ... .. . ... : ... .. . ...
ROW 09 : ... .. . ... : ... .. . ... : ... .. . ... : ... .. . ... : ... .. . ...
ROW 0A : ... .. . ... : ... .. . ... : ... .. . ... : ... .. . ... : ... .. . ...
ROW 0B : ... .. . ... : ... .. . ... : ... .. . ... : ... .. . ... : ... .. . ...
ROW 0C : ... .. . ... : C-4 00 . ... : ... .. . ... : ... .. . ... : ... .. . ...
ROW 0D : ... .. . ... : ... .. . ... : ... .. . ... : ... .. . ... : ... .. . ...
ROW 0E : ... .. . ... : ... .. . ... : ... .. . ... : ... .. . ... : ... .. . ...
ROW 0F : ... .. . ... : ... .. . ... : ... .. . ... : ... .. . ... : ... .. . ...
ROW 10 : ... .. . ... : B-3 00 . ... : ... .. . ... : ... .. . ... : ... .. . ...
ROW 11 : ... .. . ... : ... .. . ... : ... .. . ... : ... .. . ... : ... .. . ...
ROW 12 : ... .. . ... : B-3 14 . ... : ... .. . ... : ... .. . ... : ... .. . ...
ROW 13 : ... .. . ... : ... .. . ... : ... .. . ... : ... .. . ... : ... .. . ...
ROW 14 : ... .. . ... : ... .. . ... : ... .. . ... : ... .. . ... : ... .. . ...
ROW 15 : ... .. . ... : ... .. . ... : ... .. . ... : ... .. . ... : ... .. . ...
ROW 16 : ... .. . ... : B-3 14 . ... : ... .. . ... : ... .. . ... : ... .. . ...
ROW 17 : ... .. . ... : ... .. . ... : ... .. . ... : ... .. . ... : ... .. . ...
ROW 18 : ... .. . ... : A-3 00 . ... : ... .. . ... : ... .. . ... : ... .. . ...
ROW 19 : ... .. . ... : ... .. . ... : ... .. . ... : ... .. . ... : ... .. . ...
ROW 1A : ... .. . ... : ... .. . ... : ... .. . ... : ... .. . ... : ... .. . ...
ROW 1B : ... .. . ... : ... .. . ... : ... .. . ... : ... .. . ... : ... .. . ...
ROW 1C : ... .. . ... : G-3 00 . ... : ... .. . ... : ... .. . ... : ... .. . ...
ROW 1D : ... .. . ... : ... .. . ... : ... .. . ... : ... .. . ... : ... .. . ...
ROW 1E : ... .. . ... : ... .. . ... : ... .. . ... : ... .. . ... : ... .. . ...
ROW 1F : ... .. . ... : ... .. . ... : ... .. . ... : ... .. . ... : ... .. . ...
ROW 20 : ... .. . ... : F#3 14 . F08 : ... .. . ... : ... .. . ... : ... .. . ...
ROW 21 : ... .. . ... : G-3 14 . ... : ... .. . ... : ... .. . ... : ... .. . ...
ROW 22 : ... .. . ... : F#3 14 . F07 : ... .. . ... : ... .. . ... : ... .. . ...
ROW 23 : ... .. . ... : ... .. . ... : ... .. . ... : ... .. . ... : ... .. . ...
ROW 24 : ... .. . ... : E-3 00 . ... : ... .. . ... : ... .. . ... : ... .. . ...
ROW 25 : ... .. . ... : ... .. . ... : ... .. . ... : ... .. . ... : ... .. . ...
ROW 26 : ... .. . ... : F#3 00 . ... : ... .. . ... : ... .. . ... : ... .. . ...
ROW 27 : ... .. . ... : ... .. . ... : ... .. . ... : ... .. . ... : ... .. . ...
ROW 28 : ... .. . ... : G-3 00 . ... : ... .. . ... : ... .. . ... : ... .. . ...
ROW 29 : ... .. . ... : ... .. . ... : ... .. . ... : ... .. . ... : ... .. . ...
ROW 2A : ... .. . ... : ... .. . ... : ... .. . ... : ... .. . ... : ... .. . ...
ROW 2B : ... .. . ... : ... .. . ... : ... .. . ... : ... .. . ... : ... .. . ...
ROW 2C : ... .. . ... : F#3 00 . ... : ... .. . ... : ... .. . ... : ... .. . ...
ROW 2D : ... .. . ... : ... .. . ... : ... .. . ... : ... .. . ... : ... .. . ...
ROW 2E : ... .. . ... : ... .. . ... : ... .. . ... : ... .. . ... : ... .. . ...
ROW 2F : ... .. . ... : ... .. . ... : ... .. . ... : ... .. . ... : ... .. . ...
ROW 30 : ... .. . ... : E-3 00 . ... : ... .. . ... : ... .. . ... : ... .. . ...
ROW 31 : ... .. . ... : ... .. . ... : ... .. . ... : ... .. . ... : ... .. . ...
ROW 32 : ... .. . ... : ... .. . ... : ... .. . ... : ... .. . ... : ... .. . ...
ROW 33 : ... .. . ... : ... .. . ... : ... .. . ... : ... .. . ... : ... .. . ...
ROW 34 : ... .. . ... : ... .. . ... : ... .. . ... : ... .. . ... : ... .. . ...
ROW 35 : ... .. . ... : ... .. . ... : ... .. . ... : ... .. . ... : ... .. . ...
ROW 36 : ... .. . ... : B-1 00 . ... : ... .. . ... : ... .. . ... : ... .. . ...
ROW 37 : ... .. . ... : ... .. . ... : ... .. . ... : ... .. . ... : ... .. . ...
ROW 38 : ... .. . ... : E-2 00 . ... : ... .. . ... : ... .. . ... : ... .. . ...
ROW 39 : ... .. . ... : ... .. . ... : ... .. . ... : ... .. . ... : ... .. . ...
ROW 3A : ... .. . ... : ... .. . ... : ... .. . ... : ... .. . ... : ... .. . ...
ROW 3B : ... .. . ... : ... .. . ... : ... .. . ... : ... .. . ... : ... .. . ...
ROW 3C : ... .. . ... : F#2 00 . ... : ... .. . ... : ... .. . ... : ... .. . ...
ROW 3D : ... .. . ... : ... .. . ... : ... .. . ... : ... .. . ... : ... .. . ...
ROW 3E : ... .. . ... : ... .. . ... : ... .. . ... : ... .. . ... : ... .. . ...
ROW 3F : ... .. . ... : ... .. . ... : ... .. . ... : ... .. . ... : ... .. . ...

PATTERN 08
ROW 00 : ... .. . ... : G#2 00 . ... : ... .. . ... : ... .. . ... : ... .. . ...
ROW 01 : ... .. . ... : ... .. . ... : ... .. . ... : ... .. . ... : ... .. . ...
ROW 02 : ... .. . ... : ... .. . ... : ... .. . ... : ... .. . ... : ... .. . ...
ROW 03 : ... .. . ... : ... .. . ... : ... .. . ... : ... .. . ... : ... .. . ...
ROW 04 : ... .. . ... : ... .. . ... : ... .. . ... : ... .. . ... : ... .. . ...
ROW 05 : ... .. . ... : ... .. . ... : ... .. . ... : ... .. . ... : ... .. . ...
ROW 06 : ... .. . ... : B-2 14 . ... : ... .. . ... : ... .. . ... : ... .. . ...
ROW 07 : ... .. . ... : ... .. . ... : ... .. . ... : ... .. . ... : ... .. . ...
ROW 08 : ... .. . ... : G#2 00 . ... : ... .. . ... : ... .. . ... : ... .. . ...
ROW 09 : ... .. . ... : ... .. . ... : ... .. . ... : ... .. . ... : ... .. . ...
ROW 0A : ... .. . ... : ... .. . ... : ... .. . ... : ... .. . ... : ... .. . ...
ROW 0B : ... .. . ... : ... .. . ... : ... .. . ... : ... .. . ... : ... .. . ...
ROW 0C : ... .. . ... : F#2 00 . ... : ... .. . ... : ... .. . ... : ... .. . ...
ROW 0D : ... .. . ... : ... .. . ... : ... .. . ... : ... .. . ... : ... .. . ...
ROW 0E : ... .. . ... : ... .. . ... : ... .. . ... : ... .. . ... : ... .. . ...
ROW 0F : ... .. . ... : ... .. . ... : ... .. . ... : ... .. . ... : ... .. . ...
ROW 10 : ... .. . ... : E-2 00 . ... : ... .. . ... : ... .. . ... : ... .. . ...
ROW 11 : ... .. . ... : ... .. . ... : ... .. . ... : ... .. . ... : ... .. . ...
ROW 12 : ... .. . ... : ... .. . ... : ... .. . ... : ... .. . ... : ... .. . ...
ROW 13 : ... .. . ... : ... .. . ... : ... .. . ... : ... .. . ... : ... .. . ...
ROW 14 : ... .. . ... : ... .. . ... : ... .. . ... : ... .. . ... : ... .. . ...
ROW 15 : ... .. . ... : ... .. . ... : ... .. . ... : ... .. . ... : ... .. . ...
ROW 16 : ... .. . ... : F#2 14 . ... : ... .. . ... : ... .. . ... : ... .. . ...
ROW 17 : ... .. . ... : ... .. . ... : ... .. . ... : ... .. . ... : ... .. . ...
ROW 18 : ... .. . ... : G#2 00 . ... : ... .. . ... : ... .. . ... : ... .. . ...
ROW 19 : ... .. . ... : ... .. . ... : ... .. . ... : ... .. . ... : ... .. . ...
ROW 1A : ... .. . ... : ... .. . ... : ... .. . ... : ... .. . ... : ... .. . ...
ROW 1B : ... .. . ... : ... .. . ... : ... .. . ... : ... .. . ... : ... .. . ...
ROW 1C : ... .. . ... : A-2 00 . ... : ... .. . ... : ... .. . ... : ... .. . ...
ROW 1D : ... .. . ... : ... .. . ... : ... .. . ... : ... .. . ... : ... .. . ...
ROW 1E : ... .. . ... : ... .. . ... : ... .. . ... : ... .. . ... : ... .. . ...
ROW 1F : ... .. . ... : ... .. . ... : ... .. . ... : ... .. . ... : ... .. . ...
ROW 20 : ... .. . ... : B-2 00 . ... : ... .. . ... : ... .. . ... : ... .. . ...
ROW 21 : ... .. . ... : ... .. . ... : ... .. . ... : ... .. . ... : ... .. . ...
ROW 22 : ... .. . ... : B-2 14 . ... : ... .. . ... : ... .. . ... : ... .. . ...
ROW 23 : ... .. . ... : ... .. . ... : ... .. . ... : ... .. . ... : ... .. . ...
ROW 24 : ... .. . ... : B-2 14 . ... : ... .. . ... : ... .. . ... : ... .. . ...
ROW 25 : ... .. . ... : ... .. . ... : ... .. . ... : ... .. . ... : ... .. . ...
ROW 26 : ... .. . ... : B-2 14 . ... : ... .. . ... : ... .. . ... : ... .. . ...
ROW 27 : ... .. . ... : ... .. . ... : ... .. . ... : ... .. . ... : ... .. . ...
ROW 28 : ... .. . ... : C#3 00 . ... : ... .. . ... : ... .. . ... : ... .. . ...
ROW 29 : ... .. . ... : ... .. . ... : ... .. . ... : ... .. . ... : ... .. . ...
ROW 2A : ... .. . ... : ... .. . ... : ... .. . ... : ... .. . ... : ... .. . ...
ROW 2B : ... .. . ... : ... .. . ... : ... .. . ... : ... .. . ... : ... .. . ...
ROW 2C : ... .. . ... : B-2 00 . ... : ... .. . ... : ... .. . ... : ... .. . ...
ROW 2D : ... .. . ... : ... .. . ... : ... .. . ... : ... .. . ... : ... .. . ...
ROW 2E : ... .. . ... : ... .. . ... : ... .. . ... : ... .. . ... : ... .. . ...
ROW 2F : ... .. . ... : ... .. . ... : ... .. . ... : ... .. . ... : ... .. . ...
ROW 30 : ... .. . ... : A-2 00 . ... : ... .. . ... : ... .. . ... : ... .. . ...
ROW 31 : ... .. . ... : ... .. . ... : ... .. . ... : ... .. . ... : ... .. . ...
ROW 32 : ... .. . ... : ... .. . ... : ... .. . ... : ... .. . ... : ... .. . ...
ROW 33 : ... .. . ... : ... .. . ... : ... .. . ... : ... .. . ... : ... .. . ...
ROW 34 : ... .. . ... : ... .. . ... : ... .. . ... : ... .. . ... : ... .. . ...
ROW 35 : ... .. . ... : ... .. . ... : ... .. . ... : ... .. . ... : ... .. . ...
ROW 36 : ... .. . ... : C#3 14 . ... : ... .. . ... : ... .. . ... : ... .. . ...
ROW 37 : ... .. . ... : ... .. . ... : ... .. . ... : ... .. . ... : ... .. . ...
ROW 38 : ... .. . ... : F#2 00 . ... : ... .. . ... : ... .. . ... : ... .. . ...
ROW 39 : ... .. . ... : ... .. . ... : ... .. . ... : ... .. . ... : ... .. . ...
ROW 3A : ... .. . ... : ... .. . ... : ... .. . ... : ... .. . ... : ... .. . ...
ROW 3B : ... .. . ... : ... .. . ... : ... .. . ... : ... .. . ... : ... .. . ...
ROW 3C : ... .. . ... : G#2 00 . ... : ... .. . ... : ... .. . ... : ... .. . ...
ROW 3D : ... .. . ... : ... .. . ... : ... .. . ... : ... .. . ... : ... .. . ...
ROW 3E : ... .. . ... : ... .. . ... : ... .. . ... : ... .. . ... : ... .. . ...
ROW 3F : ... .. . ... : ... .. . ... : ... .. . ... : ... .. . ... : ... .. . ...

PATTERN 09
ROW 00 : ... .. . ... : A-2 00 . ... : ... .. . ... : ... .. . ... : ... .. . ...
ROW 01 : ... .. . ... : ... .. . ... : ... .. . ... : ... .. . ... : ... .. . ...
ROW 02 : ... .. . ... : ... .. . ... : ... .. . ... : ... .. . ... : ... .. . ...
ROW 03 : ... .. . ... : ... .. . ... : ... .. . ... : ... .. . ... : ... .. . ...
ROW 04 : ... .. . ... : ... .. . ... : ... .. . ... : ... .. . ... : ... .. . ...
ROW 05 : ... .. . ... : ... .. . ... : ... .. . ... : ... .. . ... : ... .. . ...
ROW 06 : ... .. . ... : C#3 14 . ... : ... .. . ... : ... .. . ... : ... .. . ...
ROW 07 : ... .. . ... : ... .. . ... : ... .. . ... : ... .. . ... : ... .. . ...
ROW 08 : ... .. . ... : A-2 00 . ... : ... .. . ... : ... .. . ... : ... .. . ...
ROW 09 : ... .. . ... : ... .. . ... : ... .. . ... : ... .. . ... : ... .. . ...
ROW 0A : ... .. . ... : ... .. . ... : ... .. . ... : ... .. . ... : ... .. . ...
ROW 0B : ... .. . ... : ... .. . ... : ... .. . ... : ... .. . ... : ... .. . ...
ROW 0C : ... .. . ... : G#2 00 . ... : ... .. . ... : ... .. . ... : ... .. . ...
ROW 0D : ... .. . ... : ... .. . ... : ... .. . ... : ... .. . ... : ... .. . ...
ROW 0E : ... .. . ... : ... .. . ... : ... .. . ... : ... .. . ... : ... .. . ...
ROW 0F : ... .. . ... : ... .. . ... : ... .. . ... : ... .. . ... : ... .. . ...
ROW 10 : ... .. . ... : F#2 00 . ... : ... .. . ... : ... .. . ... : ... .. . ...
ROW 11 : ... .. . ... : ... .. . ... : ... .. . ... : ... .. . ... : ... .. . ...
ROW 12 : ... .. . ... : ... .. . ... : ... .. . ... : ... .. . ... : ... .. . ...
ROW 13 : ... .. . ... : ... .. . ... : ... .. . ... : ... .. . ... : ... .. . ...
ROW 14 : ... .. . ... : ... .. . ... : ... .. . ... : ... .. . ... : ... .. . ...
ROW 15 : ... .. . ... : ... .. . ... : ... .. . ... : ... .. . ... : ... .. . ...
ROW 16 : ... .. . ... : G#2 14 . ... : ... .. . ... : ... .. . ... : ... .. . ...
ROW 17 : ... .. . ... : ... .. . ... : ... .. . ... : ... .. . ... : ... .. . ...
ROW 18 : ... .. . ... : A-2 00 . ... : ... .. . ... : ... .. . ... : ... .. . ...
ROW 19 : ... .. . ... : ... .. . ... : ... .. . ... : ... .. . ... : ... .. . ...
ROW 1A : ... .. . ... : ... .. . ... : ... .. . ... : ... .. . ... : ... .. . ...
ROW 1B : ... .. . ... : ... .. . ... : ... .. . ... : ... .. . ... : ... .. . ...
ROW 1C : ... .. . ... : B-2 00 . ... : ... .. . ... : ... .. . ... : ... .. . ...
ROW 1D : ... .. . ... : ... .. . ... : ... .. . ... : ... .. . ... : ... .. . ...
ROW 1E : ... .. . ... : ... .. . ... : ... .. . ... : ... .. . ... : ... .. . ...
ROW 1F : ... .. . ... : ... .. . ... : ... .. . ... : ... .. . ... : ... .. . ...
ROW 20 : ... .. . ... : C#3 00 . ... : ... .. . ... : ... .. . ... : ... .. . ...
ROW 21 : ... .. . ... : ... .. . ... : ... .. . ... : ... .. . ... : ... .. . ...
ROW 22 : ... .. . ... : C#3 14 . ... : ... .. . ... : ... .. . ... : ... .. . ...
ROW 23 : ... .. . ... : ... .. . ... : ... .. . ... : ... .. . ... : ... .. . ...
ROW 24 : ... .. . ... : C#3 14 . ... : ... .. . ... : ... .. . ... : ... .. . ...
ROW 25 : ... .. . ... : ... .. . ... : ... .. . ... : ... .. . ... : ... .. . ...
ROW 26 : ... .. . ... : C#3 14 . ... : ... .. . ... : ... .. . ... : ... .. . ...
ROW 27 : ... .. . ... : ... .. . ... : ... .. . ... : ... .. . ... : ... .. . ...
ROW 28 : ... .. . ... : D#3 00 . ... : ... .. . ... : ... .. . ... : ... .. . ...
ROW 29 : ... .. . ... : ... .. . ... : ... .. . ... : ... .. . ... : ... .. . ...
ROW 2A : ... .. . ... : ... .. . ... : ... .. . ... : ... .. . ... : ... .. . ...
ROW 2B : ... .. . ... : ... .. . ... : ... .. . ... : ... .. . ... : ... .. . ...
ROW 2C : ... .. . ... : C#3 00 . ... : ... .. . ... : ... .. . ... : ... .. . ...
ROW 2D : ... .. . ... : ... .. . ... : ... .. . ... : ... .. . ... : ... .. . ...
ROW 2E : ... .. . ... : ... .. . ... : ... .. . ... : ... .. . ... : ... .. . ...
ROW 2F : ... .. . ... : ... .. . ... : ... .. . ... : ... .. . ... : ... .. . ...
ROW 30 : ... .. . ... : B-2 00 . ... : ... .. . ... : ... .. . ... : ... .. . ...
ROW 31 : ... .. . ... : ... .. . ... : ... .. . ... : ... .. . ... : ... .. . ...
ROW 32 : ... .. . ... : ... .. . ... : ... .. . ... : ... .. . ... : ... .. . ...
ROW 33 : ... .. . ... : ... .. . ... : ... .. . ... : ... .. . ... : ... .. . ...
ROW 34 : ... .. . ... : --- .. . ... : ... .. . ... : ... .. . ... : ... .. . ...
ROW 35 : ... .. . ... : ... .. . ... : ... .. . ... : ... .. . ... : ... .. . ...
ROW 36 : ... .. . ... : B-3 14 . ... : ... .. . ... : ... .. . ... : ... .. . ...
ROW 37 : ... .. . ... : ... .. . ... : ... .. . ... : ... .. . ... : ... .. . ...
ROW 38 : ... .. . ... : E-4 00 . ... : ... .. . ... : ... .. . ... : ... .. . ...
ROW 39 : ... .. . ... : ... .. . ... : ... .. . ... : ... .. . ... : ... .. . ...
ROW 3A : ... .. . ... : ... .. . ... : ... .. . ... : ... .. . ... : ... .. . ...
ROW 3B : ... .. . ... : ... .. . ... : ... .. . ... : ... .. . ... : ... .. . ...
ROW 3C : ... .. . ... : F#4 00 . ... : ... .. . ... : ... .. . ... : ... .. . ...
ROW 3D : ... .. . ... : ... .. . ... : ... .. . ... : ... .. . ... : ... .. . ...
ROW 3E : ... .. . ... : ... .. . ... : ... .. . ... : ... .. . ... : ... .. . ...
ROW 3F : ... .. . ... : ... .. . ... : ... .. . ... : ... .. . ... : ... .. . ...

PATTERN 0A
ROW 00 : ... .. . ... : G#4 00 . ... : ... .. . ... : ... .. . ... : ... .. . ...
ROW 01 : ... .. . ... : ... .. . ... : ... .. . ... : ... .. . ... : ... .. . ...
ROW 02 : ... .. . ... : ... .. . ... : ... .. . ... : ... .. . ... : ... .. . ...
ROW 03 : ... .. . ... : ... .. . ... : ... .. . ... : ... .. . ... : ... .. . ...
ROW 04 : ... .. . ... : ... .. . ... : ... .. . ... : ... .. . ... : ... .. . ...
ROW 05 : ... .. . ... : ... .. . ... : ... .. . ... : ... .. . ... : ... .. . ...
ROW 06 : ... .. . ... : B-2 14 . ... : ... .. . ... : ... .. . ... : ... .. . ...
ROW 07 : ... .. . ... : ... .. . ... : ... .. . ... : ... .. . ... : ... .. . ...
ROW 08 : ... .. . ... : G#2 00 . ... : ... .. . ... : ... .. . ... : ... .. . ...
ROW 09 : ... .. . ... : ... .. . ... : ... .. . ... : ... .. . ... : ... .. . ...
ROW 0A : ... .. . ... : ... .. . ... : ... .. . ... : ... .. . ... : ... .. . ...
ROW 0B : ... .. . ... : ... .. . ... : ... .. . ... : ... .. . ... : ... .. . ...
ROW 0C : ... .. . ... : F#2 00 . ... : ... .. . ... : ... .. . ... : ... .. . ...
ROW 0D : ... .. . ... : ... .. . ... : ... .. . ... : ... .. . ... : ... .. . ...
ROW 0E : ... .. . ... : ... .. . ... : ... .. . ... : ... .. . ... : ... .. . ...
ROW 0F : ... .. . ... : ... .. . ... : ... .. . ... : ... .. . ... : ... .. . ...
ROW 10 : ... .. . ... : E-2 00 . ... : ... .. . ... : ... .. . ... : ... .. . ...
ROW 11 : ... .. . ... : ... .. . ... : ... .. . ... : ... .. . ... : ... .. . ...
ROW 12 : ... .. . ... : ... .. . ... : ... .. . ... : ... .. . ... : ... .. . ...
ROW 13 : ... .. . ... : ... .. . ... : ... .. . ... : ... .. . ... : ... .. . ...
ROW 14 : ... .. . ... : ... .. . ... : ... .. . ... : ... .. . ... : ... .. . ...
ROW 15 : ... .. . ... : ... .. . ... : ... .. . ... : ... .. . ... : ... .. . ...
ROW 16 : ... .. . ... : F#2 14 . ... : ... .. . ... : ... .. . ... : ... .. . ...
ROW 17 : ... .. . ... : ... .. . ... : ... .. . ... : ... .. . ... : ... .. . ...
ROW 18 : ... .. . ... : G#2 00 . ... : ... .. . ... : ... .. . ... : ... .. . ...
ROW 19 : ... .. . ... : ... .. . ... : ... .. . ... : ... .. . ... : ... .. . ...
ROW 1A : ... .. . ... : ... .. . ... : ... .. . ... : ... .. . ... : ... .. . ...
ROW 1B : ... .. . ... : ... .. . ... : ... .. . ... : ... .. . ... : ... .. . ...
ROW 1C : ... .. . ... : A-2 00 . ... : ... .. . ... : ... .. . ... : ... .. . ...
ROW 1D : ... .. . ... : ... .. . ... : ... .. . ... : ... .. . ... : ... .. . ...
ROW 1E : ... .. . ... : ... .. . ... : ... .. . ... : ... .. . ... : ... .. . ...
ROW 1F : ... .. . ... : ... .. . ... : ... .. . ... : ... .. . ... : ... .. . ...
ROW 20 : ... .. . ... : B-2 00 . ... : ... .. . ... : ... .. . ... : ... .. . ...
ROW 21 : ... .. . ... : ... .. . ... : ... .. . ... : ... .. . ... : ... .. . ...
ROW 22 : ... .. . ... : B-2 14 . ... : ... .. . ... : ... .. . ... : ... .. . ...
ROW 23 : ... .. . ... : ... .. . ... : ... .. . ... : ... .. . ... : ... .. . ...
ROW 24 : ... .. . ... : B-2 14 . ... : ... .. . ... : ... .. . ... : ... .. . ...
ROW 25 : ... .. . ... : ... .. . ... : ... .. . ... : ... .. . ... : ... .. . ...
ROW 26 : ... .. . ... : B-2 14 . ... : ... .. . ... : ... .. . ... : ... .. . ...
ROW 27 : ... .. . ... : ... .. . ... : ... .. . ... : ... .. . ... : ... .. . ...
ROW 28 : ... .. . ... : E-3 00 . ... : ... .. . ... : ... .. . ... : ... .. . ...
ROW 29 : ... .. . ... : ... .. . ... : ... .. . ... : ... .. . ... : ... .. . ...
ROW 2A : ... .. . ... : ... .. . ... : ... .. . ... : ... .. . ... : ... .. . ...
ROW 2B : ... .. . ... : ... .. . ... : ... .. . ... : ... .. . ... : ... .. . ...
ROW 2C : ... .. . ... : ... .. . ... : ... .. . ... : ... .. . ... : ... .. . ...
ROW 2D : ... .. . ... : ... .. . ... : ... .. . ... : ... .. . ... : ... .. . ...
ROW 2E : ... .. . ... : D#3 14 . ... : ... .. . ... : ... .. . ... : ... .. . ...
ROW 2F : ... .. . ... : ... .. . ... : ... .. . ... : ... .. . ... : ... .. . ...
ROW 30 : ... .. . ... : A-2 00 . ... : ... .. . ... : ... .. . ... : ... .. . ...
ROW 31 : ... .. . ... : ... .. . ... : ... .. . ... : ... .. . ... : ... .. . ...
ROW 32 : ... .. . ... : ... .. . ... : ... .. . ... : ... .. . ... : ... .. . ...
ROW 33 : ... .. . ... : ... .. . ... : ... .. . ... : ... .. . ... : ... .. . ...
ROW 34 : ... .. . ... : ... .. . ... : ... .. . ... : ... .. . ... : ... .. . ...
ROW 35 : ... .. . ... : ... .. . ... : ... .. . ... : ... .. . ... : ... .. . ...
ROW 36 : ... .. . ... : C#4 14 . ... : ... .. . ... : ... .. . ... : ... .. . ...
ROW 37 : ... .. . ... : ... .. . ... : ... .. . ... : ... .. . ... : ... .. . ...
ROW 38 : ... .. . ... : F#4 00 . ... : ... .. . ... : ... .. . ... : ... .. . ...
ROW 39 : ... .. . ... : ... .. . ... : ... .. . ... : ... .. . ... : ... .. . ...
ROW 3A : ... .. . ... : ... .. . ... : ... .. . ... : ... .. . ... : ... .. . ...
ROW 3B : ... .. . ... : ... .. . ... : ... .. . ... : ... .. . ... : ... .. . ...
ROW 3C : ... .. . ... : G#4 00 . ... : ... .. . ... : ... .. . ... : ... .. . ...
ROW 3D : ... .. . ... : ... .. . ... : ... .. . ... : ... .. . ... : ... .. . ...
ROW 3E : ... .. . ... : ... .. . ... : ... .. . ... : ... .. . ... : ... .. . ...
ROW 3F : ... .. . ... : ... .. . ... : ... .. . ... : ... .. . ... : ... .. . ...

PATTERN 0B
ROW 00 : ... .. . ... : A-4 00 . ... : ... .. . ... : ... .. . ... : ... .. . ...
ROW 01 : ... .. . ... : ... .. . ... : ... .. . ... : ... .. . ... : ... .. . ...
ROW 02 : ... .. . ... : ... .. . ... : ... .. . ... : ... .. . ... : ... .. . ...
ROW 03 : ... .. . ... : ... .. . ... : ... .. . ... : ... .. . ... : ... .. . ...
ROW 04 : ... .. . ... : ... .. . ... : ... .. . ... : ... .. . ... : ... .. . ...
ROW 05 : ... .. . ... : ... .. . ... : ... .. . ... : ... .. . ... : ... .. . ...
ROW 06 : ... .. . ... : C#3 14 . ... : ... .. . ... : ... .. . ... : ... .. . ...
ROW 07 : ... .. . ... : ... .. . ... : ... .. . ... : ... .. . ... : ... .. . ...
ROW 08 : ... .. . ... : A-2 00 . ... : ... .. . ... : ... .. . ... : ... .. . ...
ROW 09 : ... .. . ... : ... .. . ... : ... .. . ... : ... .. . ... : ... .. . ...
ROW 0A : ... .. . ... : ... .. . ... : ... .. . ... : ... .. . ... : ... .. . ...
ROW 0B : ... .. . ... : ... .. . ... : ... .. . ... : ... .. . ... : ... .. . ...
ROW 0C : ... .. . ... : G#2 00 . ... : ... .. . ... : ... .. . ... : ... .. . ...
ROW 0D : ... .. . ... : ... .. . ... : ... .. . ... : ... .. . ... : ... .. . ...
ROW 0E : ... .. . ... : ... .. . ... : ... .. . ... : ... .. . ... : ... .. . ...
ROW 0F : ... .. . ... : ... .. . ... : ... .. . ... : ... .. . ... : ... .. . ...
ROW 10 : ... .. . ... : F#2 00 . ... : ... .. . ... : ... .. . ... : ... .. . ...
ROW 11 : ... .. . ... : ... .. . ... : ... .. . ... : ... .. . ... : ... .. . ...
ROW 12 : ... .. . ... : ... .. . ... : ... .. . ... : ... .. . ... : ... .. . ...
ROW 13 : ... .. . ... : ... .. . ... : ... .. . ... : ... .. . ... : ... .. . ...
ROW 14 : ... .. . ... : ... .. . ... : ... .. . ... : ... .. . ... : ... .. . ...
ROW 15 : ... .. . ... : ... .. . ... : ... .. . ... : ... .. . ... : ... .. . ...
ROW 16 : ... .. . ... : G#3 14 . ... : ... .. . ... : ... .. . ... : ... .. . ...
ROW 17 : ... .. . ... : ... .. . ... : ... .. . ... : ... .. . ... : ... .. . ...
ROW 18 : ... .. . ... : A-3 00 . ... : ... .. . ... : ... .. . ... : ... .. . ...
ROW 19 : ... .. . ... : ... .. . ... : ... .. . ... : ... .. . ... : ... .. . ...
ROW 1A : ... .. . ... : ... .. . ... : ... .. . ... : ... .. . ... : ... .. . ...
ROW 1B : ... .. . ... : ... .. . ... : ... .. . ... : ... .. . ... : ... .. . ...
ROW 1C : ... .. . ... : B-3 00 . ... : ... .. . ... : ... .. . ... : ... .. . ...
ROW 1D : ... .. . ... : ... .. . ... : ... .. . ... : ... .. . ... : ... .. . ...
ROW 1E : ... .. . ... : ... .. . ... : ... .. . ... : ... .. . ... : ... .. . ...
ROW 1F : ... .. . ... : ... .. . ... : ... .. . ... : ... .. . ... : ... .. . ...
ROW 20 : ... .. . ... : D#4 00 . F06 : ... .. . ... : ... .. . ... : ... .. . ...
ROW 21 : ... .. . ... : ... .. . ... : ... .. . ... : ... .. . ... : ... .. . ...
ROW 22 : ... .. . ... : ... .. . ... : ... .. . ... : ... .. . ... : ... .. . ...
ROW 23 : ... .. . ... : C#4 00 . ... : ... .. . ... : ... .. . ... : ... .. . ...
ROW 24 : ... .. . ... : ... .. . ... : ... .. . ... : ... .. . ... : ... .. . ...
ROW 25 : ... .. . ... : ... .. . ... : ... .. . ... : ... .. . ... : ... .. . ...
ROW 26 : ... .. . ... : B-3 00 . F07 : ... .. . ... : ... .. . ... : ... .. . ...
ROW 27 : ... .. . ... : ... .. . ... : ... .. . ... : ... .. . ... : ... .. . ...
ROW 28 : ... .. . ... : A-3 00 . ... : ... .. . ... : ... .. . ... : ... .. . ...
ROW 29 : ... .. . ... : ... .. . ... : ... .. . ... : ... .. . ... : ... .. . ...
ROW 2A : ... .. . ... : F-3 14 . ... : ... .. . ... : ... .. . ... : ... .. . ...
ROW 2B : ... .. . ... : ... .. . ... : ... .. . ... : ... .. . ... : ... .. . ...
ROW 2C : ... .. . ... : G#4 00 . F08 : ... .. . ... : ... .. . ... : ... .. . ...
ROW 2D : ... .. . ... : ... .. . ... : ... .. . ... : ... .. . ... : ... .. . ...
ROW 2E : ... .. . ... : ... .. . ... : ... .. . ... : ... .. . ... : ... .. . ...
ROW 2F : ... .. . ... : F#4 14 . ... : ... .. . ... : ... .. . ... : ... .. . ...
ROW 30 : ... .. . ... : E-4 00 . F07 : ... .. . ... : ... .. . ... : ... .. . ...
ROW 31 : ... .. . ... : ... .. . ... : ... .. . ... : ... .. . ... : ... .. . ...
ROW 32 : ... .. . ... : ... .. . ... : ... .. . ... : ... .. . ... : ... .. . ...
ROW 33 : ... .. . ... : ... .. . ... : ... .. . ... : ... .. . ... : ... .. . ...
ROW 34 : ... .. . ... : ... .. . ... : ... .. . ... : ... .. . ... : ... .. . ...
ROW 35 : ... .. . ... : ... .. . ... : ... .. . ... : ... .. . ... : ... .. . ...
ROW 36 : ... .. . ... : B-3 14 . ... : ... .. . ... : ... .. . ... : ... .. . ...
ROW 37 : ... .. . ... : ... .. . ... : ... .. . ... : ... .. . ... : ... .. . ...
ROW 38 : ... .. . ... : G#4 00 . ... : ... .. . ... : ... .. . ... : ... .. . ...
ROW 39 : ... .. . ... : ... .. . ... : ... .. . ... : ... .. . ... : ... .. . ...
ROW 3A : ... .. . ... : ... .. . ... : ... .. . ... : ... .. . ... : ... .. . ...
ROW 3B : ... .. . ... : ... .. . ... : ... .. . ... : ... .. . ... : ... .. . ...
ROW 3C : ... .. . ... : B-3 00 . ... : ... .. . ... : ... .. . ... : ... .. . ...
ROW 3D : ... .. . ... : ... .. . ... : ... .. . ... : ... .. . ... : ... .. . ...
ROW 3E : ... .. . ... : ... .. . ... : ... .. . ... : ... .. . ... : ... .. . ...
ROW 3F : ... .. . ... : ... .. . ... : ... .. . ... : ... .. . ... : ... .. . ...

PATTERN 0C
ROW 00 : ... .. . ... : E-3 00 . ... : ... .. . ... : ... .. . ... : ... .. . ...
ROW 01 : ... .. . ... : ... .. . ... : ... .. . ... : ... .. . ... : ... .. . ...
ROW 02 : ... .. . ... : ... .. . ... : ... .. . ... : ... .. . ... : ... .. . ...
ROW 03 : ... .. . ... : ... .. . ... : ... .. . ... : ... .. . ... : ... .. . ...
ROW 04 : ... .. . ... : ... .. . ... : ... .. . ... : ... .. . ... : ... .. . ...
ROW 05 : ... .. . ... : ... .. . ... : ... .. . ... : ... .. . ... : ... .. . ...
ROW 06 : ... .. . ... : B-2 14 . ... : ... .. . ... : ... .. . ... : ... .. . ...
ROW 07 : ... .. . ... : ... .. . ... : ... .. . ... : ... .. . ... : ... .. . ...
ROW 08 : ... .. . ... : G#3 00 . ... : ... .. . ... : ... .. . ... : ... .. . ...
ROW 09 : ... .. . ... : ... .. . ... : ... .. . ... : ... .. . ... : ... .. . ...
ROW 0A : ... .. . ... : ... .. . ... : ... .. . ... : ... .. . ... : ... .. . ...
ROW 0B : ... .. . ... : ... .. . ... : ... .. . ... : ... .. . ... : ... .. . ...
ROW 0C : ... .. . ... : B-2 00 . ... : ... .. . ... : ... .. . ... : ... .. . ...
ROW 0D : ... .. . ... : ... .. . ... : ... .. . ... : ... .. . ... : ... .. . ...
ROW 0E : ... .. . ... : ... .. . ... : ... .. . ... : ... .. . ... : ... .. . ...
ROW 0F : ... .. . ... : ... .. . ... : ... .. . ... : ... .. . ... : ... .. . ...
ROW 10 : ... .. . ... : E-2 00 . ... : ... .. . ... : ... .. . ... : ... .. . ...
ROW 11 : ... .. . ... : ... .. . ... : ... .. . ... : ... .. . ... : ... .. . ...
ROW 12 : ... .. . ... : ... .. . ... : ... .. . ... : ... .. . ... : ... .. . ...
ROW 13 : ... .. . ... : ... .. . ... : ... .. . ... : ... .. . ... : ... .. . ...
ROW 14 : ... .. . ... : ... .. . ... : ... .. . ... : ... .. . ... : ... .. . ...
ROW 15 : ... .. . ... : ... .. . ... : ... .. . ... : ... .. . ... : ... .. . ...
ROW 16 : ... .. . ... : B-1 14 . ... : ... .. . ... : ... .. . ... : ... .. . ...
ROW 17 : ... .. . ... : ... .. . ... : ... .. . ... : ... .. . ... : ... .. . ...
ROW 18 : ... .. . ... : G#2 00 . ... : ... .. . ... : ... .. . ... : ... .. . ...
ROW 19 : ... .. . ... : ... .. . ... : ... .. . ... : ... .. . ... : ... .. . ...
ROW 1A : ... .. . ... : ... .. . ... : ... .. . ... : ... .. . ... : ... .. . ...
ROW 1B : ... .. . ... : ... .. . ... : ... .. . ... : ... .. . ... : ... .. . ...
ROW 1C : ... .. . ... : B-1 00 . ... : ... .. . ... : ... .. . ... : ... .. . ...
ROW 1D : ... .. . ... : ... .. . ... : ... .. . ... : ... .. . ... : ... .. . ...
ROW 1E : ... .. . ... : ... .. . ... : ... .. . ... : ... .. . ... : ... .. . ...
ROW 1F : ... .. . ... : ... .. . ... : ... .. . ... : ... .. . ... : ... .. . ...
ROW 20 : ... .. . ... : E-1 00 . ... : ... .. . ... : ... .. . ... : ... .. . ...
ROW 21 : ... .. . ... : ... .. . ... : ... .. . ... : ... .. . ... : ... .. . ...
ROW 22 : ... .. . ... : ... .. . ... : ... .. . ... : ... .. . ... : ... .. . ...
ROW 23 : ... .. . ... : ... .. . ... : ... .. . ... : ... .. . ... : ... .. . ...
ROW 24 : ... .. . ... : ... .. . ... : ... .. . ... : ... .. . ... : ... .. . ...
ROW 25 : ... .. . ... : ... .. . ... : ... .. . ... : ... .. . ... : ... .. . ...
ROW 26 : ... .. . ... : ... .. . ... : ... .. . ... : ... .. . ... : ... .. . ...
ROW 27 : ... .. . ... : ... .. . ... : ... .. . ... : ... .. . ... : ... .. . ...
ROW 28 : ... .. . ... : --- .. . ... : ... .. . ... : ... .. . ... : ... .. . ...
ROW 29 : ... .. . ... : ... .. . ... : ... .. . ... : ... .. . ... : ... .. . ...
ROW 2A : ... .. . ... : ... .. . ... : ... .. . ... : ... .. . ... : ... .. . ...
ROW 2B : ... .. . ... : ... .. . ... : ... .. . ... : ... .. . ... : ... .. . ...
ROW 2C : ... .. . ... : ... .. . ... : ... .. . ... : ... .. . ... : ... .. . ...
ROW 2D : ... .. . ... : ... .. . ... : ... .. . ... : ... .. . ... : ... .. . ...
ROW 2E : ... .. . ... : ... .. . ... : ... .. . ... : ... .. . ... : ... .. . ...
ROW 2F : ... .. . ... : ... .. . ... : ... .. . ... : ... .. . ... : ... .. . ...
ROW 30 : ... .. . ... : --- .. . ... : ... .. . ... : ... .. . ... : ... .. . ...
ROW 31 : ... .. . ... : ... .. . ... : ... .. . ... : ... .. . ... : ... .. . ...
ROW 32 : ... .. . ... : ... .. . ... : ... .. . ... : ... .. . ... : ... .. . ...
ROW 33 : ... .. . ... : ... .. . ... : ... .. . ... : ... .. . ... : ... .. . ...
ROW 34 : ... .. . ... : ... .. . ... : ... .. . ... : ... .. . ... : ... .. . ...
ROW 35 : ... .. . ... : ... .. . ... : ... .. . ... : ... .. . ... : ... .. . ...
ROW 36 : ... .. . ... : ... .. . ... : ... .. . ... : ... .. . ... : ... .. . ...
ROW 37 : ... .. . ... : ... .. . ... : ... .. . ... : ... .. . ... : ... .. . ...
ROW 38 : ... .. . ... : ... .. . ... : ... .. . ... : ... .. . ... : ... .. . ...
ROW 39 : ... .. . ... : ... .. . ... : ... .. . ... : ... .. . ... : ... .. . ...
ROW 3A : ... .. . ... : ... .. . ... : ... .. . ... : ... .. . ... : ... .. . ...
ROW 3B : ... .. . ... : ... .. . ... : ... .. . ... : ... .. . ... : ... .. . ...
ROW 3C : ... .. . ... : ... .. . ... : ... .. . ... : ... .. . ... : ... .. . ...
ROW 3D : ... .. . ... : ... .. . ... : ... .. . ... : ... .. . ... : ... .. . ...
ROW 3E : ... .. . ... : ... .. . ... : ... .. . ... : ... .. . ... : ... .. . ...
ROW 3F : ... .. . ... : ... .. . B00 : ... .. . ... : ... .. . ... : ... .. . ...

# End of export
